
<svg version="1.1" xmlns="http://www.w3.org/2000/svg" viewBox="0 0 550 1000" width="550" height="1000">
<defs>
	<style type="text/css">	
		.area{fill-rule:evenodd;clip-rule:evenodd;}
		.grey{fill: #cccccc;}
	</style>
</defs>

<g id="M" class="grey">
	<polygon class="area" points="281.3,856 281.8,856.4 281.9,856.7 282.4,856.9 282.5,856.6 282.3,856.5 281.7,856.1 	"/>
	<polygon class="area" points="281.5,859.5 281.7,859.3 282.2,859.1 282.7,859.1 282.6,859.2 282.1,859.4 	"/>
	<polygon class="area" points="287.1,860.4 287.2,860.7 287.2,861.1 287.5,861.5 287.5,861.8 287.9,861.8 288.1,861.7 288.4,861.8 
		288.3,862.2 288.5,862.3 288.6,862.1 288.8,862.1 288.8,861.8 288.7,861.7 288.4,861.3 288.2,861.3 288.1,861.1 287.9,860.9 
		287.4,860.5 	"/>
	<polygon class="area" points="284.8,862.8 284.8,863.2 285.2,863.3 285.2,863.8 285.3,864.2 285.6,864 285.8,863.8 285.8,863.6 
		286,863.4 285.8,863.3 285.7,863.1 285.2,862.8 285,862.9 	"/>
	<polygon class="area" points="289.8,857.8 290.3,857.8 290.9,857.8 291.1,857.6 290.9,857.5 290.5,857.6 289.9,857.6 	"/>
	<polygon class="area" points="291.7,866.2 292.6,866.8 293.7,867.3 294.4,867.2 294.9,867 294.9,867.3 295.4,867.4 296.5,867 
		297,866.9 298.3,866.6 297.3,866 296.4,866.1 296.3,865.6 296.5,865.3 296.4,864.9 296.9,864.9 297.1,864.5 297.1,864.2 297.5,864 
		297.9,864.3 297.8,864.5 297.4,864.7 298,865.2 298.4,864.8 298.6,864.5 299.1,864.4 299.5,864 300,864.2 300.1,864.4 300.7,864.4 
		301,864.6 300.5,864.7 300.1,864.9 300.5,865 301.1,864.9 301.6,865 302,864.8 302.4,865.2 302,865.2 301.5,865.5 300.9,865.5 
		300.8,865.8 301.1,865.9 301.5,866.2 302,866 302.8,866 303.7,865.7 304.8,865.5 305.6,865.2 306.2,864.6 306.6,864.4 307.1,864.4 
		307.2,864 307,863.5 307.3,863.3 307.5,863.5 307.8,863.4 307.7,863.2 307.6,863 308.1,862.8 308.4,863.1 309.6,863.8 310.7,864.3 
		311,864.6 311.4,864.6 311.7,864.6 310.7,865.2 309.8,865.5 310.3,865.9 310,866.1 311,865.9 311.2,865.5 311.5,865.5 311.3,866 
		310.2,866.6 309.4,867.8 309,867.8 309.2,867.5 309.2,867.2 308.6,867.1 308.5,867.4 308,867.5 307.9,867.7 308.3,867.6 
		308.5,867.6 308.7,867.8 308.3,868 308.1,868.3 308.6,868.2 308.9,868.1 308.7,868.7 308.5,869 308.1,869.7 308.1,870 307.9,870.4 
		307.5,870.6 307.2,871.1 306.8,871.2 306.6,871 306.8,870.5 307,870.2 307.2,869.9 307.1,869.7 306.7,870.1 306.5,870.7 
		305.9,871.3 305.6,871.4 305.4,872.3 305,872.7 305,873.1 304.8,873.3 304.6,873.8 304.1,873.9 304.1,874.1 304.1,874.4 
		303.3,875.3 302.7,875.9 302.5,875.8 302.3,875.9 302.2,875.7 302,876.1 302.2,876.2 301.6,877.1 301.2,877.8 300.9,878.1 
		300.5,879.6 300.3,880.1 299.9,880.4 299.6,880.6 299.5,880.3 299.3,880.4 298.9,880.9 298.3,881.3 297.8,881.6 297.6,881.3 
		297.9,881 298,880.7 297.6,880.6 297.1,880.5 296.9,880 296.6,879.6 296.4,880.1 296.3,880.8 296.3,881.2 295.9,881.6 295.5,881.5 
		294.9,881.5 294.4,881.6 294,881.5 294,881.2 293.8,880.9 293.2,881.4 292.9,881.6 292.6,881.6 293.1,882 293.2,882.5 293.3,883.1 
		293.4,882.2 293.5,881.7 293.7,882 293.5,882.6 293.4,883.5 293.2,883.9 292.7,884.6 292.3,885.4 292,885.8 291.6,885.7 
		291.4,885.1 291.1,885.4 291.4,885.8 291.6,886.1 291.2,886.3 290.8,886 290.9,885.7 290.7,885.4 290.3,885.6 290,885.9 
		290.2,886.1 289.9,886.4 289.7,886.2 289.4,885.9 288.7,885.3 288.5,885 288.4,884.6 288,884.8 287.7,884.9 287.7,885.1 
		287.9,885.1 288.2,885.3 288,885.5 288.2,885.7 288.6,885.5 289.3,886.1 289.4,886.4 289.1,886.4 289,886.6 288.6,886.6 
		288.4,886.6 288.6,886.8 289.1,886.8 289.2,887 289,887.1 288.5,887.7 288.3,887.7 288,887.9 287.7,888 287.5,888.2 287.3,888 
		287.3,888.4 287.2,888.7 286.9,888.6 286.6,888.7 286.2,888 286.3,887.6 286,887.5 286,887.3 286.5,887.1 286.9,887.5 287,887.2 
		286.5,886.8 287,886.6 286.7,886.5 286.2,886.7 286.1,886.4 286.4,886.1 286.3,885.9 286,886.1 285.7,886.1 285.7,885.8 
		285.2,885.7 284.7,885.6 284.6,885.3 285,885.4 285.3,885.3 285.7,885.2 286.2,885.2 285.7,884.9 285.5,884.4 285.3,884.7 
		285,884.9 284.6,884.8 284.7,884.5 283.9,884.6 283.7,884.4 283.2,884.7 283.5,885.1 284.3,885.5 284.8,886.1 285.5,886.4 
		285.5,886.7 284.9,886.6 284.4,886.7 283.9,886.7 283.7,886.3 283.9,886 283.6,885.7 283.2,885.6 283.1,885 282.8,885 282.6,884.7 
		282.1,884.7 281.8,884.8 281.5,884.4 281.6,884.1 281.3,884 281,883.9 281,883.7 280.6,883.6 280.6,883.1 280.1,882.9 280.4,883.6 
		279.9,883.6 279.7,883.5 279.7,883.1 279.7,882.6 279.8,882.1 279.6,882 279.2,882.1 279.1,881.8 279.5,881.8 280,881.7 
		280.3,881.8 280.6,881.7 280.7,882.2 280.4,882.4 280.8,882.7 281.3,882.7 281.7,882.6 282.1,882.6 282.4,882.9 282.3,883.1 
		282.2,883.3 282.6,883.3 282.3,883.6 282,883.9 282.8,883.6 283.1,883.8 283.4,883.4 283.8,883.1 283.2,883.3 282.8,883.4 
		282.8,883.2 282.6,882.9 282.6,882.6 282.4,882.4 282.6,882.2 282.9,882.4 283,882.7 283.3,882.5 283.8,882.4 284,882.2 
		284.5,882.1 284.9,882 285,881.6 284.8,881.4 284.6,881.5 284.2,881.4 283.9,881.5 283.6,881.5 283.5,881 283.1,880.5 283.2,880.3 
		283.5,880.3 283.9,880.3 284.4,880.3 284.5,880.5 284.8,880.4 285,880.4 285,880.6 285.4,880.5 285.6,880.6 285.5,881 285.6,881.4 
		285.8,881.3 285.8,880.9 285.8,880.6 286.1,880.8 286,881.3 286.1,881.6 285.9,881.8 285.9,882.1 286.1,882.2 286,882.5 286,882.7 
		286.2,882.6 286.5,882.6 286.3,882.4 286.4,882.1 286.3,881.8 286.6,881.7 286.4,881.5 286.2,881.2 286.3,880.6 286.7,880.6 
		286.9,880.8 286.8,881.2 286.9,881.3 287.1,881 287.4,880.9 287.9,881 287.9,881.3 287.5,881.6 287.3,881.8 287.5,882 287.8,881.8 
		288,881.9 288.1,881.8 287.9,881.6 288.1,881.3 288.5,881.6 288.3,882 288.5,882.1 288.6,881.7 288.8,881.8 288.8,881.6 
		288.5,881.3 288.1,880.9 288.3,880.8 288.7,880.8 289.3,880.7 290,880.4 290.4,880.2 290.8,879.7 290.9,879.3 290.5,879.4 
		290.1,879.5 289.8,879.8 289.6,879.9 289.5,879.7 289.4,879.8 289.2,880 288.7,880 288.4,880.1 288.1,880 288.1,879.8 287.7,879.6 
		287.3,879.6 287,879.6 286.9,879.4 286.6,879.3 287,879.1 287.4,879.4 287.7,879.4 288.2,879.5 288.5,879.6 289.1,879.6 289.3,879 
		289.4,878.6 289.9,878.1 290,877.8 289.6,877.8 289.9,877.4 290,877 289.8,876.8 289.5,877.2 289.2,877.3 289.2,876.9 288.9,876.8 
		289.1,876.5 289.3,876.7 289.5,876.7 289.7,876.1 290.1,875.3 290.5,875 290.3,875.5 290.6,875.5 290.7,875.2 290.9,875 
		291.3,874.8 291.4,875.2 291.2,875.6 290.9,875.6 290.6,876 290.7,876.2 291.2,875.9 291.5,875.9 291.6,876.2 291.2,876.8 
		290.9,877.1 290.7,877.6 291.2,877.2 291.4,877.3 291.7,877.5 291.8,877.8 292,877.3 292,877 292.2,876.7 292.5,876.5 292.6,876.8 
		292.8,876.6 292.5,876.1 292.3,875.9 292.5,875.6 292.6,875.2 292.3,875.2 292.1,875.2 292.3,874.8 292.5,874.8 292.9,874.5 
		293.1,874.3 293.2,874.5 293.1,874.9 293.4,874.9 293.3,875.2 293.4,875.5 293.6,875.2 293.8,875 294,875.3 294.1,875.5 
		294.2,875.5 294.3,875.1 294.6,874.4 294.6,873.9 294.7,873.4 294.5,873 294,873 293.8,872.9 293.2,873 293.1,873.4 292.7,873.5 
		292.4,873.4 292.4,873 292.2,873.1 292,873.5 291.5,873.3 291.3,873.5 291.4,874 291.6,874.3 291.4,874.6 291.1,874.3 290.7,874.3 
		290.4,874.8 289.8,875 289.4,874.8 289.2,875 288.8,874.8 288.4,875.2 288.5,875.6 288.8,875.7 288.3,876 287.9,875.9 288,875.3 
		288.1,875 287.5,875 287.3,874.6 286.8,874 286.6,873.6 286.4,873.4 286.6,873.1 286.3,872.8 286.3,872.4 286.5,872.2 287,872.4 
		287.1,872.6 287.1,872.3 287.5,872.6 288.2,873.1 288.8,873.2 289.5,873.1 290,872.9 290.9,872.4 291.3,872.3 291.6,872.2 
		292.3,872.4 292.9,872.4 293.4,872.1 293.6,871.8 294.1,871.9 294.4,872.3 295,872.7 295.5,872.9 295.9,873.1 296.2,873.3 
		296.3,873.5 297,873.8 297.5,873.8 297.1,873.6 296.7,873.5 296.4,873.3 296.3,873 296.6,873 297,873.1 297.3,872.9 296.9,872.8 
		296.6,872.7 296.4,872.8 296.2,872.7 296.5,872.6 296.3,872.4 296.1,872.2 295.8,872.3 295.5,872.4 294.9,872 294.4,871.5 
		294.1,871.2 293.6,871 293.6,870.8 293.9,870.5 293.4,870.3 293.2,870.4 292.7,870.3 292.5,869.9 292.4,869.6 292.5,869.3 
		292.5,868.9 292.3,868.7 291.9,868.5 291.7,868.6 292,868.8 292.3,868.9 292.3,869.3 292,869.7 291.4,869.7 290.9,869.3 290.5,869 
		290.2,868.8 289.9,868.6 289.4,868.5 289.3,868.7 288.8,868.2 289,868 288.8,867.6 289.1,867.3 289.4,867.2 290.2,867.3 
		290.8,867.6 291.1,867.5 291.1,867.1 290.8,867 290.8,866.6 290.6,866.5 290.5,866.3 290.2,866.3 289.8,866.1 289.7,865.8 
		289.3,865.9 288.9,866.1 288.3,866 287.8,865.8 287.4,865.8 287,865.6 286.8,865.2 286.5,865.2 286.3,865 286.7,864.7 286.7,864.2 
		286.5,864.1 286.4,863.8 286.1,863.7 286.3,863.5 286.6,863.6 287,863.6 286.9,863.5 286.6,863.3 286.3,863.1 286.3,863 286.5,863 
		287,863.3 287.6,863.6 287.8,863.8 288,863.8 288.5,863.9 288.6,864.1 288.8,864.1 289.7,864.7 290,865 290.2,864.9 290.8,865.3 
		290.9,865.6 291.2,865.8 	"/>
	<polygon class="area" points="289.6,862.7 289.4,862.9 289.6,863.1 289.8,862.9 	"/>
	<polygon class="area" points="290.6,863.6 291.1,863.9 291.3,863.8 291.1,863.6 290.7,863.5 	"/>
	<polygon class="area" points="283.5,869.3 283.5,869.6 283.7,869.8 284,869.8 284.4,869.9 285,869.9 284.8,869.8 284.3,869.5 
		284,869.5 	"/>
	<polygon class="area" points="282.1,869.1 282.1,869.3 282.4,869.4 282.7,869.4 282.7,869.1 	"/>
	<polygon class="area" points="285.9,872.3 285.7,872.1 285.8,871.8 285.8,871.4 285.8,871 285.6,870.6 285.6,870.4 285.9,870.7 
		285.9,871 286,871.2 286,871.6 286.3,871.8 286.1,872.1 	"/>
	<polygon class="area" points="289.9,870.7 290.2,870.9 290.5,870.9 290.2,870.7 290.3,870.6 290.1,870.4 289.8,870.4 	"/>
	<polygon class="area" points="282.5,880.4 282.4,880.8 282.1,880.9 281.8,881.2 281.4,881.3 281.5,881.6 281.8,881.4 282,881.6 
		282.3,881.8 282.6,881.7 283,881.8 283.2,881.7 283,881.6 282.8,881.5 282.9,881.3 282.9,880.9 282.7,880.5 	"/>
	<polygon class="area" points="274.5,873 274.5,873.4 274.8,873.6 274.8,874.2 274.8,874.6 275.1,874.9 275.3,874.9 275.4,874.6 
		275.5,874.4 275.2,874.4 275.1,874.1 275.3,873.8 275.1,873.5 275.5,873.2 275.5,873.5 275.8,873.6 275.9,873.3 276.2,873.3 
		276.4,873.3 276.7,872.9 276.5,872.9 276.3,873 276,872.9 275.9,872.7 275.5,872.5 275.5,872.7 275.5,873 275.2,872.9 274.9,873.2 
		274.8,873 	"/>
	<polygon class="area" points="274.4,877 274.4,876.6 274.9,876.5 275.4,876.8 274.9,876.1 275.1,876.1 275.5,876.6 275.8,876.8 
		275.9,876.5 275.7,876.3 275.9,876.1 276.1,876.3 276.2,876.1 276.4,875.9 276.6,876.2 276.9,876.5 276.7,876.8 276.5,876.7 
		276.2,876.7 275.8,877.1 276.2,877 276.1,877.2 275.9,877.5 276.2,877.5 276.4,877.3 276.7,877.4 276.6,877.7 276.2,878.1 
		275.9,877.8 275.4,877.9 275,877.6 275,877.2 274.7,877 	"/>
	<polygon class="area" points="277,877.2 276.9,877.7 277.1,877.8 277.3,877.6 277.2,877.3 	"/>
	<polygon class="area" points="277.1,878.1 277,878.3 276.8,878.5 276.7,878.9 276.9,879 277.1,878.5 277.3,878.3 277.5,878 	"/>
	<polygon class="area" points="278,878.1 278.1,877.6 278.4,877.5 278.7,877.6 278.7,877.2 278.3,877.3 278,877.2 277.7,877.4 
		277.5,877.1 277.5,876.9 277.9,876.8 278,876.4 278.4,876.4 278.6,876.2 278.7,876.4 278.6,876.6 278.7,876.6 279,876.9 
		279.5,877.1 279.3,876.8 279.5,876.2 279.7,876.3 279.6,876.1 279.7,875.7 279.6,875.4 279.9,875.2 280.3,875.5 280.8,875.4 
		280.8,875.6 281.3,876 281.5,876.3 281.2,876.4 281.1,876.5 280.7,876.9 280.2,877.4 279.9,877.6 279.9,877.9 279.7,878.2 
		280.1,878.1 280.3,877.9 280.6,877.8 280.9,877.5 281.2,877.6 281.3,877.2 281.4,877 281.6,877.1 281.6,876.9 282,876.8 
		282.2,877.2 282.3,876.7 282.6,876.3 282.5,876.1 282.2,876.1 282.1,875.8 281.9,875.2 282.2,875.2 282.2,875 282.4,874.9 
		282.8,874.8 282.8,875.5 282.9,875.7 282.8,875.9 282.8,876.3 282.6,876.8 282.6,877.5 282.4,877.8 282.5,878 282.4,878.3 
		282.1,878.7 282.4,878.9 282.6,878.7 282.7,879.1 282.5,879.4 282.2,879.7 281.9,879.7 282.2,880 281.9,880.2 281.5,880.2 
		281.3,880.5 281,880.5 280.7,881.1 280.3,880.8 280,880.6 279.7,880.6 279.5,880.4 279.8,880.3 279.3,879.8 279.6,879.5 
		279.3,879.6 279,879.3 278.8,879.5 278.5,879.3 278.6,878.8 278.4,878.8 278.2,878.7 278.3,878.3 	"/>
	<polygon class="area" points="290,887.6 289.8,887.1 290.1,887.1 290.3,887.3 290.6,887 290.8,887.1 290.5,887.4 290.3,887.5 	"/>
	<polygon class="area" points="304.4,876.1 304.4,875.4 304.8,875.2 305,875.1 305.7,874.4 305.8,874.7 305.6,875.1 305.6,875.6 
		305.4,875.9 305.2,875.8 304.8,875.9 	"/>
	<polygon class="area" points="304.4,877.6 304.5,877.4 304.8,877.4 305,877.4 304.7,877.8 	"/>
	<polygon class="area" points="303.9,875.7 304,875.4 304.4,875 304.2,874.9 303.8,875.2 303.7,875.5 	"/>
	<polygon class="area" points="302.7,880.6 302.7,880.4 302.9,880.3 302.8,880.1 302.7,879.9 303,879.4 303.3,879.5 303.3,879.8 
		303.1,880 303.1,880.2 303.3,880.3 303.6,880.4 303.6,880.7 303.2,880.9 303.1,880.7 302.8,880.5 	"/>
	<polygon class="area" points="302.9,892.4 302.8,892.3 302.4,892 302.5,891.7 302.8,891.7 303.1,891.8 303.5,891.4 303.7,891 
		303.8,891.2 303.7,891.4 303.9,891.4 303.9,891.7 303.5,891.7 303.2,892 303.2,892.2 	"/>
	<polygon class="area" points="302.5,890.7 302.3,891 302.4,891.3 302.3,891.6 302.1,891.9 301.8,891.8 301.5,891.5 301.6,891.3 
		301.5,891.3 301.3,891.5 301.2,891.3 301.7,890.7 302,890.9 302,890.4 302.2,889.9 302.6,890 303,889.7 303.4,889.7 303.2,890.1 
		302.9,890.1 302.7,890.3 302.8,890.5 	"/>
	<polygon class="area" points="302.6,888.6 302.4,888.8 302.5,889.3 302.3,889.4 302.2,888.9 302,888.6 302.2,888.2 302.1,887.7 
		302.3,887.5 302.3,886.9 302.1,886.3 301.8,886.4 301.6,886.3 301.4,886.1 301.7,885.2 301.8,885.5 301.9,886 302.3,886 
		302.9,886.1 303.1,886 303.3,886.4 303.3,886.8 303.2,887.4 303.4,887.5 303.4,888.1 303.1,888.3 302.9,888.6 	"/>
	<polygon class="area" points="302.5,883.9 302.2,883.6 302.2,883.4 302.4,883.1 302.6,882.6 302.8,882.8 302.7,883.1 302.8,883.3 	
		"/>
	<polygon class="area" points="300.2,860.8 299.6,860.6 299.7,860.3 299.5,860.1 299.9,860 300.2,860.5 300.4,860.6 	"/>
	<polygon class="area" points="301,860.9 300.8,860.6 301.3,860.4 302,860.3 302.1,860.7 302.4,860.7 302.7,860.9 303.6,860.9 
		304.1,860.9 304.6,860.7 304.9,860.9 304.7,861.4 305,861.9 305.5,862 305.7,861.6 305.7,861.2 306.1,861.3 306.4,861 306.8,861.2 
		306.5,861.6 307,862.1 307.2,862.5 307.3,862.8 307.1,862.6 306.8,862.9 306.3,863.1 305.3,863 304.7,862.6 304.5,862.1 
		303.4,861.6 302.9,861.8 302.6,861.6 302.4,861.7 301.6,861.2 	"/>
	<polygon class="area" points="297,861.8 297.7,861.8 297.9,861.5 298.6,861.5 298.9,862 299.4,862.2 299.3,862.7 299.2,863.1 
		298.8,863.3 298,863.1 297.4,862.5 	"/>
	<polygon class="area" points="302,863.5 301.7,863.3 301.4,863.5 301.5,863.8 301.1,863.6 301,863.3 301.3,863.1 301.9,863.2 
		301.7,862.9 301.7,862.5 302.1,862.5 302.1,863 302.6,863 303,863.4 303.5,863.6 303.3,863.8 302.8,863.5 302.3,863.7 301.9,863.7 
			"/>
	<polyline class="area" points="303.6,864 303.9,863.8 304.6,863.7 304.4,864.1 303.7,864 	"/>
	<polygon class="area" points="302.7,864.4 302.4,864.7 302.4,864.9 302.7,865 303,865 303.3,864.4 	"/>
	<polygon class="area" points="304.2,864.8 304.1,865.2 304.5,865.1 304.8,865.2 304.8,864.7 304.5,864.8 	"/>
	<polygon class="area" points="292.3,864.4 292.8,864.7 293.1,864.9 293.8,865 293.9,864.7 294.4,864.5 294.4,864.7 294.9,864.6 
		295.3,864.7 295.9,864.7 295.7,864.4 296.1,864.1 296.4,864 296.4,863.5 297,863 296.6,862.7 296.8,862.4 296.6,862.1 296.2,862 
		295.2,862.1 294.7,862.2 294.2,862.1 293.6,862 292.9,861.1 292.5,861.1 292.1,861.1 292.3,861.8 292.7,862 293,862.2 293.5,862.2 
		294.1,862.8 295,863.4 295.4,863.5 295.5,864.2 295.1,864.3 294.7,864.2 294.6,863.7 293.8,862.9 293.6,863.1 293.6,863.4 
		293.1,863.6 292.8,864.1 292.9,864.4 	"/>
	<polygon class="area" points="285,866.5 285,866.7 285.5,866.9 285.5,866.7 	"/>
	<polygon class="area" points="289,868.9 288.7,869 289,869.3 289.2,869.2 	"/>
	<polygon class="area" points="314.9,883.2 315,882.6 314.6,882.7 314.5,882.1 314,882.5 313.7,881.8 313.3,882.2 313.1,881.6 
		312.7,881.4 312.5,880.9 311.9,881 311.4,881.6 310.7,881.2 310.3,880.9 310,881.5 310,882 310.4,881.7 311.3,881.9 311.5,882.6 
		312,882.8 312.7,883.2 312.5,883.8 312.2,884.2 313.6,884.3 313.3,884.8 312.8,884.8 313.1,885.7 313.4,885.4 314.6,885.5 
		313.8,886.1 314,886.9 314.3,887.3 314.5,888.3 314.4,888.6 313.7,888 313.2,887.9 312.4,887.5 311.7,887.2 311.1,887.6 
		310.5,886.7 310.5,886.2 309.5,886.3 309.4,886.1 309.7,885.8 309.6,885.5 309,885.7 308.7,885 308.4,885.4 308.1,885.6 
		307.8,885.4 307.4,885.5 307.9,886 307.7,886.4 307.4,886.4 307.2,887 307.5,887 307.7,887.2 307.8,887.6 308.3,887.2 308.9,887.4 
		308.5,887.9 308.9,888.2 308.5,888.6 308.8,889 309,889.4 308.4,889.5 308.1,890 308.9,890.7 309.4,890.4 309.8,890.6 309.2,891.2 
		308.4,891.2 307.6,890.6 307.7,890.2 307.3,890.1 306.7,890 306.9,889.4 306.4,889 306.6,888.6 306.2,888.2 305.9,888.4 
		305.1,888.5 305.2,887.9 305.5,887.2 305.4,887 304.8,887.3 304.3,887.1 304.4,886.7 304.1,886.4 304.3,886.2 304,885.7 303.8,886 
		303.4,885.4 303,885.2 302.7,884.6 302.7,884.3 302.6,884.1 303.1,883.9 303.6,884.4 304.1,884.4 304.2,884.8 304.6,884.3 
		304.2,883.8 304.4,883.6 305.3,883.5 305.2,882.9 304.8,882.7 304.6,882.3 304.8,881.9 303.9,881.8 304,881.3 304.6,881.2 
		304.9,881.4 305.4,881.4 304.7,880.8 304.1,880.4 304.3,880.2 305.1,880.7 305.6,880.5 305.9,880.1 305.2,880 304.6,879.9 
		305,878.6 305.3,878.8 305.4,879.2 306,879.2 306.3,879.5 306.5,879.1 306.4,878.8 306.1,878.5 305.9,877.9 306.2,877.8 
		306.6,878.2 307.1,878.3 307,878 306.4,877.4 306.4,876.9 306.8,876.4 307.2,876.6 307.6,876.2 307.8,876.4 307.8,876.8 
		308.3,876.8 308.7,876.3 308.6,875.7 308.6,875.2 309.2,875.3 309.3,875.7 310,875.5 309.8,875.2 309.8,874.7 310.2,874.3 
		310.5,874.4 310.7,873.9 311.1,873.4 311.5,873.7 311.9,873.7 312.3,873.2 313,873 313.4,872.6 314,872.8 314.2,873.3 313.9,873.5 
		314.3,874 314,874.5 314.3,874.7 314.3,875.2 314,875.4 314.2,876 314,876.4 314.3,876.6 314.6,876.3 314.9,876.3 315.3,875.7 
		315.2,875.3 314.9,875 315,874.7 314.8,874.5 314.9,874.1 314.8,873.6 314.4,873.3 314.4,872.8 314.6,872.4 314.7,872.2 
		314.4,871.8 314.4,871.6 313.8,871.4 313.5,871.1 312.9,870.4 312.5,870.2 311.9,869.8 312,869.6 312.4,869.2 312.6,868.5 
		312.9,868.4 312.7,867.4 312.9,867.3 313.1,867.9 313.5,868.4 313.6,869 313.8,869.5 313.8,869.7 314.1,869.9 314.3,870.3 
		314.7,870.3 314.5,869.9 314.6,869.6 314.3,869.2 314.3,868.9 313.9,868 314.2,867.6 314.6,867.7 315.1,867.9 315.5,867.8 
		316.2,868.2 316.9,868.3 317.3,868.2 316.9,868.1 316.2,868 315.6,867.5 315.2,867.6 314.4,867.2 313.4,866.5 313.1,866.9 
		312.8,866.6 312.5,866.5 312.6,865.8 313,865.6 313,865.3 313.3,865 313.7,865.3 314.2,865.5 315.1,865.4 315.3,865.6 315.3,865.8 
		315.7,865.9 315.7,865.4 315.2,865.2 314.8,865.2 314.9,864.9 315,864.2 315.8,864.1 316.1,864.3 316.5,864.1 317.1,864.2 
		317.5,863.5 316.9,862.8 316.5,862.3 316.5,861.9 315.8,861 315.9,860.8 315.7,860.2 316.1,860.5 316.5,861 316.8,861.4 
		317.3,861.5 317.9,861.5 318.3,862 318.7,862.2 319.4,862.5 319.8,862.5 320.2,862.7 320.8,862.9 320.6,864 320.9,863.6 321,863.2 
		320.9,862.9 321.3,862.7 321.4,863.1 321.5,863.5 322,863.5 322.6,863.2 322.4,862.9 322.3,863.1 321.9,863.2 321.7,862.9 
		321.5,862.3 321.7,862.2 321.9,862.5 322.4,862.2 322.6,862 323.2,862 324.1,862.2 324.6,862 324.8,862.1 324.6,862.4 325.4,862.5 
		325.9,863 326,863.4 326.6,863.7 326.8,864.4 326.6,864.6 326.8,864.9 327,865.6 326.5,865.8 326.5,866.1 326.7,866 326.2,866.6 
		326.2,866.3 325.9,866.1 325.1,866.2 324.6,866.2 324.3,865.7 324.4,865.3 324.1,864.7 323.8,865.2 323.6,865.2 324.1,864.4 
		323.7,864.3 323.3,864.8 322.7,864.8 323.2,865.2 322.5,865.7 322.9,865.7 322.7,866.1 323.1,865.8 323.5,865.7 323.7,866.3 
		323.2,866.4 323.4,866.7 323.5,867.4 323.8,867 324.1,866.6 324.3,866.8 324.4,867.2 324.8,866.7 325.2,866.8 325.1,867.4 
		325.4,867.3 325.4,867.8 325,868.4 325.2,868.6 324.7,868.9 325.2,869.5 325.3,869 325.5,868.4 325.9,868.6 326.1,869.1 
		326.1,869.4 326.6,869.4 326.6,869.1 326.9,868.8 327.2,869.2 327.4,869.1 327.8,869.4 327.8,870.2 327.4,870.3 327.1,870.8 
		327.6,870.5 327.9,870.9 327.8,871.1 327.9,871.5 327.7,871.9 328.1,871.9 328.2,871.1 328.5,871.7 328.6,872.1 328.9,872 
		328.8,871.6 328.8,871.4 328.4,870.8 328,870.4 328.2,869.9 328.5,870.1 328.6,870.4 329.8,870.6 328.8,869.9 328.4,869.6 
		328.3,869.2 328.1,869.1 328.4,868.8 329.1,868.4 328.3,868.5 327.9,868.5 327.9,868.3 327.8,868.2 327.5,868.4 327.4,868 
		327.6,867.5 327.3,867.1 327.2,867.5 326.9,868.2 326.1,868 326.3,867.5 326,867.2 326.5,866.9 326.9,866.3 327.4,865.5 
		327.7,864.7 328.5,864.5 328.9,864.6 329.8,864.4 330.8,864.4 331.4,864.1 331.8,864.3 332.4,864.4 333,864.1 333.4,864.2 
		334.3,864.4 334.5,864.9 335.1,865.4 334.9,866 335,866.3 335.2,866.3 335.5,866.8 335.3,867 335.8,867.4 336.2,867.5 337,868.2 
		336.5,868.1 335.6,867.8 335.1,867.7 335.3,867.4 335.1,867.1 334.8,867.6 334.5,867.7 334.7,868 335.4,868.1 335.8,868.2 
		336.7,868.6 336.3,869 335.6,869.1 334.5,869 333.8,868.8 333.2,868.8 332.7,868.5 332.7,867.9 332.3,867.8 332.1,868 331.7,867.6 
		331.4,867.7 331.7,868 331.9,868.8 331,868.4 330.5,868.7 329.6,868.9 329.9,869.3 330.5,869.3 330.7,869.5 331.2,869.6 
		331.4,870.1 332.3,870.4 332.8,870.2 335.6,870.9 336.5,871.3 336.8,871.7 337.1,871.8 336.9,871.9 336.6,871.8 336.3,872 
		336.5,872.2 336.1,872.3 336,871.9 335.6,872 335.7,872.3 335.1,872.4 334.8,872.5 334.3,872.5 334,872.2 333.8,871.9 333.3,872 
		333.7,872.2 333.9,872.5 334.3,872.7 334.9,872.8 335.7,872.8 336.2,872.8 336.7,872.9 337.3,873 337,873.2 336.3,873.2 336,873.5 
		335.7,873.6 335.5,873.9 335,873.9 334.7,874.2 333.3,874.1 333,874.2 332.3,874.3 332.3,874.4 333.2,874.5 334.3,874.5 
		334.2,874.7 333.2,874.7 332.9,874.9 331.7,874.9 331.5,874.6 330.9,874.4 331.3,874.8 331.2,875.1 330.6,875.2 329.7,875.1 
		329.2,874.8 329,875 328.4,874.8 327.4,874.6 327.3,874.8 327.9,874.9 328.3,875.2 328.7,875.3 329.2,875.5 330.3,875.6 
		330.3,875.9 329.7,876 329.2,876.1 329.1,876.3 329.4,876.5 329,876.9 328.3,876.9 328.6,877.3 328.5,877.7 328.1,878 327.7,877.8 
		327.1,878.1 326.6,878.3 325.6,878.6 325.3,878.8 324.6,878.7 324.1,878.5 323.5,878.5 323.1,878.5 322.3,878.6 321.1,878.7 
		320.4,878.8 320.2,878.5 319.5,878.2 318.9,878.6 318.2,878 317.6,877.6 317.1,877.5 316.4,877.2 315.9,877.5 315.5,877.1 
		314.9,877.3 314.5,877.2 313.6,877.4 314.5,877.5 314.5,877.9 314.9,877.5 315.5,877.6 315.6,877.9 316.3,878.1 316.6,878.6 
		317.3,879 318.2,879.4 318.8,879.7 318.3,880 318.5,880.2 319.3,880.3 319.4,880.1 320.1,880.2 320.2,880.5 321,880.5 321.3,880.5 
		321.3,880.8 321.6,880.9 321.5,881.3 321.2,881.6 321.7,881.8 322.1,881.8 321.9,882.2 321.1,882.2 320.5,882.2 321.1,882.7 
		320.9,882.9 320.7,883.1 320.9,884 320.9,884.4 321.1,884.7 320.8,884.9 320.8,885.3 320.5,885.2 320.5,885 320.2,884.9 
		320.2,884.5 320.5,884 320.1,883.8 319.9,883.3 319.5,883.5 319.5,883.1 319.2,882.8 318.8,882.8 318.1,882.4 318.2,883 
		317.1,882.9 317.1,883.5 316.5,883.8 316.2,884.6 316,884.3 315.8,883.3 315.6,883.1 315.5,883.6 315.2,884 	"/>
	<polygon class="area" points="323.8,881.4 323.6,881.6 323,881.9 322.6,882.2 323,882.6 323.1,883.1 323.2,883.3 323.5,883.4 
		323.9,883.7 324.2,883.8 324.5,883.7 324.4,883.9 324.1,884.1 324.3,884.4 325,884.5 324.8,884.1 324.8,883.7 324.8,883.2 
		324.6,882.6 324.4,882 324.7,881.9 324.9,882.1 325.1,882.1 325.2,881.5 324.9,881.3 324.8,881.6 324.5,881.5 323.9,881.2 	"/>
	<polygon class="area" points="324.8,879.2 324.6,879.4 325,879.4 325.2,879.1 325.5,879.1 325.3,879.3 324.9,879.5 324.2,879.4 
		324.1,879 	"/>
	<polygon class="area" points="314.8,888.2 314.9,887.7 315.2,887.8 315.5,888 315.8,887.7 316.2,887.7 316.4,887.5 316.9,887.5 
		317.4,886.9 317.3,886.5 317.4,885.9 317.5,885.7 317.9,885.3 317.9,885.8 317.7,886 317.6,886.7 317.7,887 317.6,887.4 317,887.9 
		316.4,887.9 315.9,888.1 315.4,888.2 	"/>
</g>
<g id="TF" class="js-map-group" name="Tierra del Fuego">
	<path class="area" d="M177.8,961l-1-0.8h-2.3l-1.8,0.3l-2.9-0.3l-2.5,0.2l-2.9-0.5l-1.2-0.2l-2-1.5l-1.6-0.4l-0.2-1.4l-2.2-1.8
		l-2.6-0.5l-1.1-0.9l-1.5-1.5l-1.5-2.1l-2.9-0.5l-1.2-1.7l-1.5-0.2l-1.3-0.8l-1.8-0.4l-0.7-1.6l-2.2-1.1l-1.6-1.2l-1.8-0.6l-0.3-0.3
		l1.1-0.5l-1.8-2l-1.8-0.4l-1-0.8l-2.4-1.7l-1.5-1.3l-1.9-1.1l-0.6-1.9l-0.7-1.8l-0.4-2.3l-0.6-2.3h-2.4l-1.6-0.3l-1.4-0.8l-0.7-1.3
		v-1.2l1-0.9l1.1-0.8l0.6,0.5l2.8,1.5l-1.2-3l-0.2-1.5l-0.5-1.7l-1.7-2.4l-2-2l-1-1.6l-2-1.7l4.7,63l1.3-2l1.8,0.2l1.4-1.6l1.6-0.1
		l2.4,0.5l2.9,0.5l4.4,0.7l1.7-0.7l1.7,0.2l2-0.2l1.9,0.3l2.5,0.2l3.9,0.7l1.7,0.5l0.7,0.9l0.4,1.1h2.6l3.2,0.2l2.3-1.2h3l1.7-0.7
		l2.8-0.7l1.9-0.8l-0.6,0.5l3.8-0.7l1.4-0.7l0.6-0.7l0.9,0.3l1.9-0.8l1.8-1.7l0.4-1.1l1.1-1.5l-0.3-1.9L177.8,961z"/>
	<path class="area" d="M203,961.1l-1.7,0.6l-1-0.4l-0.6,0.8l-0.8-0.6l-0.5,0.1v-0.7l-1.8,0.5l-0.9,0.6l-0.7-0.3l-0.9-1.2l-1.4,2.1
		l-0.5-0.7l-1.1,0.7l-0.7-0.6l-3.3-0.9l2.1,2.1l-0.1,0.4l-1.4,0.1l-2.8,1.2l2.3,0.8l-0.5,0.5l0.6,1.7l2.1-0.3l0.3-1.2h0.9l1-1
		l1.3,0.2l1.3-0.9l0.6-0.1l0.2,0.9l1.7-0.2l1.1-0.5l1.5-0.2l1.1-0.4l1,0.6l2-0.2l1-1.5l-0.6-1.1L203,961.1z"/>
</g>
<g id="SC" class="js-map-group" name="Santa Cruz">
	<path class="area" d="M111.6,896.6l-1.8,0.2l-4.1-2l-2.3-0.6l-5.2,0.4l-1.9-0.2l-6.4-2.4l-2.4-0.6l-5.8,0.5l-11.2,0.7l-19.3,1.5
		L51,894l0.6-1.6l-1.6-2.6l-2-0.8l-1.3-1.8l-2.4-0.6v-1.3l-1.9-4.2l-0.2-3.5l0.6-2.6l-0.9-1.7l-1.3-1.7l-0.1-0.9l1.2-1.2l0.7-2.5
		l-2.2-6.2l-2.1-3.3h-2.9l-0.6,0.6l-0.9-0.9l-1.2,1.2l-1.2-0.7l-2.2,0.5l-2.3,3.4l-1.6,1.1H23l-1.5,0.8l-2.4-7.9l-0.2-3l-1.7-1.7
		v-2.3l-2-4.9l0.5-1.5l-0.5-1.6l0.7-3l-0.3-1.7l1.7-7.8l1.6-5.4l1.9-1l-0.2-3.3l1.1-1l1.9-1.6l1.1-2l0.5-2.7l4.1-3.8l-1.6-7.9
		l0.4-1.2l0.6-0.5l2-0.2l1.1-5.4l-1.2-1.4l0.3-1.2l-2.3-4.2l-1.7-2.4l-1.3-0.9l-0.2-1.5l0.5-1.3l3.9-4.9l0.2-2.2l-0.7-2.2l3.5-2.1
		l1.4-2.8l1.8-1.6l-0.6-5.4l-1.2-1.2l-0.1-0.7l1.1-1.1l-0.6-2.2l0.2-1.2l4.9-4.5l-1.4-4.2l-2.2-7.4l-0.9-3.1l-0.8-1l0.3-0.4l2.7-2.4
		l83-4.4l-0.1,0.5l-0.4,4.8l1.3,6.1l4,4.6l1.8,0.5l1.7,1.5h1.4l3.8,5.1l1.4,0.9l2.3,2.8l2.6,1.7l2-0.8l2.2,0.3l1.3-0.3l5.1,1.2
		l4.8-0.5l1.5,0.4l1.6,2.3l0.8,3.5l-0.2,4.9l-0.9,3.6l-0.8,0.9l-2,1.1l-1.8,0.5l-3.7,2.3l-2,1.8l0.9,1.6l2.3-0.7l3.5-1.7l2.8-1.1
		l0.2,0.1l0.3,2.5l0,0l-1.7,1l-0.5,2.7l0.7,1.4l-0.1,0.1h-2.4l-1.6,1.1l-0.4,1.4l-1.6,2l-1.6,1.4l-0.2,1.2H148l-1.6,1.3l0.1,0.7
		h-0.1l-1.5-0.2l-2.9,0.8l-2.8,3.2l-0.6,1.4l-3,1l-1.5,2.3l-1.9,3.7l-1.6,0.5l-1.9,2.5l-1,2.1l-1.2,0.7l-1.8,3.4l0.7,1.2l-1,0.9
		l-1.2,1.6l-1.6,5.6l3.6-0.5l0.4-1.6l0.2,2.7v5.2l-0.6,2.1l-2.3,2.8l-0.1,1l-1,0.6l-2.4,4.4l-3.9,1.6l-1.6-0.4l-2.4-4.1l-2-2.2
		l-3.3-2.3l-1.3,1.5l1.7,1.9l0.3,0.6l-3.4,0.9l-3.6,3.2l1,1.6l4.6-2.1l1.9,0.2l0.8-0.4l1.5,1.4l0.3,1.1l1.8,2.4l-0.2,0.3l-1.6,0.4
		l-3,0.1l-1.8,1.2l-2.2,2.5l-2.3,1.4l-1.3,2.2l-0.2,4.9l0.5,0.8l-0.9,1.5l-0.5,2.8l0.3,1.3l-0.7,0.9l-1,0.3l-1.6,2.1l-2,3.1l1.5,1.2
		l3.5-3.3l1.2-0.7h0.1l0.2,0.8l0.8,2.1v2.9l0.6,2.4l1.2,3.4l1.9,3.1l-2,0.5l-1.2-0.7l-2.3-0.3l-3.6,1l0.4,1.9l2.5-0.2l1.6,0.6
		l-0.8,1.1l1.2,1.4l2.3-1.2l1.7-0.4l1-0.9h0.2l2.6,6l0.6,2.7l4.3,2.7l1.6,3l3.1,1.7l0.4,0.9L111.6,896.6z"/>
</g>
<g id="CT" class="js-map-group" name="Chubut">
	<path class="area" d="M182.6,638.1l-3.4,0.6l-2.6,1.1l-2.3,2.2l-2.3,1.1l-1.8,4.4l-1.5,1.8l-1.1,2.7l-1.1,1.1l-1.2,2.3l-0.9,3.9
		l1,1.6l0.7,3.8l0.8,0.6v2.3l0.2,0.7l-0.5,0.2l-1.1,2l2.1,4.9l-1.3,1l-0.2,2.7l-2.4,1l0.5,0.6L161,682l-2,1.4l-0.8,2.6l-0.3,4.4
		l2.8,1.2l0.5,0.8l-0.6,1.3l-1.1,0.3l-3.6-1.1L154,694l-0.2-0.6l-1.9-0.8l-2.7,0.6l-2.3,1.6l-1.2-0.5l-4,2.8l0.3,0.9h-2l0.8,1.3
		l-2.2,0.6h-2.3l-3.7,1.6l-2.2,2.5l-0.8,2.5l-1.6,3l-3,3.3l0.2,2.3l-0.9,2.5l-1.2,1l-0.3,1l-1.2,0.9l-0.4,1.5l-83.1,4.4l-0.4-1.1
		l-1.2-1l-1-0.4l-0.3-1.3l0.5-5.3l0.8-1.3l2.9-1.6l-0.2-1.7l1.9-1.7l0.8-2.5l-0.2-2.4l-1.4-1.8l-2.9-1.8l-0.9-2.7l-5-1.9l-1.9,0.8
		l-1.9,0.1l-1.5-0.6l-0.3-1.8l0.7-0.6l1.3,0.3l2.5-1l1.8,0.6l3.3-2.1l1.4,0.9l4.5-1.6l0.4-2.4l0.7-1l1.9-1l-1.3-4.6l-5.1-0.2
		l-0.7-0.9l-2.3-1l-1.8,1.2l-4.1,0.8l-0.7-0.1l-0.6-1.8l1.4-3.5l-0.8-1.5l0.3-2.3l1.7-4.3l-1.9-3.6l-0.2-0.8l3-3.8l-2.5-1.7
		l-3.8-2.1l-2.1-1.8l-0.1-1.4l3-3.2l-0.8-3.4l-2.5-0.7h-2.9l-1.1-1.3l-0.4-3.4l-1.3-1.1l-0.8-2.3l1.3-3.9l-1.3-1.2l0.5-1.2l1.4-1.6
		l-0.2-3.9l-1.4-3.5l0.7-1.3l1.5-0.4l4.2-3.5l-0.2-2.4l0,0l146.4-7.1l0.4,1.9l2.1,1.5l1.7,2.1l7.1,1.7l0.2,1l-1,0.6v2.7l5.2,1.3
		l1.2-0.8h4.5l1.4-0.2l2.4-2.4l-0.8-1.1l0.4-0.5l-0.8-2.4l-1.1-0.7l2.2-1l2-1.8l3,0.1l0.5,1l1.3,4l0.6,1.1l-1,0.4l0.4,2.9l1,3.8
		l-0.4,3.2l-1.5,1.2l-6.8,2.6l-1.6,0.1l-1.1-0.2l-1.2-1.2l-0.5-1.2l1-2.9l-0.8-1.9l-3.1-1.8l-2.3-0.2l-2.9-0.8l-3.1,1.1l-2.2,2.1
		l-2.3,0.5l-1.7,1.9l-0.2,4l2,0.5l1.4,1.3l1.7,0.2l2.6,1.4l6.1,0.8L182.6,638.1z"/>
</g>
<g id="RN" class="js-map-group" name="Rio Negro">
	<path class="area" d="M217.9,581.2l-1.3,0.3l-3.3,1.5H205l-1.2,1l-1.9-0.9l-2.7,0.2l-3.8-1.1l-4.1-2l-2.2-0.7l-1.8-0.7l-3.2-2.2
		l-2.5-0.2l-2.7-1.3l0.3-1.4l-3.1-0.9l-1.4-0.6l-1.5-1.5l-4.4,0.8l1.4,1.4l-2.1,0.9l-1.5,3l0.2,1.5l-0.9,1.3l0.9,1.3l-0.2,4.1l1.2,7
		l2,3.3l-1,4.4l0.7,1.6l-0.3,5.6l-0.4,0.8L23.2,615l1-3.6l-4.6-3.2l-1.4-0.4l-0.1-0.6l0.9-1.5l-1-1.4l0.3-2l-2.2-4.6l0.9-2.4
		l-0.9-2.1v-2l1.7-0.2l3.9,0.3l1.2-1.2l1.4,0.2l2.6,1.6l5.3-1.8l2.5-4.9l-1-3l-0.2-2.1l1.7-1.7l2.2-1.9l1.7-0.3l3.4-0.3l1.5-1.5
		l0.9-1.1h2l1.3-1.1l1.6,0.5l3.7-1.2v-1.9l1.7-0.9l0.6-4.5l1.4-2l-0.7-1.7L57,558l1.5-2.3l2.8-1.4l3.2-1.7l2.8-0.6l2.3-2l1.7-2.3
		l1.3-2.1l2.9-1.5l3.3-2.4l3.8-4.4l2.1-2.7l1.8-2.4l1.3-1.8l1.7-0.6l1.2-1.2l4.2-2.1l2.3,0.8l4.3-1.1l-2.7-3.2l-0.5-1.5l-0.3-3.2
		l-2.1-2.1h-1.5l-1.2-29.6h2.5l2.2,0.6l2.9-0.5l0.8,1.2l1.7,1.4l0.2,2.2l-1.3,1.8l-2,3l0.5,3.7h2.3l1.4,1.2l1.9,2.9l4,1h3.5l1.9-1.1
		l2.1,0.6l0.4,1.3l2.1,3.2l3.1,1l2.2,0.5l3.5,1.4l2.3,1.3l0.6,2.2l1.8,0.7l2,1.6h3.1l4.6-0.3l4.6,1.4l4.6,0.4l2.6-0.9l5.6,0.9
		l4.2-0.6h6.4l3.8,0.6l6.4,1.4l3.7,1.5l3.5,1.2l2.6,1.8l2.5,1.4l3.9,3.3l1.2,0.9l1.8,1.5l3.9,1.7l2,0.7l0.3,36.4l4.2,1.4l2.8,1.1
		l1.8,1.8l1.4,3.7l1.1,1.5L217.9,581.2z"/>
</g>
<g id="NQN" class="js-map-group" name="Neuquen">
	<path class="area" d="M14.5,583.2l-0.4-1.3l2.3-1.5l0.7-2.8l-1.1-2l0.1-1.8l0.8-1.1l2.8-0.4l-0.6-3.3l-2.1-2.7l-1.7-0.6l-0.4-1.8
		l0.5-0.4l2.7-0.2v-3.9l1-2.7l-1.6-2.4l-0.5-1.5l0.3-1.7l-0.6-1.7l0.6-0.5l2.2-0.2L21,541l1.5-1.7l-0.9-6.8l-0.9-2.4l0.6-1.4
		l2.9-2.1l2.6-0.8l2.5-1.9l2.3-0.4l1.6-2.3l-0.6-1.7l0.8-2.4l-4.1-3.9l0.1-1.4l-1.2-5.8l-0.7-3.8l-1.2-2.5v-2.8l-3-5l1.2-3.9
		l-2.4-5.7l1.4-2.4l0.2-3.5l-0.8-2.6l0.9-2.6l-1.4-2.2l0.5-3.3l2-0.6l-1.1-5.6l1.2-0.7l2.5-0.6l0.3-1.2l2.2-0.5l1.4-1.6l-0.2-1.9
		l3.6-4.4l1,0.4l0.9,1.7l0.4,2.6l3.7,0.8l1.2-0.6l1,1.9l0.3,2.9l1.4,1l0.9,1.6l1.1,0.6l0.6,1.5l1.2,0.6l0.9,1.8L51,466l1,1.3
		l1.1,0.6l0.5,2.4l1.7,4l2.1,0.7l2.9,1.3h3.9l1.6,0.3l1.9,0.9h2.2l1.2,1.2v2.1l2.2,1.8l3,0.9l2.3-0.3l2.3,1.2h2.8l1.5,0.2l0.6,1.4
		l3.4,0.7l2,0.2l1.3,31.8h2.6l0.9,0.9l0.3,2.6l0.6,2l0.9,1.2l-0.5,0.1l-2.5-0.9l-5.2,2.6l-1.3,1.2l-1.9,0.6l-1.7,2.3l-3.8,5
		l-3.5,4.1l-3,2.2l-3.2,1.6l-1.6,2.6l-1.4,2l-1.8,1.5l-2.4,0.5l-3.5,1.9l-3.2,1.6l-1.9,2.9l-0.8,3.6l0.5,1.3l-0.9,1.3l-0.7,4.1
		l-1.9,0.9v1.7l-1.7,0.6l-2-0.7l-1.6,1.3H44l-1.4,1.8l-0.9,0.9l-2.7,0.3l-2.4,0.3l-2.7,2.3l-2.4,2.4l0.4,3.2l0.8,2.5l-1.7,3.4
		l-3.6,1.2l-2-1.2l-3-0.5l-1.2,1.2l-3.2-0.3h-0.1l-1.6,0.2v-3.8L14.5,583.2z"/>
</g>
<g id="LP" class="js-map-group" name="La Pampa">
	<path class="area" d="M91.4,445.3l-1.5-0.3l-0.1-2.9l76.3-2.5l-0.2-28.9l39.9-1.2l1,123.3l-1.2-0.5l-3.4-1.4l-1.7-1.4l-1.1-0.9
		l-4-3.4l-2.6-1.5l-2.7-1.8l-3.8-1.3l-3.8-1.5l-6.6-1.5l-4-0.6h-6.7l-4,0.6l-5.8-0.9l-2.7,0.9l-3.9-0.3l-4.8-1.5l-4.9,0.3h-2.3
		l-1.5-1.3l-1.3-0.6l-0.6-2l-3.2-1.8l-3.7-1.5l-2.3-0.6l-2.4-0.8l-1.5-2.3l-0.7-2.2l-3.9-1.2l-2.2,1.3h-2.6l-3.1-0.8l-1.6-2.4
		l-2.3-1.9h-1.3l-0.1-1.1l1.6-2.3l1.7-2.4l-0.4-3.8l-2-1.7l-1.5-2.2l-3.7,0.7l-2-0.6h-2.8h-0.1l-1.7-39.1L91.4,445.3z"/>
</g>
<g id="BA" class="js-map-group" name="Buenos Aires">
	<path class="area" d="M365.2,463.2l-4.9,7.8l-3.9,7.1l-2.4,2.2l-4.8,5.5l-1,2.3l-0.4,2.4l-1.1,4.6l-1.8,1.9l-9,4.9l-2.8,2.4
		l-0.8,0.6l-2.4,0.2l-1.8,1.3l-2,0.5l-2.5,1.6l-6.8,2.4l-4.8,2l-4.1,0.9l-2.8,1.4l-3.1,0.2l-4.4,1.4l-7.5,2l-6.9,1.2l-5,0.2
		l-10.2,2.2l-5.4,0.2l-6.6,0.5h-7.2l-6.3-1.2l-2.8-0.8l-2.7-1.6l-2.4-2.2l-5.5-0.5l1.2,3l-0.7,2.8l0.8,1v1l-1.8,2.2l1.3,4.5l0.4,0.2
		l-0.4,0.8l1.2,1.4l0.8,3.3l2.2,0.4l1.2,0.9l-0.3,2l-0.8,2.1l-0.1,4.7l-0.9,0.8l-1.6-0.2l-2.1,1.2l0.2,2.5v3.6l-0.3,2.3l-0.4,0.8
		l-1.9,1.6l-0.8,2.2l-0.1,2.5l0.9,2.6l2.7,0.9l1.4,0.2v1.7l-1.4,5.3l-3.1,0.9l-5.3,3.5l-1.4,0.4l-1-1.4l-1.4-3.8l-2.3-2.4l-3.4-1.4
		l-2.9-1l-1.5-177.4l39.7-0.9l20-22.4l1.4-0.2l1.6,1l2.2-0.9l2.6,1.2l3.7-1.2l0.4-2.6l0.8-1.5l1.3-1.5l1.8-0.8l4.3,3.4l2.1,1.1
		l3.9,2.8l3.7,2.2l2,1.8l1.7,1l2.1,0.6l2.3,1.8l1.5,0.1l0.2,0.3l1.9,0.6l1,0.2l0.5,0.3l1,1.4l0.6,3.2l1.2,0.2l1,1l3.8,1.7l3,1.8
		l3.7,6.3l6.5,5.1l8.3,2.9l3.5,2.3l1.3,0.2l1.5,1.3l1.5,2.4l1.7,0.6l4.6,4l0.4,1.8l2.7,4.3l-1.1,1.3l-2,4.4l-1.5,1.8l-2,4.1l0.7,5
		l1.5,2.3l1.5,3.3l1.9,1.5l2.2,0.6l1.6,1.4l5.3,0.4l1.1-0.7l0.4,1.1l1.2,8.1l0.2,5L365.2,463.2z"/>
</g>
<g id="SA" class="js-map-group" name="Salta">
	<path class="area" d="M71.8,114.4l-1.3-1.3H73l0.9-3.4l2.1-0.3l1.3-2.6l22.5-10.4l3.6-9.1l1.4,1.2l1.7,0.3l1.7,1.7l1.2,1.7l2.2,1.4
		l1.8,2.6l2.5,1.2l1.5,0.4l1.9,1.7l3.6,0.7l1.9-2l1.5-5.1l1.1-4.4l-1.2-4.6l0.1-1.6l0.9-1.2l1.5,0.4l2.5,1.1l2,1l0.2,1.2l-0.5,3
		l0.2,3.4l1.6,2l2.7,1.1l1.7,1.2l2.9,3.9l1.9,2.4l1.2,4.6l2.6,0.3l0.7-0.5l1,0.8l1.2-0.2l0.9,1.3l2.5,0.2l2.5-1.2l0.7-0.6l0.5,0.6
		l2.6,1.6l5.1,0.2l1.1-2.4l-0.2-2.3l0,0l2.9,2l1.7,2.1l3.9,0.2l1.5-1.1l0.8-1.1l1.9-0.2l1.1-1.6l1.8-2.3l2.9-1.7l0.7-6.9l-0.7-8.6
		l-0.2-4l-1-2.4l-2.8-0.7l-2.7,0.7l-0.7,2.3l-1.2,0.2l-0.8-0.8l-1.2-2l-0.4-2.3l-2.3-0.9l-2.5,1.3l-2.5,1.5l-1,0.3l-1.1-0.7
		l-1.2-1.9l-1.4-1.1l-0.7-1.7l0.3-3.2l-0.4-2.5l-1.3-1.8l-2.5-1.2l-1.5-1.5l-1.4-2.7l-0.8-2.3l-0.4-1.8l-1.3-1.5v-1.3l1-2.2l0.6-4
		l0.2-3.5l0.5-1.8l3-0.3l6.1,0.6l1.4,1.7l2.9,0.4l1.9,1.7l-1.1,0.8l1.5,2.5l3,3.1l0.6,3.5l3.8,9.1l1.9-5.2l0.1-7.4l0.9-1.7l1.5-1.5
		l1-4.4l2.4-2l-0.7-1.8l1.4-1.4l0.6-2.5l1.6-0.5l1.9,0.3l1.8,1.4l2.1-1.7l14.2-0.7l5.2-0.3l2.9,5.2l2.9,1.5L222,46l4.4,3.3l2.3,53.5
		l-26.9,35.1l-15.1-0.3l-4.9-1.7l-3.4,7.1l-1.8,4.2l-0.4,3.7l-1.7,3.2h-2.1l-1.5,1.2h-4.7L165,156l-1.2-0.8l-3.1-1l-4.3-0.9
		l-3.1-1.8h-3.7l-3,0.3l-1.4,1.1l-1.7-0.3l-1.8,2.8l-1.7,1.2h-1.8l-2.8-1.4l-2.1-0.6l-1-1.9h-3l-2.7,1.9l-0.6,2.9l-0.7,1l-1.4-1.2
		l-2.4-3l-1.9-2.5l-3.2-3.4l-1.8-2.9l0.6-1.6l3.6-2.2l2.5-1.8v-8.4L94.4,130l-20.5-1.7l1-3.4l-2.4-4.9l-3-1.9l-0.7-1L71.8,114.4z"/>
</g>
<g id="MZ" class="js-map-group" name="Mendoza">
	<path class="area" d="M70.9,475.3h-2.6l-1.6-0.8l-2.2-0.4h-3.7l-2.6-1.1l-1.3-0.4l-1.3-3l-0.7-3.2l-1.4-0.7l-1.2-1.5l-1.4-0.6
		l-0.9-1.7l-1.2-0.6l-0.6-1.5l-1.3-0.6l-0.7-1.2l-1.1-0.9l-0.2-2.3l-2-4.3l-2.4,1.2l-1.6-0.4l-0.2-1.4l-1-2.1l0.8-3.3l-1-3.9
		l2.1-2.6l-1-4.1l-1.4-2.8l-1.2-8.3l-1.5-1.2l0.4-0.6l1.7-1l1.1-4.8l3.2-8.4l-0.5-2l4.8-8.5l-0.9-2.9l0.6-1.2l1.5,0.3h3l-0.5-3.3
		l-1.7-2.7l0.9-1.9l-0.5-1.9l0.8-1.9l-1.2-6.2l0.8-5.9l-0.2-6.3l-3.2-1.6l-1.8,1.3l-0.3-0.2l-1.6-4.9l1.5-1.2l-0.8-3.4l-2.5-3.3
		l-0.6-2.5l2.3-0.4l2-2.7H46l3.7-2.3l-1.1-3.7l5-6.2l4.4-1l3-2.7h1.3l1.6,1.6l1.6-0.6l0.7,1.1v4.5l1,2.7l4.3,0.4l4.1-0.3l2.9-1.3
		l0.8-3.1l0.9-2.3L81,330l0.2,1.4l1.7,1.7l2.7-2.7l2.1-1l1.9-1.3l2,1.3l1.5,1.8l2.4,0.8l4.8,0.4h2.8l0.4,1.1l1.6,2l-0.4,2l2.2,1.3
		l1.1,1.1l0.3,1.7l2.7,3.1l0.3,1.8l-1.5,3l1.2,2v5l0.3,3.4l1.1,2.3l0.3,2.3l1.5,3l1.8,4l3.4,4.8l4.6,4.3v2.8l-0.7,4l-1.2,2.3l1.1,3
		v1.7l0.3,2.4l1.4,2.2v2.1l1.9,2.2l1.7,3l0.3,1.2l0.3,2.1l1.2,2.3l-0.8,1.6l-0.5,2.9l0.6,2.2l-1.1,1.8l1,2.6l-0.5,0.5v2.7l-0.4,2.6
		l0.3,1.1l-1.4,2.1l0.8,3.4v3.6l-40.6,1.3l0.3,6.5l1.4,0.3l1.7,37.7l-1.6-0.1l-2.2-0.5l-0.6-1.5l-2.8-0.4h-2.4l-2.4-1.2l-2.5,0.3
		l-2-0.5l-1.2-1v-2L70.9,475.3z"/>
</g>
<g id="SL" class="js-map-group" name="San Luis">
	<path class="area" d="M164.4,344.1v4.7l-0.3,2.4l-0.3,2.9l-1.8,3.5l1.8,52.1l0.2,27.9l-33.7,1.1v-3.6l-0.6-2.9l1.4-2.1l-0.4-1.6
		l0.3-2.4v-2l0.9-0.9l-1.1-2.9l1-1.7L131,416l0.3-2l1.2-2.4l-1.6-2.7l-0.3-2l-0.3-1.4l-1.9-3.5l-1.5-1.8v-2l-1.4-2.1l-0.3-2v-1.7
		l-0.9-2.7l0.8-1.7l0.8-4.6v-3.9l-5.1-4.7l-3.3-4.6l-1.7-3.8l-1.3-2.6l-0.3-2.2l-1-2.2l-0.3-3.2v-5.5l-0.9-1.5l1.3-2.5l-0.4-3
		l-2.8-3.1l-0.4-1.8l-1.6-1.6l-1.3-0.8l0.3-1.5l-1.9-2.3l-0.2-0.4l1.5-0.3l-0.6-2.9l-1-2.9l0.5-3.1l7.5-0.6l1.1-0.5l0.8,0.8l2.4-1.6
		l2.6,0.9l2.3,0.1l1.3,0.2l1,1l2-1.2l4.1,1l2.2-1.1h4.2l2.4-1.4l6.5,0.4v0.2l1-0.1h0.5l0.5-0.1v-0.1l0.6-0.1l3.2,2.2l3,2l1.8,1.5
		l0.3,2.4l0.9,2.4l2.1,0.9l3.3,0.4l2.4,0.4l0.6-0.2v2.2l-0.4,4.7l0.6,2.1L164.4,344.1z"/>
</g>
<g id="CB" class="js-map-group" name="Córdoba">
	<path class="area" d="M165.8,408.7l-1.7-50.5l1.6-3.2l0.4-3.4l0.4-2.6v-4.2l1.8-2.5l-0.8-2.7l0.3-4.4v-5.3L165,331l-1.8-0.3l-3-0.3
		l-1.2-0.5l-0.5-1.2l-0.4-3l-2.5-2l-3.1-2.1l-3.8-2.6l-1.3,0.1l-0.9-24.1l7.4-21.5l1.3-3.8l6-1.1l5.6-6.3l-0.9-6.3l1.5-0.7l0.1,0.1
		l0.8-0.5l0.5-0.2l0.5-0.3v-0.1l0.8-0.5l4.9-1.2l7-2h2.3l1.9,1l1,1.4l0.7,2.4l4.1,1.5l3.7-0.9l4.6,0.9l5.1,0.6l11.7,1.5l13.7,1.2
		l2.1-0.9l4.7,7.3l-0.5,2.5l6,11l-6.6,30.9l-1.9,1l-2.3,2.6l1.1,1.9v2.7l1.2,1.8l0.3,3.4l-0.6,2.2l0.8,2.9l2.3,0.9l0.3,2l1.9,1
		l1.4,3.9l1.8,3.9l1.1,2.5v7l-1.3,0.9l-24.8,38.9l-12.4,0.3l0.1,17L165.8,408.7z"/>
</g>
<g id="SF" class="js-map-group" name="Santa Fe">
	<path class="area" d="M312.1,207.6l-0.4,4.8l-0.4,5.7l1,3.5l-1.1,2.9l-0.6,2.5l-0.5,1.8l-0.2,2.9l0.1,0.5l-0.8,0.2l-1.6,1.2
		l-0.8,1.4l-1.6,1l-3.2,1.2l-2.6,7.5l-0.5,2.8l0.7,3.2l-0.5,5.1l0.6,4l0.7,2.1l-1.9,8.6l0.5,2.2l0.1,3.7l0.2,6l-0.6,1.8l-1,1.5
		l-1.2,1.5l-0.7,1.4l-1.3,2.5l-6.9,8.5l-1,1.9l-0.5,2.1l-1.2,1.3l-1.3,1.3l-1.4,1.6l-0.7,0.7l-2.4,2l-1.6,1.7l-2.6,1.6l-1.9-0.2
		l-2.2,3.2l-0.5,4.2l0.3,1.9l-0.1,1.8l-0.6,1.9l0.9,1.6l0.5,1.3l-0.7,1.4l-0.7,1.6l-0.1,1.4l-0.9,2.1v2.6l0.4,2.4l0.6,1.6l-0.3,1.1
		l1.1,3.6l3.5,5.7l1.7,3.1l4,3l1.6,1.8l-1.3,0.6l-1.8,2l-1,2l-0.3,1.8l-1.7,0.6l-2.7-1.2l-2,0.9l-1.4-0.8l-2.8,0.4l-20,22.3l-26,0.5
		l23.3-36.9l0.3-0.4l2.1-1.4V343l-3-6.9l-1.6-4.6l-1.7-0.8l-0.3-2.2l-2.5-0.9l-0.4-1.3l0.6-2L237,320l-1.2-1.8v-2.7l-0.7-1.1
		l0.9-1.1l2.6-1.3l6.9-32.5v-0.2l-6-11l0.5-2.6l0,0l2.9-16.4l2.4-16.7l4.1-24.5l63.8-2L312.1,207.6z"/>
</g>
<g id="LR" class="js-map-group" name="La Rioja">
	<path class="area" d="M48.8,219.5l0.5-1.2l1.8-0.3l3-2.4l2.2-3.9l0.6-3.3l2.3-1.6l0.4-3l0.5,0.4l2.8,0.4l5.3-1.2l3.7-1.1l0.4,0.3
		l0.5,4.6l1.8,4l3.1,1l2.2,0.1l1.7,0.7l1.7,1.7l2-0.3l1.5,0.9l1.5,2.4l3.2,1.9l4.7,0.8l2.8-2.1l1.6-1.3l4.1-0.6l6.5-0.6h2.6l2.2,1.7
		l2,3.7l2.8,3.2l2.9,1.4l1.5,1.2l0.9,2.1l2.1,1.5l1.5,3l3.4,2.2l5,4.1l4,4l0.9,3.3l2.7,2.7l2.6,7.5l4.3,14.1l-7.9,23v0.1l0.9,24.4
		l-6.9-0.5l-2.4,1.4h-4.1l-1.9,1l-4.2-1l-1.4,0.8l-0.4-0.4l-1.4-0.2L122,318l-2.1-1.2l-0.7-1.4l-0.4-2.5l-2.5-1.1l-1.1-0.9l-1.3-4.2
		l0.9-4.5l-1.2-3.1l-0.3-4.3l-6.2-8.3l-2.9-3.8l-2.2-3.5l-2.8-1.5l-1.7-2l-1.8-1.8l-5.4-4.8l-6.6-5.1l-5.5-4.4l-1.6-2.6l-6.6-1h-9.1
		l0.2-3.8l2-1.3l-0.7-2.3l1.4-1.7l-1.6-2l-0.6-1.7l3.8-2.2l-2.9-4.6l-2.5-5.7l-1.7-0.9l-0.6-1.9l-4-3.7l-2.9-0.3l-2.2-0.7l-1.1-1.7
		L48.8,219.5z"/>
</g>
<g id="SJ" class="js-map-group" name="San Juan">
	<path class="area" d="M27.7,308l-0.3-4.3l0.2-0.4l1.7,1.6l2.8-4.7l1.5-1.2l-1.9-4.5l2.5-9.5l1.1-3.9l0.5-0.3l2.4,0.4l3.4-3.4
		l-0.7-1.9l1.4-1.4l-1.2-2.6l-2-0.6l-0.1-0.9l1.5-2.5l0.2-4.9l-0.8-4.2l-1.7-2l-0.5-4l-0.9-2.3l-0.2-1l1.2-0.7l0.8-2l0.9-1.3
		l2.3-0.4l1.8-6.6V233l-0.5-3.1l2.2-3.4l-0.3-2.4l0.8-1.2l1.1,1.7l3,1l2.6,0.3l3.1,2.9l0.6,2.2l1.9,0.9l1.3,2.9l1,2.2l1.8,3l-3.4,2
		l1.2,3.5l0.9,1.2l-1,1.3l0.5,1.9l-1.6,1.1l-0.4,7h11.1l5.5,0.8l1.2,2l5.9,4.7l6.5,5l5.3,4.7l1.7,1.7l1.8,2.1l2.7,1.6l2,3.1l3,3.9
		l5.8,7.8l0.3,3.9l1.2,3l-0.9,4.4l1.7,5.3l1.7,1.4l1.8,0.8l0.2,1.5l1.1,2.4l2,1.2l0.2,0.6h-0.5l-3.4-1.1l-1.8,1.2l-0.6-0.6l-1.9,0.9
		l-8.9,0.7l-0.9,5.2l1.1,3.2l0.1,0.7l-0.5,0.1h-3.3l-4.4-0.3l-1.7-0.6l-1.2-1.5l-3.6-2.3l-2.8,2l-2.1,1l-1.4,1.3l-0.4-2.9l-4,1.7
		l-1.2,3.3l-0.6,2.3l-1.5,0.7l-3.8,0.3l-2.8-0.3l-0.4-1V329l-2-3l-1.9,0.7l-1.2-1.2h-2.9l-3.2,2.8l-4.6,1.1l-6.1,7.6l1,3.2l-1.8,1.2
		h-3.7l-2.1,2.8l-1,0.2l0.6-3.8l-2.5-3l-2.8-6l-0.9-2.5l2.3-3.9l-1.6-2.4l-3-0.8l-3.5-7.4L27.7,308z"/>
</g>
<g id="ER" class="js-map-group" name="Entre Rios">
	<path class="area" d="M344,285.2l-1.8,0.2v2l0.4,1.6l0.6,1l-0.4,1.1l0.1,1.6l-0.2,0.1h-3.4l2.5,2.5l-1.2,2.5v1.4l-0.8,1l-1.3,1.8
		l0.5,1.9l0.9,1.5l0.1,1.9l-0.4,2.1l-1.6,1.2l-2.2,1.9l-1,1.8l1.5,3.4l0.1,1.4l-0.3,1.7l-0.4,1.8l0.6,2.1l0.6,1.3l-0.3,1.8l-0.7,1.5
		l-0.5,1.4l-0.2,1.8l-0.6,1.4L334,336l-0.8,3.2l0.7,2.4l0.4,2.2l0.6,1.7l-0.2,2.8l0.8,2.2l0.3,0.8l-0.6,1.4l0.8,0.8l-0.1,0.1
		l-1.2,0.7l-1.1-0.1l-4.2,0.4l-0.3,2.8l-0.2,4l-0.4,1.7l-1.3,3.1l-0.7,3.7l0.3,1.4l-0.4,1.8l0.8,1.9l0.7,2.4l0.4,0.6l-1.8-0.1
		l-1.9-0.2l-1.6,0.8l-1.4,0.7l-2.3-1.2l-3.1-1l-1.8-0.7l-1.1-0.7l-1.9-1.7l-1.5-0.4l-1.4-0.1l-1-0.8l-1.9-0.6l-2-1.1l-3.5-2.5
		l-0.9-0.7l-1.7-0.8l-2-1.3l-1.5-1.2l-2-0.6l-1.3-0.9l-1.2-1.1l-2.6-1.1l-1.6-1.8l-2.2-2l-1.3-1.4l-1.3-0.8l-1.2-0.6l-0.8-0.2
		l-0.6-0.9l-1.2-0.5l-0.7-1.3l-1.3-1.1l-2.2-3.5l-0.8-2.8l0.3-1.3l-0.7-2l-0.3-2.1v-2.1l0.8-1.9l0.1-1.3l1.5-3.3l0.1-0.2l-0.7-2.1
		l-0.6-1.1l0.4-1.1l0.2-2.5l-0.3-1.9l0.3-2.5l0.1-0.9l1.2-1.8l1.4,0.2l2.1-1.3l1.1-0.6l1.7-1.8l2.8-2.3l3.3-3.7l0.6-0.6l0.9-1
		l0.1-0.1l0.6-2.2l0.9-1.8l2-2.4l1.4-1.7l3.3-4.1l0.2-0.2l1.8-3.5l1.2-1.8l0.7-0.9l0.5-0.8l0.9-2.5v-2.1l-0.3-7.5l1.8-0.4l1.8-1.1
		l1.6-0.4l1.7,0.5l2.7,0.6l2.7-1.7l1.9-1.5l4.1-0.7l2.4-0.5l3.8-1.9h0.7l1.2,0.7l2.4,1.4l1.7,1l2.1,0.5l1.1,0.1l0.6,0.7l0.2,1.7
		l1.2,0.5l0.1,1.2l0.5,2.6l1.9,0.4l0.9,0.9l1.3,1.7l0.9,0.1l0.3,1.2l1.4,0.6v0.7l-0.2,1.4l0.3,1.3L344,285.2z"/>
</g>
<g id="SE" class="js-map-group" name="Santiago del Estero">
	<path class="area" d="M243.2,232.6l-2.4,16.7l-2.5,14.1l-4.4-6.9l-3.2,1.4l-13.1-1.2l-11.7-1.5l-5-0.6l-5-0.9l-3.5,0.9l-2.5-0.9
		l-0.5-1.6l-1.5-2.3l-2.8-1.4h-2.9l-7.4,2.1l-5.1,1.2l-1.3,0.7l-5.2-8.3v-10.3l-0.9-7.1l0.3-3.9v-8.7l-2.1-5.6l-0.9-4l0.8-0.2
		l2.9-2.9v-6.2l-0.3-3.7l0.8-3.2l1.9-2.4l2.2-1.9l1-3.5l-0.3-2.9l1.9-1.3l1.5-4.8l2.4-1.8l1-3.8l0.3-2.7l-1.2-2.5v-1.4l1.8-1.5v-2.6
		l2-3.7l0.4-3.8l1.7-4l2.6-5.4l3.3,1.2l14.1,0.3v0.1h2.1h0.2l43.5-0.3l1.2,67.5L243.2,232.6z"/>
</g>
<g id="CA" class="js-map-group" name="Catamarca">
	<path class="area" d="M60.2,199.1l2.3-2.9v-2.3l3.4-5.1l-1.2-1.2l2.3-3.1l1.3-0.8l1.9,0.9l3.2-1.9l4.6-0.2l1.5-2.5l-0.4-3.4
		l-6.8-9.3l-2.3-2.1v-1.6l1-1.2l0.2-2.1l4.6-2.8l-0.2-2.9l-1.5-4.2l0.2-2.3l-2.6-6.3l-0.2-2.6l-1.3-3.2l1-2.1l-0.9-4.2l24.4,2
		l25,1.4v5.4l-1.6,1.1l-4.2,2.6l-1.2,3.2l2.5,3.9l3.2,3.5l1.8,2.4l2.5,3.1l3.2,2.8l2.2-3l0.7-2.7l1.5-1.1h1.1l0.5,1v2.6l-0.9,3.2
		v3.8l4.8,1l2.5,1.8l1,3.4v3.2L137,179l-3.8,5.9l2.5,1.7l1.2,1.4l0.3,3.8l1.5,3.8l0.3,2.4l2.4,2h1.9l1.4,2.4l0.9,3.3l1.3,3.1
		l5.8-3.2l1.2-1.2l2.7,1.1l0.8-0.3l1,4l2,5.2v8.4l-0.3,4l0.9,7.1v10.7l3.4,5.6l2,3.1l-2.6,1.4l0.9,6.8l-4.5,5.1l-6.5,1.2l-0.1,0.3
		l-3.5-11.4l-2.8-8l-2.7-2.7l-0.9-3.3l-4.4-4.4l-5.2-4.3l-3-1.9l-1.5-3l-2.1-1.5l-0.9-2.1l-2-1.7l-2.7-1.3l-2.5-2.7l-2-3.8l-3.2-2.6
		h-3.4l-6.6,0.6l-4.8,0.6l-2,1.6l-2,1.5l-3.3-0.5l-2.6-1.6l-1.5-2.4l-2.6-1.5l-1.6,0.3l-1.1-1.1l-2.4-1.1l-2.3-0.1l-2.1-0.7
		l-1.2-2.7l-0.6-5.4l-2-1.5l-4.6,1.3l-4.9,1.2l-2-0.2l-1.2-0.8L60.2,199.1z"/>
</g>
<g id="TU" class="js-map-group" name="Tucuman">
	<path class="area" d="M140,166.7l-3.3-2.3l-3.7-0.9v-1.7l0.9-3.2l0.1-1.9l1,0.2l3.1,1.6h3l2.4-1.7l1.4-2.1l1.3,0.3l1.6-1.3l2.3-0.3
		h3l2.7,1.6l4.7,1l2.6,0.9l2.2,1.5l1.8-1.1h4.9l1.5-1.2h1v0.9l-1.8,1.5v2.8l1.2,2.3l-0.2,1.9l-0.8,2.9l-2.4,1.8L169,175l-2.3,1.6
		l0.3,3.7l-0.8,2.5l-1.9,1.7l-2.2,2.8l-1.1,4.1l0.3,4v5.2l-1.9,1.9l-2.4,0.7l-3.3-1.3l-1.9,1.9l-3.7,2.1l-0.4-0.9l-0.9-3.3l-2.2-3.7
		h-2.3l-1.2-1l-0.2-1.7l-1.5-3.7l-0.3-4.3l-1.7-2l-1.2-0.8l2.8-4.3l2.5-5v-3.8L140,166.7z"/>
</g>
<g id="CR" class="js-map-group" name="Corrientes">
	<polygon class="area" points="397.9,205 397.3,205.5 394.8,207.2 395.8,209.3 396.8,209.9 396.6,210.7 395.9,210.4 394.8,210.8 
		393.3,210.3 390.9,210.6 391.1,212.7 390.7,213.1 389.7,213.7 387.9,214.2 387.4,216 386.7,217.3 384.7,219.6 383.7,221.6 
		381.7,222.1 381.1,224.2 380.4,225.2 379.2,226.8 378.1,230.7 376.3,231.2 374.1,232.5 373.1,234.5 372.5,236.6 371.9,238.2 
		371.3,238.9 369.8,239.5 369.4,241.3 368.6,242.2 366.9,242.4 366.1,245 364.9,246 363.4,248.1 361.1,249.7 360.5,250.5 
		358.9,250.4 357.1,251.4 356.5,253.1 356.4,254.2 355.4,255.2 355.4,257 354.9,258.3 353,259.9 352.4,261.4 351.6,262.3 
		350.2,262.9 350,263.5 349,263.5 348,265.4 348.5,267.8 348.1,268.5 346.5,269.7 343.2,271.6 342.5,274.1 342.7,276.5 342.9,277.3 
		342.2,277.2 341.3,276.1 339.9,274.7 338.7,274.4 338.5,273.3 338.3,271 337.1,270.5 337,269.4 335.5,267.6 333.6,267.4 332,267.1 
		328,264.8 326.4,263.8 324.7,263.8 320.8,265.7 318.6,266.2 314,266.9 311.8,268.7 309.9,269.9 308.1,269.5 305.9,268.9 
		303.6,269.5 301.9,270.6 300.4,270.9 300.3,270.3 302.2,261.6 301.3,259.1 300.8,255.7 301.3,250.9 301.3,250.5 300.7,247.4 
		301.1,245.1 303.3,238.7 305.8,237.8 308.1,236.3 308.8,234.9 309.7,234.1 311.9,233.4 311.7,231.4 311.9,228.9 312.8,225.4 
		314.2,221.4 313.1,217.5 313.8,207.9 314.7,206.6 316.5,205.4 317.8,203.7 317.7,201.5 319.6,196.8 319.4,192.2 317.8,190 
		317,187.8 317.7,187.1 318.3,185.9 319.3,185.7 319.3,186 320.7,185.2 322.6,185 323.9,184.1 325.8,183.5 330.5,182.8 333,183 
		336.5,183 339.9,183.5 343.2,184.6 347,185.1 349,185.9 350.9,186.5 352.4,185.9 354.2,186 355.8,186.9 357.9,188.1 361.5,188.1 
		362.8,188.4 364.8,189.7 366.6,190.6 368.4,190 369.7,189.8 372.9,188.7 371.9,186.8 371.9,186.5 372.1,186.4 372.9,186.4 
		373.9,187.3 375.3,188.7 377.9,189.8 380,189 381.7,187.6 382.4,184.9 382.6,184.6 384.1,184.6 385.2,182.9 386.1,182.3 
		386.5,182.2 386.5,183.8 387.3,185.9 389.5,188.2 391.7,191.4 393,194.8 393.2,197.7 393.6,199.4 394.4,201.5 395.5,202.1 
		395.7,203.9 397.4,204.1 397.6,204.4"/>
</g>
<g id="CH" class="js-map-group" name="Chaco">
	<polygon class="area" points="315.6,204.2 249.4,206.3 248.2,137.6 204.5,137.9 227.1,108.4 230.9,103.4 230.6,97.5 233,97.5 
		234.8,99 238.4,100.2 240.4,100 242.1,102.5 244.8,102.8 246.4,103.2 247.4,106.2 249.4,105.9 249.9,107.8 253.4,110.3 
		258.1,110.6 258.7,112.1 261.3,115.6 263.2,117.8 266.6,120.5 269.3,122.3 271.4,123.8 273.7,124.7 274.9,126.5 277.7,127.4 
		279.9,129.3 281.6,131 282.7,133.2 284.2,134.5 285.4,139.7 290.5,142.2 292.4,143.8 294.8,146.7 296.2,148.6 297.7,151.9 
		299.9,154.5 307.6,155.7 311.2,157.6 315.1,160.3 317.2,160.9 317.5,163.3 319.8,163 321.2,166 323.1,166.6 324.1,167.9 
		325.4,168.8 325.5,169.3 324.9,169.8 324.7,172.4 323.3,174.7 321.2,177 321.2,180.1 320.1,181.4 318.7,183.9 317.7,184.1 
		316.8,185.8 315.3,187.4 316.6,190.9 318.1,193 318.3,196.6 316.4,201.3 316.4,202.7 316.4,203.2"/>
</g>
<g id="JY" class="js-map-group" name="Jujuy">
	<path class="area" d="M108.6,71.6l-1.1-3.2l-2.6-1.5l0.4-1.5l0.9-1.8l1.6-0.8v-3.1l2.4-3.3l1.7-0.7l2.1-2.9V51l3-1.8l7.9-5.4
		l0.8-2.6l0.3-2.3l1-0.6l1.1,0.2l0.8,2l2.2-0.6c0.3-0.1,2.6-0.4,3.3,2l0.1,0.2l1.7,1.7l2.5-0.8l7.4-0.3h5.3l-0.3,1.2l-0.2,3.9
		l-0.5,3.5l-1,2.3l-0.1,2.7l1.5,1.6l0.3,1.4l0.9,2.5l1.6,2.9l1.9,2L158,68l0.7,1l0.3,1.7l-0.4,3.4l1.1,2.7l1.5,1.1l1.3,1.9l2.5,1.6
		l2-0.7l2.7-1.6l1.7-0.8l0.4,0.2l0.2,1.3l1.5,2.6l1.7,1.8l3.6-0.5l0.7-2.5l1.1-0.3l1.3,0.3l0.4,0.9l0.2,3.8l0.7,8.4l-0.6,5.7
		l-2.2,1.3l-2.2,2.7l-0.6,0.8l-1.9,0.2l-1,1.5l-0.8,0.6l-2.3-0.1l-1.3-1.5l-2.9-2.1l-2.5-1.9l-1,3.1l0.2,2.2l-0.3,0.7l-3.2-0.1
		l-1.7-1l-1.8-2.3l-1.9,1.9l-1.8,0.8l-1-0.1l-1.1-1.5l-1.5,0.2l-1.5-1.2l-1.4,0.9l-0.5-0.1l-0.9-3.4l-2.2-2.9l-2.9-4l-2.1-1.6
		l-2.6-1.1l-0.8-1.1l-0.1-2.5l0.5-3.2l-0.5-2.6l-2.9-1.4l-2.6-1.2l-3.1-0.7l-2.2,2.6l-0.2,2.6l1.2,4.4l-1,3.8l-1.3,4.6l-0.8,0.8
		l-1.9-0.4l-1.9-1.7l-1.7-0.4l-1.9-0.9l-1.7-2.5l-2.1-1.2l-1.2-1.7l-2.3-2.3l-1.8-0.4l-1.3-1.1l-0.2-0.1l3-8L108.6,71.6z"/>
</g>
<g id="FO" class="js-map-group" name="Formosa">
	<path class="area" d="M229.1,50.5l0.6,2.1L231,54l0.7,2.9l2.6,1.5l1.2,1.7l0.8,2.7l2.6,1.5l1.9,1.6l2,3.3l4.1,3.1l3.1,0.8l1.7,2.4
		l4,0.7l5.4,4.1l0.7,2.3l5.6,6l4.2,0.7l1.3,1.3l2.6,0.7l3.7,2l4.1,0.7l1.8,1.8l4.6,0.4l5.9,3.8l0.4,2.1l8.7,4.4l2.1,0.4l2.8,2.4
		l2.5,0.4l3.1,1.7l8.7,3l2.7,2.7l2.2-0.7l1.3,0.8l1.9,0.4l3,1.3l3.9,0.4l1.7,1.1l1.7,2.7l2.7,3.1l1.5,2.6l-0.2,1.2l-0.5,1h-1.2
		l-1.1,1.1v1.2l-1.7,0.9v1.7l-1.1,1.6l-1.4,2.7l-0.5,1.4l-0.1,2.2l-1.8,1.2l-1,1.1l-1.4,0.9l-2.7,1.1l0.7,1.7l-0.7,1.1l-1.2,3.2
		l0.2,2.7l-0.6,3.7l-3.2,3.6l0.3,2.3l0.6,0.4l-0.4,1.2l-1.7-1l-1.3-1.6l-1.7-0.6l-1.6-3.6l-1.8,0.3l-0.3-1.8l-2.9-0.7l-3.8-2.6
		l-3.9-2.1l-7.4-1.2l-1.5-1.7l-1.5-3.3l-1.5-2.1l-2.5-3.1l-2.1-1.8l-4.6-2.3l-1.2-5l-1.6-1.3l-1.1-2.2l-2-2.1l-2.4-2.1l-2.7-1
		l-1.2-1.8l-2.6-1l-2-1.4l-2.6-1.7l-3.2-2.6l-1.7-2l-2.3-3.2l-1.1-2.6l-5.4-0.3l-2.4-1.7l-0.7-2.9l-2.2,0.3l-0.8-2.4l-2.8-0.8
		l-1.9-0.2l-1.9-2.8l-2.8,0.4l-2.6-0.8l-2.2-1.9h-3.3l-2-45.2L229.1,50.5z"/>
</g>
<g id="MI" class="js-map-group" name="Misiones">
	<path class="area" d="M446.7,153.2l-1.3,1.8l0.5,0.8l-0.6,0.6l0.6,1.7l-0.3,1l0.3,0.9l-0.5,1.6l0.5,2l0.5,0.6l-0.4,1.3l1.2,1
		l0.1,1.1l0.1,0.3l-1.9,1.3v1.2l-0.6,0.4l-0.8,1.4l-0.4,1.5l-0.3,0.5l-1.1-0.2l-0.4,1l-0.7-0.3l-1.6,0.3l-2.2,1.9l-0.9,0.7h-0.2
		l-1.4-1.7l-1.5,3l-0.5,1.7l-0.8,1.1l-1.2-0.5l-0.9,1.1l-1.1-0.3l-2.1,1.2l-1.3,0.4l-2.2-0.6l-0.2,1.7l-0.9-1.4l-1.2,2.3l-1.2-0.2
		l-0.3,0.4l-1.5-1l-1.9,3.6l-0.7,2.4l-0.6,0.6l-1.3,0.3l-2.7,0.8l1.1,1.4l-1,1l-0.1,0.1l-1-0.8l-1.5,1.5l-0.2,1l-0.4,0.1h-1.9
		l-1.6,1.9l0.2,1.8l-0.3,0.5h-1.6l-2.3,1.9l-0.4,0.1l-0.8-1l-1-0.1l-0.1-1.3l-1.4-0.8l-0.5-1.2l-0.3-1.4l-0.2-2.9l-1.4-3.9l-2.5-3.6
		l-1.9-1.9l-0.5-1.3v-0.5l2.3,0.3l0.4,0.8l1.6,1.7l1.6,0.3l1.8-0.6l2.7-2.4l1.1-1.3l1.1-1.9l-0.3-1.9l-0.2-0.5l0.2-0.2h1.3l1.7-1.5
		l0.6-1.6l0.2-1.3l0.4-0.8l1.4-0.3l1.7-0.7l1.7-1.2l0.5-1.3l1.3-0.7l0.9-1.8l0.4-1l1-0.6l0.1-1.3l0.7,0.5l2.5,0.7l1.3-1.6l0.2-1.3
		l1.1-1.2l2.2-1.3l-0.2-2l0.4-1.1l1-1.1l0.7-0.4h1.5l1.4-1.7l0.2-2.6l-0.3-0.8l0.8-1.6v-1.1l0.2-1.8l-0.5-0.8l0.5-0.7v-2.6l-1.1-4.5
		l-0.8-1.9l-0.1-1.2l0.4-0.5l0.7-0.4l0.8,0.4l1.4,0.6l1.9-1.4l0.7-0.6l1.1-0.4l1.1-0.1l1.8,0.3l0.3-0.7l0.9,1.2l2.5-0.6l0.3-0.7
		l0.8-0.2h1.1l0.6,0.4l0.6,0.9l0.4,1.8v1.6l0.5,1.8l-0.2,1.5v2.9l1,1.6l1.1,1l0.2,1.8l1.1,1.3l0.6,1.9v2.2l-0.6,1.3L446.7,153.2z"/>
</g>
<g id="GBA" class="js-map-group" name="Gran Buenos Aires">
	<path class="area" d="M524.6,412.2c-0.3,0.2-0.7-0.8-0.7-0.8l-2.2-2l-3.2-3l-0.3-0.5l-4.3-1.8l-0.5-0.4l-0.3-0.3l-1.7-0.3l-1-0.9
		h-0.6l-2.2-1.5l-0.8-1.9l0,0l0,0l-0.4-0.5v-0.5l-0.4-0.9l-0.7-1l-0.6-0.8l-2.8-3.3L501,391l-1.9-2l-0.6-0.8l-1.4-1.7l-0.3-0.2
		l-1.2-1.2l-1.2-1.6l-2.5-2.4l-2.1-2.7l-0.1-0.5l-0.5-0.7l-0.5-0.6v-0.3h0.2l0.3-1.5l-0.3-0.1l-1.1,0.2l-0.1,0.2h-0.3l-1.1,0.4
		l-0.4,1.1l-1.3,0.6l-2.4,1.1c0,0-0.4,0-0.6-0.1c-0.2-0.1-0.7,0-1.1,0c-1.3,0-1.8-0.4-1.8-0.4l-1.3-0.9l-0.5-0.4l-0.6-0.2l-1.6,0.3
		l-0.8,0.5l-2.5,2.1l-4.5,3.8l-7.9-12.2l1.7-7.4l1.8-2.5l0,0l0,0l3.3-4.6l2.7-3.8l6-1.3c0,0,0.4-0.8,0.3-1.1c0-0.3-0.2-0.7-0.2-1
		s0-1.5-0.1-1.7s0.1-1.7,0.1-1.7l-0.1-0.8l0.1-1.4c0,0-0.1-1,0-1.4c0.2-0.4-0.2-1.6-0.2-1.6s0-1.2-0.2-1.3c-0.2,0-0.6-0.2-0.8-0.3
		c-0.2-0.1-0.1-1.4-0.1-1.4s-0.4-1.1-0.4-1.2c-0.1-0.1-0.2-0.9-0.3-1.1c0-0.2-0.1-0.3-0.1-0.3l-0.8-1.1l-0.8-0.6
		c0,0-1.5-0.9-1.5-1.2c0-0.2-0.2-0.5-0.3-0.5c-0.1-0.1-0.4-0.5-0.6-0.7c-0.1-0.1-0.5-0.9-0.5-0.9l-0.4-0.7c0,0.1-0.1,0.1-0.2,0.1
		c-0.1,0-0.6,0.2-0.7,0.2c-0.1,0-0.1-0.1-0.1-0.1c0-0.1,0-0.4,0-0.4s-0.8-1.2-0.9-1.2c-0.1,0-0.2,0-0.2,0.1s-0.2,0.1-0.2,0.1
		s0,0-0.1,0c0,0-0.1-0.1,0-0.2s0.1-1.1,0.1-1.1l-0.3-0.2c-0.1,0-1.9-1.2-1.9-1.3c0-0.1-0.7-1.1-0.8-1.2s-0.4-0.6-0.6-0.7
		c-0.2-0.1-0.1,0-0.3-0.2c-0.1-0.2-0.4-0.5-0.4-0.6s-0.3-0.8-0.7-1.1c-0.4-0.3-0.9-1.1-1.1-1.3c-0.2-0.1-1-1.2-1-1.2l-1-1.1
		c0,0-2.3-2.1-2.4-2.2c-0.1-0.1-0.1-0.1-0.3-0.3c-0.2-0.1-0.7-0.7-0.7-0.9c-0.1-0.1-0.1-0.3-0.1-0.3s-0.1-0.3-0.2-0.4
		c-0.1-0.1-0.1-0.2-0.1-0.2s-0.1-0.3-0.2-0.4l-0.2-0.2l-0.3-0.5c0,0-0.2-0.4-0.2-0.5s-0.8-1.1-0.9-1.1c-0.1-0.1-0.6-0.9-0.6-1.1
		l-0.4-0.5v-0.1l-5.4,2l1.2,1.9l-2.6,2.1l0.3,0.8l-3.8,1.2l2.8,7.8l0,0l-7,2.5l0.3,0.7l-1.3,0.5l-0.4-1l-1.7,0.3l-0.1-0.8l-3.1,1.5
		l-4.9-6.9l0.1,1.3l-0.1,2l0.1,2.1l-0.4,0.7v0.9l-2,2.7l-0.7,0.5l4.6,10.3l0.3,2.2l6.4,10l0,0l-3.5,4.8l-4.3,2.7l-4.3,0.7l-2.8,0.9
		l-2.2,0.4l-1.1,0.3l-1.3,0.1l-1.6-0.1l-2.4-0.9l-1.4-0.2l-1.8,3.2l6.9,9.7l3.9,4.8l1.4,1.5l1.8,3l4.4,7l-3.3,0.3l-0.5,0.1l-0.8-0.2
		l-1.4,0.8l-1-0.2l-0.8,0.3l-1.8-0.2l-1.9-0.2l3.6,5.4l-2.3,1.7l7.3,11.2l4.1-0.7l3.6-1.2l2.2,6.6l1.9,1.5l1.1,3.8l-3.3,2.4
		l6.5,10.6l2.3-3.9l-0.6-0.9l3.9-2.2l0.3,0.5l7.6-4.3l5.1-2.8l0.3,0.3l1.9-0.7l0.1-0.6l4.7-1.3l2.3-2.3l0.2,1.3l-0.8,0.5l1.6,5.4
		l8.2-2.5l0.2,0.6l5.2-1.5l0,0l0.6,2.6l3,6.1l-2-0.7l-4.5,1.3l2.3,8l-1.8,0.7l1.4,7.4l5.5-2.6L485,442l6.7-4.4l1.3-0.8l-0.3-0.5
		l34.1-21.6C525.7,413.3,524.7,412.2,524.6,412.2z"/>
</g>
<g id="CABA" class="js-map-group" name="Ciudad Autónoma de Buenos Aires">
	<g>
		<g>
			<path class="area" d="M488.1,364.1l-1.2-0.4v-0.1l0.8,0.1l-0.3-0.4h-0.1L487,363l0,0l0,0l0,0l-0.5-0.7h-0.1l-0.9-0.2h-0.1
				l-0.2-0.2c0,0,0-0.1,0.1,0l0.8,0.1l0,0l0,0l-0.3-0.4l-1.2-0.3l-0.1-0.1l-0.2-0.2c0,0,0,0-0.1,0l-0.1,0.1v0.1l1,1.1v0.1l-0.1,0.1
				h-0.3l0,0l-0.8-1c0,0,0-0.1-0.1-0.1l-0.1-0.1l-0.2-0.1l0,0l-0.1-0.1c0,0-0.1-0.3-0.1-0.4s0-0.2,0-0.3h-0.1c0,0,0,0-0.1,0H483
				h-0.1v-0.1c0,0,0,0,0.1,0v-0.1l0,0c0-0.1,0.1-0.1,0.1-0.1h0.1c0.1,0,0.1-0.1,0.2-0.2c0-0.1,0-0.2,0-0.2s0-0.1-0.1-0.2
				c0-0.1-0.1-0.1-0.1-0.1s-0.1,0-0.2,0c-0.1,0-0.1,0.1-0.1,0.1l-0.1,0.1h-0.1c0,0-0.1,0-0.1-0.1c0,0-0.1-0.1-0.1-0.2l0,0l0,0
				l-0.1-0.4c0,0-0.1-0.3-0.2-0.6c-0.1-0.2-0.2-0.4-0.2-0.4l0,0l0,0l-0.1-0.1c-0.1-0.1-0.2-0.3-0.4-0.5s-0.4-0.3-0.6-0.5
				c-0.2-0.1-1.1-0.7-1.1-0.7l0.2-0.3c0,0-0.2-0.1-0.2-0.2c0,0-0.5-0.3-0.5-0.4c0,0,0.1-0.4,0.1-0.6c0-0.1-0.1-0.3-0.1-0.3l-0.7-0.6
				l-0.4-0.5l-0.3,0.1c0,0-0.1-0.2-0.2-0.2l-0.2-0.2l-0.5-0.6l-0.6,0.3l-0.1,0.1l0,0l0,0v-0.1l-0.2-0.4l0,0l0.2-0.1V352
				c0,0-0.4-1.1-0.4-1.2s-0.2-0.1-0.2-0.1s-0.1,0-0.2,0c-0.1,0-0.8,0.3-0.8,0.3l-2.2,0.6l-4,0.8c-0.1,0-0.2,0.1-0.2,0.1l-2.4,3.4
				l-1.4,2l-3.5,4.9l-0.2,0.4c-0.1,0.1-0.1,0.2-0.1,0.2l-0.1,0.4l-0.2,0.8l-0.2,1.1l-0.3,1.4l-0.8,3.4c0,0.1,0,0.2,0,0.2l0.4,0.6
				l0.4,0.7l2.3,3.5l1.3,2l0.9,1.4l2.6,3.9l2.1-1.8l1.5-1.3l2.5-2.1l0.6-0.5l0.2-0.2c0.1-0.1,0.5-0.4,0.8-0.5h0.1
				c0.3-0.1,0.7-0.2,0.7-0.2s0.7-0.1,0.8-0.1s0.6,0.2,0.6,0.2l0.3,0.3c0,0,0.1,0.1,0.2,0.1c0.1,0,0.2,0,0.2,0l0.7,0.1
				c0.1,0.1,0.1,0.2,0.2,0.2c0,0.1,0,0.1,0.1,0.1s0.1-0.1,0.1-0.1s0,0,0-0.2c0-0.1,0-0.2,0-0.2l0,0c0.1-0.1,0.2,0,0.2,0
				c0.1,0,0.1,0.1,0.1,0.1l0,0c0,0.1,0.1,0.2,0.1,0.2c0,0.1-0.1,0.1-0.1,0.1s-0.2,0.1-0.3,0.1s-0.1,0.1-0.1,0.1v0.1l0.4,0.2
				c0,0,0.1,0.1,0.2,0.1c0.1,0,0.7-0.2,0.7-0.2c0.1,0,0.3-0.2,0.4-0.2c0.1-0.1,0.2-0.2,0.3-0.2s1.3,0.2,1.3,0.2h0.1h0.1
				c0,0,0,0.1,0.1,0.1s0.2,0,0.2,0s0.2-0.1,0.2-0.2c0.1-0.1,0.2-0.1,0.2-0.1c0.1,0,0.2,0,0.2,0s0.1,0,0.2-0.1
				c0.1-0.1,0.1-0.2,0.1-0.2s0-0.1,0.1-0.2l0.1-0.1c0.1,0,0.7-0.2,0.7-0.2c0.1,0,0.2,0,0.2,0s0.1,0,0.2,0h0.1c0,0,0.3-0.2,0.4-0.2
				c0.1-0.1,0.2-0.1,0.3-0.1c0,0,0.1,0,0.1-0.1c0,0,0.1-0.1,0.1-0.2s0-0.3,0-0.4s-0.1-0.2-0.1-0.2s-0.2-0.2-0.3-0.2l-0.1-0.1
				c0-0.1,0-0.1,0-0.1h0.1l0,0l0.4,0.1h0.1c0,0,0.2-0.1,0.3-0.2c0-0.1,0.1-0.1,0.1-0.1s0.4-0.1,0.4-0.2c0.1,0,0.1-0.1,0.1-0.1
				l0.2-0.4v-0.5v-0.1V373l-0.8-1l-0.1-0.1l-0.4-0.4l0.9-4.8l-0.2-0.1v-0.7l0.5-0.1l0.1,0.3h0.1l-0.2-0.8l0,0h-0.1v-0.1h0.5h0.7
				c0.1,0,0.1-0.2,0.1-0.2l-0.6-0.2l0.1-0.2l0.5,0.1l0,0l0.1-0.3l0,0l-0.7-0.1l-0.1-0.3L488.1,364.1L488.1,364.1L488.1,364.1z"/>
		</g>
		<g>
			<path class="area" d="M488.1,364.1l-1.2-0.4v-0.1l0.8,0.1l-0.3-0.4h-0.1L487,363l0,0l0,0l0,0l-0.5-0.7h-0.1l-0.9-0.2h-0.1
				l-0.2-0.2c0,0,0-0.1,0.1,0l0.8,0.1l0,0l0,0l-0.3-0.4l-1.2-0.3l-0.1-0.1l-0.2-0.2c0,0,0,0-0.1,0l-0.1,0.1v0.1l1,1.1v0.1l-0.1,0.1
				h-0.3l0,0l-0.8-1c0,0,0-0.1-0.1-0.1l-0.1-0.1l-0.2-0.1l0,0l-0.1-0.1c0,0-0.1-0.3-0.1-0.4s0-0.2,0-0.3h-0.1c0,0,0,0-0.1,0H483
				h-0.1v-0.1c0,0,0,0,0.1,0v-0.1l0,0c0-0.1,0.1-0.1,0.1-0.1h0.1c0.1,0,0.1-0.1,0.2-0.2c0-0.1,0-0.2,0-0.2s0-0.1-0.1-0.2
				c0-0.1-0.1-0.1-0.1-0.1s-0.1,0-0.2,0c-0.1,0-0.1,0.1-0.1,0.1l-0.1,0.1h-0.1c0,0-0.1,0-0.1-0.1c0,0-0.1-0.1-0.1-0.2l0,0l0,0
				l-0.1-0.4c0,0-0.1-0.3-0.2-0.6c-0.1-0.2-0.2-0.4-0.2-0.4l0,0l0,0l-0.1-0.1c-0.1-0.1-0.2-0.3-0.4-0.5s-0.4-0.3-0.6-0.5
				c-0.2-0.1-1.1-0.7-1.1-0.7l0.2-0.3c0,0-0.2-0.1-0.2-0.2c0,0-0.5-0.3-0.5-0.4c0,0,0.1-0.4,0.1-0.6c0-0.1-0.1-0.3-0.1-0.3l-0.7-0.6
				l-0.4-0.5l-0.3,0.1c0,0-0.1-0.2-0.2-0.2l-0.2-0.2l-0.5-0.6l-0.6,0.3l-0.1,0.1l0,0l0,0v-0.1l-0.2-0.4l0,0l0.2-0.1V352
				c0,0-0.4-1.1-0.4-1.2s-0.2-0.1-0.2-0.1s-0.1,0-0.2,0c-0.1,0-0.8,0.3-0.8,0.3l-2.2,0.6l-4,0.8c-0.1,0-0.2,0.1-0.2,0.1l-2.4,3.4
				l-1.4,2l-3.5,4.9l-0.2,0.4c-0.1,0.1-0.1,0.2-0.1,0.2l-0.1,0.4l-0.2,0.8l-0.2,1.1l-0.3,1.4l-0.8,3.4c0,0.1,0,0.2,0,0.2l0.4,0.6
				l0.4,0.7l2.3,3.5l1.3,2l0.9,1.4l2.6,3.9l2.1-1.8l1.5-1.3l2.5-2.1l0.6-0.5l0.2-0.2c0.1-0.1,0.5-0.4,0.8-0.5h0.1
				c0.3-0.1,0.7-0.2,0.7-0.2s0.7-0.1,0.8-0.1s0.6,0.2,0.6,0.2l0.3,0.3c0,0,0.1,0.1,0.2,0.1c0.1,0,0.2,0,0.2,0l0.7,0.1
				c0.1,0.1,0.1,0.2,0.2,0.2c0,0.1,0,0.1,0.1,0.1s0.1-0.1,0.1-0.1s0,0,0-0.2c0-0.1,0-0.2,0-0.2l0,0c0.1-0.1,0.2,0,0.2,0
				c0.1,0,0.1,0.1,0.1,0.1l0,0c0,0.1,0.1,0.2,0.1,0.2c0,0.1-0.1,0.1-0.1,0.1s-0.2,0.1-0.3,0.1s-0.1,0.1-0.1,0.1v0.1l0.4,0.2
				c0,0,0.1,0.1,0.2,0.1c0.1,0,0.7-0.2,0.7-0.2c0.1,0,0.3-0.2,0.4-0.2c0.1-0.1,0.2-0.2,0.3-0.2s1.3,0.2,1.3,0.2h0.1h0.1
				c0,0,0,0.1,0.1,0.1s0.2,0,0.2,0s0.2-0.1,0.2-0.2c0.1-0.1,0.2-0.1,0.2-0.1c0.1,0,0.2,0,0.2,0s0.1,0,0.2-0.1
				c0.1-0.1,0.1-0.2,0.1-0.2s0-0.1,0.1-0.2l0.1-0.1c0.1,0,0.7-0.2,0.7-0.2c0.1,0,0.2,0,0.2,0s0.1,0,0.2,0h0.1c0,0,0.3-0.2,0.4-0.2
				c0.1-0.1,0.2-0.1,0.3-0.1c0,0,0.1,0,0.1-0.1c0,0,0.1-0.1,0.1-0.2s0-0.3,0-0.4s-0.1-0.2-0.1-0.2s-0.2-0.2-0.3-0.2l-0.1-0.1
				c0-0.1,0-0.1,0-0.1h0.1l0,0l0.4,0.1h0.1c0,0,0.2-0.1,0.3-0.2c0-0.1,0.1-0.1,0.1-0.1s0.4-0.1,0.4-0.2c0.1,0,0.1-0.1,0.1-0.1
				l0.2-0.4v-0.5v-0.1V373l-0.8-1l-0.1-0.1l-0.4-0.4l0.9-4.8l-0.2-0.1v-0.7l0.5-0.1l0.1,0.3h0.1l-0.2-0.8l0,0h-0.1v-0.1h0.5h0.7
				c0.1,0,0.1-0.2,0.1-0.2l-0.6-0.2l0.1-0.2l0.5,0.1l0,0l0.1-0.3l0,0l-0.7-0.1l-0.1-0.3L488.1,364.1L488.1,364.1L488.1,364.1z"/>
		</g>
		<g>
			<path class="area" d="M488.1,364.1l-1.2-0.4v-0.1l0.8,0.1l-0.3-0.4h-0.1L487,363l0,0l0,0l0,0l-0.5-0.7h-0.1l-0.9-0.2h-0.1
				l-0.2-0.2c0,0,0-0.1,0.1,0l0.8,0.1l0,0l0,0l-0.3-0.4l-1.2-0.3l-0.1-0.1l-0.2-0.2c0,0,0,0-0.1,0l-0.1,0.1v0.1l1,1.1v0.1l-0.1,0.1
				h-0.3l0,0l-0.8-1c0,0,0-0.1-0.1-0.1l-0.1-0.1l-0.2-0.1l0,0l-0.1-0.1c0,0-0.1-0.3-0.1-0.4s0-0.2,0-0.3h-0.1c0,0,0,0-0.1,0H483
				h-0.1v-0.1c0,0,0,0,0.1,0v-0.1l0,0c0-0.1,0.1-0.1,0.1-0.1h0.1c0.1,0,0.1-0.1,0.2-0.2c0-0.1,0-0.2,0-0.2s0-0.1-0.1-0.2
				c0-0.1-0.1-0.1-0.1-0.1s-0.1,0-0.2,0c-0.1,0-0.1,0.1-0.1,0.1l-0.1,0.1h-0.1c0,0-0.1,0-0.1-0.1c0,0-0.1-0.1-0.1-0.2l0,0l0,0
				l-0.1-0.4c0,0-0.1-0.3-0.2-0.6c-0.1-0.2-0.2-0.4-0.2-0.4l0,0l0,0l-0.1-0.1c-0.1-0.1-0.2-0.3-0.4-0.5s-0.4-0.3-0.6-0.5
				c-0.2-0.1-1.1-0.7-1.1-0.7l0.2-0.3c0,0-0.2-0.1-0.2-0.2c0,0-0.5-0.3-0.5-0.4c0,0,0.1-0.4,0.1-0.6c0-0.1-0.1-0.3-0.1-0.3l-0.7-0.6
				l-0.4-0.5l-0.3,0.1c0,0-0.1-0.2-0.2-0.2l-0.2-0.2l-0.5-0.6l-0.6,0.3l-0.1,0.1l0,0l0,0v-0.1l-0.2-0.4l0,0l0.2-0.1V352
				c0,0-0.4-1.1-0.4-1.2s-0.2-0.1-0.2-0.1s-0.1,0-0.2,0c-0.1,0-0.8,0.3-0.8,0.3l-2.2,0.6l-4,0.8c-0.1,0-0.2,0.1-0.2,0.1l-2.4,3.4
				l-1.4,2l-3.5,4.9l-0.2,0.4c-0.1,0.1-0.1,0.2-0.1,0.2l-0.1,0.4l-0.2,0.8l-0.2,1.1l-0.3,1.4l-0.8,3.4c0,0.1,0,0.2,0,0.2l0.4,0.6
				l0.4,0.7l2.3,3.5l1.3,2l0.9,1.4l2.6,3.9l2.1-1.8l1.5-1.3l2.5-2.1l0.6-0.5l0.2-0.2c0.1-0.1,0.5-0.4,0.8-0.5h0.1
				c0.3-0.1,0.7-0.2,0.7-0.2s0.7-0.1,0.8-0.1s0.6,0.2,0.6,0.2l0.3,0.3c0,0,0.1,0.1,0.2,0.1c0.1,0,0.2,0,0.2,0l0.7,0.1
				c0.1,0.1,0.1,0.2,0.2,0.2c0,0.1,0,0.1,0.1,0.1s0.1-0.1,0.1-0.1s0,0,0-0.2c0-0.1,0-0.2,0-0.2l0,0c0.1-0.1,0.2,0,0.2,0
				c0.1,0,0.1,0.1,0.1,0.1l0,0c0,0.1,0.1,0.2,0.1,0.2c0,0.1-0.1,0.1-0.1,0.1s-0.2,0.1-0.3,0.1s-0.1,0.1-0.1,0.1v0.1l0.4,0.2
				c0,0,0.1,0.1,0.2,0.1c0.1,0,0.7-0.2,0.7-0.2c0.1,0,0.3-0.2,0.4-0.2c0.1-0.1,0.2-0.2,0.3-0.2s1.3,0.2,1.3,0.2h0.1h0.1
				c0,0,0,0.1,0.1,0.1s0.2,0,0.2,0s0.2-0.1,0.2-0.2c0.1-0.1,0.2-0.1,0.2-0.1c0.1,0,0.2,0,0.2,0s0.1,0,0.2-0.1
				c0.1-0.1,0.1-0.2,0.1-0.2s0-0.1,0.1-0.2l0.1-0.1c0.1,0,0.7-0.2,0.7-0.2c0.1,0,0.2,0,0.2,0s0.1,0,0.2,0h0.1c0,0,0.3-0.2,0.4-0.2
				c0.1-0.1,0.2-0.1,0.3-0.1c0,0,0.1,0,0.1-0.1c0,0,0.1-0.1,0.1-0.2s0-0.3,0-0.4s-0.1-0.2-0.1-0.2s-0.2-0.2-0.3-0.2l-0.1-0.1
				c0-0.1,0-0.1,0-0.1h0.1l0,0l0.4,0.1h0.1c0,0,0.2-0.1,0.3-0.2c0-0.1,0.1-0.1,0.1-0.1s0.4-0.1,0.4-0.2c0.1,0,0.1-0.1,0.1-0.1
				l0.2-0.4v-0.5v-0.1V373l-0.8-1l-0.1-0.1l-0.4-0.4l0.9-4.8l-0.2-0.1v-0.7l0.5-0.1l0.1,0.3h0.1l-0.2-0.8l0,0h-0.1v-0.1h0.5h0.7
				c0.1,0,0.1-0.2,0.1-0.2l-0.6-0.2l0.1-0.2l0.5,0.1l0,0l0.1-0.3l0,0l-0.7-0.1l-0.1-0.3L488.1,364.1L488.1,364.1L488.1,364.1z"/>
		</g>
	</g>
</g>
</svg>
