<svg id="Layer_1" data-name="Layer 1" xmlns="http://www.w3.org/2000/svg" viewBox="0 0 24.45 43.24"><rect x="4.67" y="0.75" width="15.1" height="31.14" rx="6.83" fill="none" stroke="#78a842" stroke-linecap="round" stroke-miterlimit="10" stroke-width="1.5"/><path d="M3.63,15.87H.75V26.13a9.5,9.5,0,0,0,9.47,9.47h4a9.5,9.5,0,0,0,9.47-9.47V15.87H20.85" fill="none" stroke="#78a842" stroke-linecap="round" stroke-miterlimit="10" stroke-width="1.5"/><line x1="4.67" y1="9.03" x2="7.39" y2="9.03" fill="none" stroke="#78a842" stroke-linecap="round" stroke-miterlimit="10"/><line x1="4.67" y1="12.16" x2="7.39" y2="12.16" fill="none" stroke="#78a842" stroke-linecap="round" stroke-miterlimit="10"/><line x1="4.67" y1="15.28" x2="7.39" y2="15.28" fill="none" stroke="#78a842" stroke-linecap="round" stroke-miterlimit="10"/><line x1="4.67" y1="18.41" x2="7.39" y2="18.41" fill="none" stroke="#78a842" stroke-linecap="round" stroke-miterlimit="10"/><line x1="4.67" y1="21.53" x2="7.39" y2="21.53" fill="none" stroke="#78a842" stroke-linecap="round" stroke-miterlimit="10"/><line x1="4.67" y1="24.66" x2="7.39" y2="24.66" fill="none" stroke="#78a842" stroke-linecap="round" stroke-miterlimit="10"/><line x1="17.06" y1="9.03" x2="19.77" y2="9.03" fill="none" stroke="#78a842" stroke-linecap="round" stroke-miterlimit="10"/><line x1="17.06" y1="12.16" x2="19.77" y2="12.16" fill="none" stroke="#78a842" stroke-linecap="round" stroke-miterlimit="10"/><line x1="17.06" y1="15.28" x2="19.77" y2="15.28" fill="none" stroke="#78a842" stroke-linecap="round" stroke-miterlimit="10"/><line x1="17.06" y1="18.41" x2="19.77" y2="18.41" fill="none" stroke="#78a842" stroke-linecap="round" stroke-miterlimit="10"/><line x1="17.06" y1="21.53" x2="19.77" y2="21.53" fill="none" stroke="#78a842" stroke-linecap="round" stroke-miterlimit="10"/><line x1="17.06" y1="24.66" x2="19.77" y2="24.66" fill="none" stroke="#78a842" stroke-linecap="round" stroke-miterlimit="10"/><line x1="12.22" y1="35.6" x2="12.22" y2="42.49" fill="none" stroke="#78a842" stroke-linecap="round" stroke-miterlimit="10" stroke-width="1.5"/><line x1="8.5" y1="42.49" x2="15.95" y2="42.49" fill="none" stroke="#78a842" stroke-linecap="round" stroke-miterlimit="10" stroke-width="1.5"/></svg>