<svg id="Layer_1" data-name="Layer 1" xmlns="http://www.w3.org/2000/svg" viewBox="0 0 28.55 28.55"><path d="M14.28,2.57c3.81,0,4.26,0,5.76.09a7.64,7.64,0,0,1,2.65.49,4.55,4.55,0,0,1,1.65,1.06A4.42,4.42,0,0,1,25.4,5.86a7.64,7.64,0,0,1,.49,2.65c.07,1.5.09,2,.09,5.77s0,4.26-.09,5.76a7.64,7.64,0,0,1-.49,2.65,4.61,4.61,0,0,1-2.71,2.71,7.64,7.64,0,0,1-2.65.49c-1.5.07-1.95.09-5.76.09S10,26,8.51,25.89a7.64,7.64,0,0,1-2.65-.49,4.42,4.42,0,0,1-1.65-1.06,4.55,4.55,0,0,1-1.06-1.65A7.64,7.64,0,0,1,2.66,20c-.07-1.5-.09-1.95-.09-5.76s0-4.27.09-5.77a7.64,7.64,0,0,1,.49-2.65A4.61,4.61,0,0,1,5.86,3.15a7.64,7.64,0,0,1,2.65-.49c1.5-.07,2-.09,5.77-.09m0-2.57C10.4,0,9.91,0,8.39.09A10.62,10.62,0,0,0,4.92.75,6.88,6.88,0,0,0,2.4,2.4,6.88,6.88,0,0,0,.75,4.92,10.62,10.62,0,0,0,.09,8.39C0,9.91,0,10.4,0,14.28s0,4.36.09,5.88a10.62,10.62,0,0,0,.66,3.47A6.88,6.88,0,0,0,2.4,26.15,6.88,6.88,0,0,0,4.92,27.8a10.36,10.36,0,0,0,3.47.66c1.52.07,2,.09,5.89.09s4.36,0,5.88-.09a10.36,10.36,0,0,0,3.47-.66,7.37,7.37,0,0,0,4.17-4.17,10.36,10.36,0,0,0,.66-3.47c.07-1.52.09-2,.09-5.88s0-4.37-.09-5.89a10.36,10.36,0,0,0-.66-3.47A6.88,6.88,0,0,0,26.15,2.4,6.88,6.88,0,0,0,23.63.75,10.62,10.62,0,0,0,20.16.09C18.64,0,18.15,0,14.28,0Z" fill="#78a842"/><path d="M14.28,6.94a7.34,7.34,0,1,0,7.33,7.34A7.34,7.34,0,0,0,14.28,6.94Zm0,12.09A4.76,4.76,0,1,1,19,14.28,4.76,4.76,0,0,1,14.28,19Z" fill="#78a842"/><circle cx="21.9" cy="6.66" r="1.71" fill="#78a842"/></svg>