<svg id="Layer_1" data-name="Layer 1" xmlns="http://www.w3.org/2000/svg" viewBox="0 0 26.64 43.24"><path d="M.5,34.38V8.86h0A2.64,2.64,0,0,1,3.13,6.22H25.84V31.75H3.13A2.64,2.64,0,0,0,.5,34.38h0A2.64,2.64,0,0,0,3.13,37h21.8a1.24,1.24,0,0,0,1.21-1.37,1.27,1.27,0,0,0-1.33-1.33H6.7" fill="none" stroke="#78a842" stroke-linecap="round" stroke-linejoin="round"/><rect x="4.12" y="8.31" width="9.53" height="9.53" fill="#78a842"/><line x1="4.12" y1="19.63" x2="4.12" y2="28.82" fill="none" stroke="#78a842" stroke-linecap="round" stroke-miterlimit="10"/><line x1="6.47" y1="19.63" x2="6.47" y2="28.82" fill="none" stroke="#78a842" stroke-linecap="round" stroke-miterlimit="10"/><line x1="8.83" y1="19.63" x2="8.83" y2="28.82" fill="none" stroke="#78a842" stroke-linecap="round" stroke-miterlimit="10"/><line x1="11.18" y1="19.63" x2="11.18" y2="28.82" fill="none" stroke="#78a842" stroke-linecap="round" stroke-miterlimit="10"/><line x1="13.54" y1="19.63" x2="13.54" y2="28.82" fill="none" stroke="#78a842" stroke-linecap="round" stroke-miterlimit="10"/><line x1="17.64" y1="8.31" x2="17.64" y2="28.82" fill="none" stroke="#78a842" stroke-linecap="round" stroke-miterlimit="10"/><line x1="19.99" y1="8.31" x2="19.99" y2="28.82" fill="none" stroke="#78a842" stroke-linecap="round" stroke-miterlimit="10"/><line x1="22.34" y1="8.31" x2="22.34" y2="28.82" fill="none" stroke="#78a842" stroke-linecap="round" stroke-miterlimit="10"/></svg>