<svg id="Layer_1" data-name="Layer 1" xmlns="http://www.w3.org/2000/svg" viewBox="0 0 28.17 28.55"><path id="Logo" d="M25.29,8.53c0,.25,0,.49,0,.74,0,7.64-5.82,16.45-16.45,16.45h0A16.45,16.45,0,0,1,0,23.13a12.77,12.77,0,0,0,1.38.08,11.58,11.58,0,0,0,7.17-2.48,5.8,5.8,0,0,1-5.4-4,5.75,5.75,0,0,0,2.61-.09A5.79,5.79,0,0,1,1.13,11v-.07a5.84,5.84,0,0,0,2.62.72A5.79,5.79,0,0,1,2,3.88a16.42,16.42,0,0,0,11.91,6,5.79,5.79,0,0,1,9.86-5.27,11.62,11.62,0,0,0,3.67-1.4,5.81,5.81,0,0,1-2.55,3.19,11.51,11.51,0,0,0,3.32-.9A11.69,11.69,0,0,1,25.29,8.53Z" fill="#78a842"/></svg>