<?xml version="1.0" encoding="utf-8"?>
<!-- Generator: Adobe Illustrator 21.1.0, SVG Export Plug-In . SVG Version: 6.00 Build 0)  -->
<svg version="1.1" id="Layer_1" xmlns="http://www.w3.org/2000/svg" xmlns:xlink="http://www.w3.org/1999/xlink" x="0px" y="0px"
	 viewBox="0 0 308 515" style="enable-background:new 0 0 308 515;" xml:space="preserve">
<style type="text/css">
	.st0{fill-rule:evenodd;clip-rule:evenodd;fill:#F1D3CB;}
	.st1{fill-rule:evenodd;clip-rule:evenodd;fill:none;stroke:#999999;stroke-width:0.5;stroke-linejoin:round;}
	.st2{fill:none;stroke:#FFFFFF;stroke-miterlimit:3.8637;}
	.st3{fill-rule:evenodd;clip-rule:evenodd;fill:#E4A897;stroke:#FFFFFF;stroke-width:0.5;stroke-miterlimit:3.8637;}
</style>
<g>
	<g>
		<path class="st0" d="M171.6,237.5c0,0-1.2-0.4-1.2-0.4c0,0,0-0.1,0-0.1l0.8,0.1l-0.3-0.4c0,0-0.1,0-0.1,0l-0.4-0.3c0,0,0,0,0,0
			c0,0,0,0,0,0c0,0,0,0,0,0l-0.5-0.7c0,0-0.1,0-0.1,0l-0.9-0.1c0,0-0.1,0-0.1,0l-0.2-0.2c0,0,0-0.1,0.1,0l0.8,0.1l0,0c0,0,0,0,0,0
			l-0.3-0.4c0,0-1.1-0.3-1.1-0.3c0,0-0.1-0.1-0.1-0.1l-0.2-0.2c0,0,0,0-0.1,0l-0.1,0.1c0,0,0,0,0,0l1,1.1c0,0,0,0.1,0,0.1
			s-0.1,0.1-0.1,0.1c0,0-0.3,0-0.3,0c0,0,0,0,0,0l-0.8-0.9c0,0,0-0.1-0.1-0.1c0,0-0.1-0.1-0.1-0.1l-0.2-0.1c0,0,0,0,0,0
			c0,0-0.1-0.1-0.1-0.1s-0.1-0.3-0.1-0.3c0-0.1,0-0.2,0-0.3c0,0-0.1,0-0.1,0c0,0,0,0-0.1,0c0,0-0.1,0-0.1,0c0,0-0.1,0-0.1,0l0-0.1
			c0,0,0,0,0,0c0,0,0-0.1,0-0.1c0,0,0,0,0,0c0-0.1,0.1-0.1,0.1-0.1c0,0,0.1,0,0.1,0c0.1,0,0.1-0.1,0.2-0.2c0-0.1,0-0.2,0-0.2
			s0-0.1-0.1-0.2c0-0.1-0.1-0.1-0.1-0.1s-0.1,0-0.2,0c-0.1,0-0.1,0.1-0.1,0.1s-0.1,0.1-0.1,0.1c0,0-0.1,0-0.1,0c0,0-0.1,0-0.1-0.1
			c0,0-0.1-0.1-0.1-0.1c0,0,0,0,0,0l0,0c0,0-0.1-0.4-0.1-0.4s-0.1-0.3-0.2-0.6c-0.1-0.2-0.2-0.4-0.2-0.4c0,0,0,0,0,0s0,0,0,0
			l-0.1-0.1c-0.1-0.1-0.2-0.3-0.4-0.5c-0.1-0.2-0.4-0.3-0.6-0.5c-0.2-0.1-1.1-0.7-1.1-0.7l0.2-0.3c0,0-0.2-0.1-0.2-0.2
			c0,0-0.4-0.3-0.4-0.4c0,0,0.1-0.4,0.1-0.5c0-0.1-0.1-0.3-0.1-0.3c0,0-0.6-0.6-0.7-0.6c0,0-0.4-0.5-0.4-0.5s-0.2,0.1-0.3,0.1
			c0,0-0.1-0.2-0.2-0.2c0,0-0.2-0.2-0.2-0.2s-0.5-0.5-0.5-0.6c0,0-0.6,0.3-0.6,0.3s0,0.1-0.1,0.1c0,0,0,0,0,0s0,0,0,0c0,0,0,0,0-0.1
			c0,0-0.2-0.4-0.2-0.4c0,0,0,0,0,0s0.2-0.1,0.2-0.1c0,0,0-0.1,0-0.1s-0.4-1.1-0.4-1.2c0-0.1-0.1-0.1-0.1-0.1s-0.1,0-0.2,0
			c-0.1,0-0.7,0.3-0.7,0.3l-2.2,0.6l-3.9,0.8c-0.1,0-0.2,0.1-0.2,0.1l-2.4,3.3l-1.4,1.9l-3.4,4.8l-0.2,0.3c-0.1,0.1-0.1,0.2-0.1,0.2
			l-0.1,0.4l-0.2,0.8l-0.2,1.1l-0.3,1.4l-0.8,3.4c0,0.1,0,0.2,0,0.2l0.4,0.6l0.4,0.6l2.2,3.4l1.2,1.9l0.9,1.4l2.5,3.8l2-1.7l1.5-1.2
			l2.4-2.1l0.6-0.5l0.2-0.2c0.1-0.1,0.5-0.4,0.8-0.5c0,0,0.1,0,0.1,0c0.3-0.1,0.7-0.2,0.7-0.2s0.6-0.1,0.7-0.1
			c0.1,0,0.6,0.2,0.6,0.2l0.3,0.3c0,0,0.1,0.1,0.2,0.1c0.1,0,0.2,0,0.2,0s0.7,0.1,0.7,0.1c0.1,0.1,0.1,0.2,0.2,0.2
			c0,0,0,0.1,0.1,0.1c0.1,0,0.1-0.1,0.1-0.1s0,0,0-0.2c0-0.1,0-0.2,0-0.2l0,0c0-0.1,0.2,0,0.2,0c0,0,0.1,0.1,0.1,0.1c0,0,0,0,0,0
			c0,0.1,0.1,0.1,0.1,0.2c0,0.1-0.1,0.1-0.1,0.1s-0.2,0.1-0.3,0.1c-0.1,0-0.1,0.1-0.1,0.1s0,0.1,0,0.1c0,0,0.4,0.2,0.4,0.2
			s0.1,0.1,0.2,0.1c0.1,0,0.7-0.2,0.7-0.2c0.1,0,0.3-0.1,0.4-0.2c0.1-0.1,0.2-0.1,0.3-0.2c0.1,0,1.3,0.2,1.3,0.2s0.1,0,0.1,0
			c0,0,0.1,0,0.1,0s0,0.1,0.1,0.1c0.1,0,0.2,0,0.2,0c0,0,0.2-0.1,0.2-0.2c0.1-0.1,0.2-0.1,0.2-0.1c0.1,0,0.2,0,0.2,0s0.1,0,0.2-0.1
			c0.1-0.1,0.1-0.2,0.1-0.2c0,0,0-0.1,0.1-0.2c0,0,0.1-0.1,0.1-0.1c0.1,0,0.7-0.2,0.7-0.2c0.1,0,0.2,0,0.2,0s0.1,0,0.2,0
			c0,0,0.1,0,0.1,0s0.3-0.2,0.4-0.2c0.1-0.1,0.2-0.1,0.3-0.1c0,0,0.1,0,0.1-0.1c0,0,0.1-0.1,0.1-0.2c0-0.1,0-0.3,0-0.4
			c0-0.1-0.1-0.2-0.1-0.2s-0.2-0.2-0.3-0.2c0,0-0.1-0.1-0.1-0.1c0-0.1,0-0.1,0-0.1l0.1,0c0,0,0,0,0,0l0.3,0.1c0,0,0.1,0,0.1,0
			s0.2-0.1,0.2-0.2c0-0.1,0.1-0.1,0.1-0.1s0.3-0.1,0.4-0.2c0.1,0,0.1-0.1,0.1-0.1l0.2-0.4c0,0,0-0.5,0-0.5c0,0,0-0.1,0-0.1
			c0,0,0-0.1,0-0.1l-0.8-1c0,0,0-0.1,0-0.1l-0.4-0.4l0.8-4.7l-0.2-0.1l0-0.6l0.5-0.1c0,0,0.1,0.3,0.1,0.3c0,0,0.1,0,0.1,0
			c0,0-0.2-0.7-0.2-0.7c0,0,0,0,0,0l-0.1,0l0-0.1l0.5,0l0.7,0c0.1,0,0.1-0.2,0.1-0.2l-0.6-0.2l0.1-0.2l0.5,0.1c0,0,0,0,0,0l0-0.3
			c0,0,0,0,0,0l-0.7-0.1c0,0-0.1-0.3-0.1-0.3l0.8,0.1c0,0,0,0,0,0L171.6,237.5z"/>
	</g>
	<g>
		<path class="st1" d="M171.6,237.5c0,0-1.2-0.4-1.2-0.4c0,0,0-0.1,0-0.1l0.8,0.1l-0.3-0.4c0,0-0.1,0-0.1,0l-0.4-0.3c0,0,0,0,0,0
			c0,0,0,0,0,0c0,0,0,0,0,0l-0.5-0.7c0,0-0.1,0-0.1,0l-0.9-0.1c0,0-0.1,0-0.1,0l-0.2-0.2c0,0,0-0.1,0.1,0l0.8,0.1l0,0c0,0,0,0,0,0
			l-0.3-0.4c0,0-1.1-0.3-1.1-0.3c0,0-0.1-0.1-0.1-0.1l-0.2-0.2c0,0,0,0-0.1,0l-0.1,0.1c0,0,0,0,0,0l1,1.1c0,0,0,0.1,0,0.1
			s-0.1,0.1-0.1,0.1c0,0-0.3,0-0.3,0c0,0,0,0,0,0l-0.8-0.9c0,0,0-0.1-0.1-0.1c0,0-0.1-0.1-0.1-0.1l-0.2-0.1c0,0,0,0,0,0
			c0,0-0.1-0.1-0.1-0.1s-0.1-0.3-0.1-0.3c0-0.1,0-0.2,0-0.3c0,0-0.1,0-0.1,0c0,0,0,0-0.1,0c0,0-0.1,0-0.1,0c0,0-0.1,0-0.1,0l0-0.1
			c0,0,0,0,0,0c0,0,0-0.1,0-0.1c0,0,0,0,0,0c0-0.1,0.1-0.1,0.1-0.1c0,0,0.1,0,0.1,0c0.1,0,0.1-0.1,0.2-0.2c0-0.1,0-0.2,0-0.2
			s0-0.1-0.1-0.2c0-0.1-0.1-0.1-0.1-0.1s-0.1,0-0.2,0c-0.1,0-0.1,0.1-0.1,0.1s-0.1,0.1-0.1,0.1c0,0-0.1,0-0.1,0c0,0-0.1,0-0.1-0.1
			c0,0-0.1-0.1-0.1-0.1c0,0,0,0,0,0l0,0c0,0-0.1-0.4-0.1-0.4s-0.1-0.3-0.2-0.6c-0.1-0.2-0.2-0.4-0.2-0.4c0,0,0,0,0,0s0,0,0,0
			l-0.1-0.1c-0.1-0.1-0.2-0.3-0.4-0.5c-0.1-0.2-0.4-0.3-0.6-0.5c-0.2-0.1-1.1-0.7-1.1-0.7l0.2-0.3c0,0-0.2-0.1-0.2-0.2
			c0,0-0.4-0.3-0.4-0.4c0,0,0.1-0.4,0.1-0.5c0-0.1-0.1-0.3-0.1-0.3c0,0-0.6-0.6-0.7-0.6c0,0-0.4-0.5-0.4-0.5s-0.2,0.1-0.3,0.1
			c0,0-0.1-0.2-0.2-0.2c0,0-0.2-0.2-0.2-0.2s-0.5-0.5-0.5-0.6c0,0-0.6,0.3-0.6,0.3s0,0.1-0.1,0.1c0,0,0,0,0,0s0,0,0,0c0,0,0,0,0-0.1
			c0,0-0.2-0.4-0.2-0.4c0,0,0,0,0,0s0.2-0.1,0.2-0.1c0,0,0-0.1,0-0.1s-0.4-1.1-0.4-1.2c0-0.1-0.1-0.1-0.1-0.1s-0.1,0-0.2,0
			c-0.1,0-0.7,0.3-0.7,0.3l-2.2,0.6l-3.9,0.8c-0.1,0-0.2,0.1-0.2,0.1l-2.4,3.3l-1.4,1.9l-3.4,4.8l-0.2,0.3c-0.1,0.1-0.1,0.2-0.1,0.2
			l-0.1,0.4l-0.2,0.8l-0.2,1.1l-0.3,1.4l-0.8,3.4c0,0.1,0,0.2,0,0.2l0.4,0.6l0.4,0.6l2.2,3.4l1.2,1.9l0.9,1.4l2.5,3.8l2-1.7l1.5-1.2
			l2.4-2.1l0.6-0.5l0.2-0.2c0.1-0.1,0.5-0.4,0.8-0.5c0,0,0.1,0,0.1,0c0.3-0.1,0.7-0.2,0.7-0.2s0.6-0.1,0.7-0.1
			c0.1,0,0.6,0.2,0.6,0.2l0.3,0.3c0,0,0.1,0.1,0.2,0.1c0.1,0,0.2,0,0.2,0s0.7,0.1,0.7,0.1c0.1,0.1,0.1,0.2,0.2,0.2
			c0,0,0,0.1,0.1,0.1c0.1,0,0.1-0.1,0.1-0.1s0,0,0-0.2c0-0.1,0-0.2,0-0.2l0,0c0-0.1,0.2,0,0.2,0c0,0,0.1,0.1,0.1,0.1c0,0,0,0,0,0
			c0,0.1,0.1,0.1,0.1,0.2c0,0.1-0.1,0.1-0.1,0.1s-0.2,0.1-0.3,0.1c-0.1,0-0.1,0.1-0.1,0.1s0,0.1,0,0.1c0,0,0.4,0.2,0.4,0.2
			s0.1,0.1,0.2,0.1c0.1,0,0.7-0.2,0.7-0.2c0.1,0,0.3-0.1,0.4-0.2c0.1-0.1,0.2-0.1,0.3-0.2c0.1,0,1.3,0.2,1.3,0.2s0.1,0,0.1,0
			c0,0,0.1,0,0.1,0s0,0.1,0.1,0.1c0.1,0,0.2,0,0.2,0c0,0,0.2-0.1,0.2-0.2c0.1-0.1,0.2-0.1,0.2-0.1c0.1,0,0.2,0,0.2,0s0.1,0,0.2-0.1
			c0.1-0.1,0.1-0.2,0.1-0.2c0,0,0-0.1,0.1-0.2c0,0,0.1-0.1,0.1-0.1c0.1,0,0.7-0.2,0.7-0.2c0.1,0,0.2,0,0.2,0s0.1,0,0.2,0
			c0,0,0.1,0,0.1,0s0.3-0.2,0.4-0.2c0.1-0.1,0.2-0.1,0.3-0.1c0,0,0.1,0,0.1-0.1c0,0,0.1-0.1,0.1-0.2c0-0.1,0-0.3,0-0.4
			c0-0.1-0.1-0.2-0.1-0.2s-0.2-0.2-0.3-0.2c0,0-0.1-0.1-0.1-0.1c0-0.1,0-0.1,0-0.1l0.1,0c0,0,0,0,0,0l0.3,0.1c0,0,0.1,0,0.1,0
			s0.2-0.1,0.2-0.2c0-0.1,0.1-0.1,0.1-0.1s0.3-0.1,0.4-0.2c0.1,0,0.1-0.1,0.1-0.1l0.2-0.4c0,0,0-0.5,0-0.5c0,0,0-0.1,0-0.1
			c0,0,0-0.1,0-0.1l-0.8-1c0,0,0-0.1,0-0.1l-0.4-0.4l0.8-4.7l-0.2-0.1l0-0.6l0.5-0.1c0,0,0.1,0.3,0.1,0.3c0,0,0.1,0,0.1,0
			c0,0-0.2-0.7-0.2-0.7c0,0,0,0,0,0l-0.1,0l0-0.1l0.5,0l0.7,0c0.1,0,0.1-0.2,0.1-0.2l-0.6-0.2l0.1-0.2l0.5,0.1c0,0,0,0,0,0l0-0.3
			c0,0,0,0,0,0l-0.7-0.1c0,0-0.1-0.3-0.1-0.3l0.8,0.1c0,0,0,0,0,0L171.6,237.5z"/>
	</g>
	<g>
		<path class="st2" d="M171.6,237.5c0,0-1.2-0.4-1.2-0.4c0,0,0-0.1,0-0.1l0.8,0.1l-0.3-0.4c0,0-0.1,0-0.1,0l-0.4-0.3c0,0,0,0,0,0
			c0,0,0,0,0,0c0,0,0,0,0,0l-0.5-0.7c0,0-0.1,0-0.1,0l-0.9-0.1c0,0-0.1,0-0.1,0l-0.2-0.2c0,0,0-0.1,0.1,0l0.8,0.1l0,0c0,0,0,0,0,0
			l-0.3-0.4c0,0-1.1-0.3-1.1-0.3c0,0-0.1-0.1-0.1-0.1l-0.2-0.2c0,0,0,0-0.1,0l-0.1,0.1c0,0,0,0,0,0l1,1.1c0,0,0,0.1,0,0.1
			s-0.1,0.1-0.1,0.1c0,0-0.3,0-0.3,0c0,0,0,0,0,0l-0.8-0.9c0,0,0-0.1-0.1-0.1c0,0-0.1-0.1-0.1-0.1l-0.2-0.1c0,0,0,0,0,0
			c0,0-0.1-0.1-0.1-0.1s-0.1-0.3-0.1-0.3c0-0.1,0-0.2,0-0.3c0,0-0.1,0-0.1,0c0,0,0,0-0.1,0c0,0-0.1,0-0.1,0c0,0-0.1,0-0.1,0l0-0.1
			c0,0,0,0,0,0c0,0,0-0.1,0-0.1c0,0,0,0,0,0c0-0.1,0.1-0.1,0.1-0.1c0,0,0.1,0,0.1,0c0.1,0,0.1-0.1,0.2-0.2c0-0.1,0-0.2,0-0.2
			s0-0.1-0.1-0.2c0-0.1-0.1-0.1-0.1-0.1s-0.1,0-0.2,0c-0.1,0-0.1,0.1-0.1,0.1s-0.1,0.1-0.1,0.1c0,0-0.1,0-0.1,0c0,0-0.1,0-0.1-0.1
			c0,0-0.1-0.1-0.1-0.1c0,0,0,0,0,0l0,0c0,0-0.1-0.4-0.1-0.4s-0.1-0.3-0.2-0.6c-0.1-0.2-0.2-0.4-0.2-0.4c0,0,0,0,0,0s0,0,0,0
			l-0.1-0.1c-0.1-0.1-0.2-0.3-0.4-0.5c-0.1-0.2-0.4-0.3-0.6-0.5c-0.2-0.1-1.1-0.7-1.1-0.7l0.2-0.3c0,0-0.2-0.1-0.2-0.2
			c0,0-0.4-0.3-0.4-0.4c0,0,0.1-0.4,0.1-0.5c0-0.1-0.1-0.3-0.1-0.3c0,0-0.6-0.6-0.7-0.6c0,0-0.4-0.5-0.4-0.5s-0.2,0.1-0.3,0.1
			c0,0-0.1-0.2-0.2-0.2c0,0-0.2-0.2-0.2-0.2s-0.5-0.5-0.5-0.6c0,0-0.6,0.3-0.6,0.3s0,0.1-0.1,0.1c0,0,0,0,0,0s0,0,0,0c0,0,0,0,0-0.1
			c0,0-0.2-0.4-0.2-0.4c0,0,0,0,0,0s0.2-0.1,0.2-0.1c0,0,0-0.1,0-0.1s-0.4-1.1-0.4-1.2c0-0.1-0.1-0.1-0.1-0.1s-0.1,0-0.2,0
			c-0.1,0-0.7,0.3-0.7,0.3l-2.2,0.6l-3.9,0.8c-0.1,0-0.2,0.1-0.2,0.1l-2.4,3.3l-1.4,1.9l-3.4,4.8l-0.2,0.3c-0.1,0.1-0.1,0.2-0.1,0.2
			l-0.1,0.4l-0.2,0.8l-0.2,1.1l-0.3,1.4l-0.8,3.4c0,0.1,0,0.2,0,0.2l0.4,0.6l0.4,0.6l2.2,3.4l1.2,1.9l0.9,1.4l2.5,3.8l2-1.7l1.5-1.2
			l2.4-2.1l0.6-0.5l0.2-0.2c0.1-0.1,0.5-0.4,0.8-0.5c0,0,0.1,0,0.1,0c0.3-0.1,0.7-0.2,0.7-0.2s0.6-0.1,0.7-0.1
			c0.1,0,0.6,0.2,0.6,0.2l0.3,0.3c0,0,0.1,0.1,0.2,0.1c0.1,0,0.2,0,0.2,0s0.7,0.1,0.7,0.1c0.1,0.1,0.1,0.2,0.2,0.2
			c0,0,0,0.1,0.1,0.1c0.1,0,0.1-0.1,0.1-0.1s0,0,0-0.2c0-0.1,0-0.2,0-0.2l0,0c0-0.1,0.2,0,0.2,0c0,0,0.1,0.1,0.1,0.1c0,0,0,0,0,0
			c0,0.1,0.1,0.1,0.1,0.2c0,0.1-0.1,0.1-0.1,0.1s-0.2,0.1-0.3,0.1c-0.1,0-0.1,0.1-0.1,0.1s0,0.1,0,0.1c0,0,0.4,0.2,0.4,0.2
			s0.1,0.1,0.2,0.1c0.1,0,0.7-0.2,0.7-0.2c0.1,0,0.3-0.1,0.4-0.2c0.1-0.1,0.2-0.1,0.3-0.2c0.1,0,1.3,0.2,1.3,0.2s0.1,0,0.1,0
			c0,0,0.1,0,0.1,0s0,0.1,0.1,0.1c0.1,0,0.2,0,0.2,0c0,0,0.2-0.1,0.2-0.2c0.1-0.1,0.2-0.1,0.2-0.1c0.1,0,0.2,0,0.2,0s0.1,0,0.2-0.1
			c0.1-0.1,0.1-0.2,0.1-0.2c0,0,0-0.1,0.1-0.2c0,0,0.1-0.1,0.1-0.1c0.1,0,0.7-0.2,0.7-0.2c0.1,0,0.2,0,0.2,0s0.1,0,0.2,0
			c0,0,0.1,0,0.1,0s0.3-0.2,0.4-0.2c0.1-0.1,0.2-0.1,0.3-0.1c0,0,0.1,0,0.1-0.1c0,0,0.1-0.1,0.1-0.2c0-0.1,0-0.3,0-0.4
			c0-0.1-0.1-0.2-0.1-0.2s-0.2-0.2-0.3-0.2c0,0-0.1-0.1-0.1-0.1c0-0.1,0-0.1,0-0.1l0.1,0c0,0,0,0,0,0l0.3,0.1c0,0,0.1,0,0.1,0
			s0.2-0.1,0.2-0.2c0-0.1,0.1-0.1,0.1-0.1s0.3-0.1,0.4-0.2c0.1,0,0.1-0.1,0.1-0.1l0.2-0.4c0,0,0-0.5,0-0.5c0,0,0-0.1,0-0.1
			c0,0,0-0.1,0-0.1l-0.8-1c0,0,0-0.1,0-0.1l-0.4-0.4l0.8-4.7l-0.2-0.1l0-0.6l0.5-0.1c0,0,0.1,0.3,0.1,0.3c0,0,0.1,0,0.1,0
			c0,0-0.2-0.7-0.2-0.7c0,0,0,0,0,0l-0.1,0l0-0.1l0.5,0l0.7,0c0.1,0,0.1-0.2,0.1-0.2l-0.6-0.2l0.1-0.2l0.5,0.1c0,0,0,0,0,0l0-0.3
			c0,0,0,0,0,0l-0.7-0.1c0,0-0.1-0.3-0.1-0.3l0.8,0.1c0,0,0,0,0,0L171.6,237.5z"/>
	</g>
</g>
<path class="st3" d="M207.2,284.5c-0.3,0.2-0.7-0.8-0.7-0.8l-2.2-2l-3.1-3l-0.3-0.5l-4.2-1.7l-0.5-0.4l-0.3-0.3l-1.6-0.3l-1-0.9
	l-0.6,0l-2.2-1.5l-0.8-1.9l0,0l0,0l-0.4-0.5l0-0.5l-0.4-0.9l-0.6-1l-0.6-0.8l-2.8-3.3l-0.5-0.7l-1.8-2l-0.6-0.8l-1.4-1.6l-0.3-0.2
	l-1.1-1.2l-1.2-1.5l-2.4-2.4l-2.1-2.6l-0.1-0.5l-0.4-0.7l-0.5-0.6l0-0.3l0.2,0l0.3-1.5l-0.3-0.1l-1.1,0.2l-0.1,0.2l-0.3,0l-1.1,0.4
	l-0.3,1.1l-1.3,0.6l-2.4,1.1c0,0-0.4,0-0.6-0.1c-0.2-0.1-0.7,0-1.1,0c-1.3,0-1.8-0.4-1.8-0.4l-1.3-0.8l-0.5-0.4l-0.6-0.2l-1.5,0.3
	l-0.8,0.5l-2.4,2.1l-4.4,3.7l-7.7-11.9l1.6-7.2l1.8-2.5l0,0l0,0l3.2-4.5l2.6-3.7l5.8-1.3c0,0,0.4-0.8,0.3-1.1c0-0.3-0.2-0.7-0.2-1
	c0-0.3,0-1.5-0.1-1.7c-0.1-0.2,0.1-1.7,0.1-1.7l-0.1-0.8l0.1-1.4c0,0-0.1-0.9,0-1.3c0.2-0.4-0.2-1.6-0.2-1.6s0-1.2-0.2-1.2
	c-0.2,0-0.6-0.2-0.7-0.3c-0.2-0.1-0.1-1.4-0.1-1.4s-0.3-1.1-0.4-1.2c-0.1-0.1-0.2-0.9-0.2-1.1c0-0.2-0.1-0.3-0.1-0.3
	s-0.7-1.1-0.8-1.1c-0.1,0-0.7-0.5-0.7-0.5s-1.5-0.9-1.5-1.1c0-0.2-0.2-0.4-0.3-0.5c-0.1-0.1-0.4-0.5-0.6-0.7
	c-0.1-0.1-0.4-0.8-0.4-0.8s-0.3-0.7-0.4-0.6c0,0.1-0.1,0.1-0.2,0.1c-0.1,0-0.6,0.2-0.7,0.2c-0.1,0-0.1-0.1-0.1-0.1
	c0-0.1,0-0.4,0-0.4s-0.8-1.2-0.9-1.2c-0.1,0-0.1,0-0.2,0.1c0,0.1-0.2,0.1-0.2,0.1s0,0-0.1,0c0,0-0.1-0.1,0-0.2
	c0.1-0.1,0.1-1.1,0.1-1.1s-0.3-0.2-0.3-0.2c-0.1,0-1.9-1.2-1.9-1.3c0-0.1-0.7-1.1-0.8-1.1c-0.1-0.1-0.4-0.6-0.6-0.7
	c-0.2-0.1-0.1,0-0.3-0.2c-0.1-0.2-0.4-0.5-0.4-0.6c0-0.1-0.3-0.8-0.7-1.1c-0.4-0.3-0.9-1.1-1.1-1.2c-0.2-0.1-1-1.1-1-1.1l-0.9-1
	c0,0-2.2-2.1-2.3-2.1c-0.1-0.1-0.1-0.1-0.3-0.3c-0.2-0.1-0.7-0.7-0.7-0.8c-0.1-0.1-0.1-0.3-0.1-0.3s-0.1-0.3-0.2-0.4
	c-0.1-0.1-0.1-0.2-0.1-0.2s-0.1-0.3-0.2-0.4l-0.2-0.2l-0.3-0.5c0,0-0.2-0.4-0.2-0.5c0-0.1-0.8-1-0.9-1.1c-0.1,0-0.6-0.9-0.6-1
	l-0.4-0.5l0-0.1l-5.2,2l1.2,1.9l-2.5,2.1l0.3,0.8l-3.7,1.2l2.7,7.6l0,0l-6.8,2.4l0.3,0.7l-1.3,0.5l-0.4-0.9l-1.6,0.3l-0.1-0.8
	l-3,1.4l-4.8-6.7l0.1,1.3l-0.1,2l0.1,2.1l-0.4,0.6l0,0.8l-2,2.6l-0.7,0.5l4.5,10.1l0.2,2.1l6.2,9.7l0,0l-3.4,4.7l-4.2,2.6l-4.2,0.7
	l-2.8,0.8l-2.1,0.4l-1,0.3l-1.2,0.1l-1.6-0.1l-2.3-0.8l-1.4-0.2l-1.7,3.1l6.7,9.5l3.8,4.7l1.3,1.4l1.7,2.9l4.3,6.8l-3.2,0.3
	l-0.5,0.1l-0.8-0.2l-1.3,0.8l-1-0.2l-0.8,0.3l-1.7-0.2l-1.8-0.2l3.5,5.2l-2.2,1.6l7.1,10.9l4-0.7l3.6-1.2l2.2,6.5l1.9,1.4l1.1,3.7
	l-3.2,2.3l6.3,10.4l2.2-3.8l-0.6-0.9l3.9-2.2l0.3,0.5l7.4-4.2l4.9-2.8l0.2,0.3l1.9-0.7l0.1-0.6l4.6-1.2l2.2-2.2l0.2,1.3l-0.8,0.5
	l1.5,5.3l8-2.4l0.2,0.6l5.1-1.5l0,0l0.6,2.6l2.9,6l-2-0.7l-4.4,1.3l2.3,7.8l-1.8,0.7l1.4,7.2l5.4-2.5l-0.1-0.7l6.5-4.3l1.3-0.8
	l-0.3-0.5l33.3-21.1C208.3,285.5,207.3,284.4,207.2,284.5z"/>
</svg>
