<?xml version="1.0" encoding="utf-8"?>
<!-- Generator: Adobe Illustrator 25.4.1, SVG Export Plug-In . SVG Version: 6.00 Build 0)  -->
<svg version="1.1" id="Capa_1" xmlns="http://www.w3.org/2000/svg" xmlns:xlink="http://www.w3.org/1999/xlink" x="0px" y="0px"
	 viewBox="0 0 320.4 33.3" style="enable-background:new 0 0 320.4 33.3;" xml:space="preserve">
<style type="text/css">
	.st0{clip-path:url(#SVGID_00000019643421986299901520000015004931124158221455_);}
	.st1{fill:#5C6266;}
	.st2{fill-rule:evenodd;clip-rule:evenodd;fill:#4285F4;}
	.st3{fill-rule:evenodd;clip-rule:evenodd;fill:#EA4335;}
	.st4{fill-rule:evenodd;clip-rule:evenodd;fill:#FBBC05;}
	.st5{fill-rule:evenodd;clip-rule:evenodd;fill:#34A853;}
</style>
<g>
	<defs>
		<rect id="SVGID_1_" x="0.1" y="0.1" width="320" height="33"/>
	</defs>
	<clipPath id="SVGID_00000085213279654539815310000005349513401429898681_">
		<use xlink:href="#SVGID_1_"  style="overflow:visible;"/>
	</clipPath>
	<g style="clip-path:url(#SVGID_00000085213279654539815310000005349513401429898681_);">
		<path class="st1" d="M118.2,25.3V2.6h3.7l11.5,17.6h0.1l-0.1-4.4V2.6h3v22.7h-3.2L121.2,6.7H121l0.1,4.4v14h-3V25.3z"/>
		<path class="st1" d="M148,25.7c-2.3,0.1-4.5-0.8-6-2.3c-1.6-1.7-2.4-3.7-2.3-5.9c0-2.2,0.7-4.3,2.2-5.9c1.4-1.7,3.6-2.5,5.8-2.5
			c2.2-0.1,4.3,0.7,5.8,2.2c1.6,1.7,2.3,3.9,2.2,6.1V18h-12.7c0,1.4,0.6,2.8,1.6,3.7c1,0.8,2.2,1.4,3.5,1.4c1.9,0.1,3.7-1,4.5-2.6
			l2.7,1.1c-0.6,1.2-1.4,2.3-2.6,3C151.1,25.5,149.5,25.9,148,25.7z M152.3,15.7c-0.1-1-0.6-1.8-1.3-2.5c-1-0.8-2.2-1.2-3.5-1.2
			c-1,0-2,0.4-2.9,1c-0.9,0.7-1.4,1.7-1.7,2.8H152.3z"/>
		<path class="st1" d="M175.5,25.3h-3.2l-4-11.8l-4,11.8h-3L156,9.8h3.2l3.6,11.7l4-11.7h3.2l4,11.7l3.6-11.7h3.2L175.5,25.3z"/>
		<path class="st1" d="M188.4,25.7c-1.6,0-3.2-0.4-4.5-1.2c-1.2-0.8-2-1.9-2.6-3.2l2.7-1.1c0.6,1.8,2.4,3,4.5,2.9
			c0.9,0,1.6-0.1,2.3-0.6c0.6-0.3,0.9-1,0.9-1.7c0-1-0.7-1.7-2.2-2.1l-3.3-0.8c-1-0.3-2-0.7-2.9-1.4c-1-0.7-1.4-1.8-1.4-2.9
			c0-1.4,0.7-2.6,1.9-3.3c2.4-1.5,5.8-1.7,8.3-0.4c1.2,0.6,2,1.5,2.4,2.8l-2.6,1.1c-0.6-1.4-2.2-2.2-3.7-2.1c-0.9,0-1.6,0.1-2.3,0.6
			c-0.6,0.3-0.9,0.8-0.9,1.5c0,0.8,0.7,1.5,2.2,1.8l3.2,0.7c1.3,0.3,2.4,0.8,3.5,1.8c0.7,0.8,1.2,1.8,1.2,2.8c0,1.4-0.7,2.6-1.7,3.4
			C191.7,25.3,190,25.9,188.4,25.7z"/>
		<path class="st1" d="M205.3,25.3V2.6h3v22.7H205.3z"/>
		<path class="st1" d="M215.3,9.8V12h0.1c0.4-0.8,1.3-1.5,2-1.9c0.9-0.6,2-0.8,3-0.8c1.7-0.1,3.5,0.6,4.6,1.8c1.2,1.4,1.7,3,1.6,4.7
			v9.5h-3v-9.1c0-2.9-1.3-4.3-4-4.3c-1.2,0-2.3,0.6-3,1.4c-0.9,1-1.2,2.1-1.2,3.3V25h-3V9.8H215.3z"/>
		<path class="st1" d="M233.3,5.9c-0.9,0.8-2.2,0.8-3,0c-0.4-0.4-0.6-1-0.6-1.4c0-0.6,0.1-1.1,0.6-1.5c0.9-0.8,2.2-0.8,3,0
			c0.4,0.4,0.6,1,0.6,1.4C233.9,5,233.6,5.5,233.3,5.9z M233.3,25.3h-3V9.8h3V25.3z"/>
		<path class="st1" d="M243.7,25.6c-2.6,0.3-4.9-1.5-5.2-4c0-0.3,0-0.7,0-1v-8.3h-2.9V9.8h2.9V5.1h3v4.7h4v2.6h-4v8
			c0,1.7,0.7,2.5,2.2,2.5c0.4,0,1,0,1.4-0.3l1,2.5C245.3,25.5,244.4,25.6,243.7,25.6z"/>
		<path class="st1" d="M251.2,5.9c-0.9,0.8-2.2,0.8-3,0c-0.9-0.8-0.9-2.1,0-2.9s2.2-0.8,3,0c0.4,0.4,0.6,1,0.6,1.5
			C251.8,5,251.6,5.5,251.2,5.9z M251.2,25.3h-3V9.8h3V25.3z"/>
		<path class="st1" d="M259.8,25.7c-1.6,0-3.2-0.4-4.3-1.4c-1.2-1-1.7-2.3-1.7-3.7c0-1.5,0.7-3,2-4c1.4-1,3.3-1.5,5-1.4
			c1.6,0,3,0.3,4.5,1v-0.4c0-1.1-0.4-2.1-1.3-2.8c-0.9-0.7-1.9-1.1-3-1.1c-0.9,0-1.7,0.1-2.4,0.6c-0.7,0.4-1.2,1-1.4,1.7l-2.9-1.2
			c0.4-1.1,1.3-1.9,2.2-2.6c1.3-0.8,2.7-1.2,4.3-1.2c1.9,0,3.7,0.6,5.2,1.8c1.4,1.2,2.2,3,2,5v9.4H265V23h0.1
			C264,24.9,262,25.9,259.8,25.7z M260.4,23.1c1.3,0,2.4-0.6,3.5-1.4c1-0.8,1.6-1.9,1.6-3.2c-1.2-0.7-2.4-1.1-3.9-1
			c-1.2-0.1-2.4,0.3-3.3,1c-0.7,0.6-1.2,1.4-1.2,2.2c0,0.7,0.4,1.4,1,1.8C258.7,22.8,259.5,23.1,260.4,23.1z"/>
		<path class="st1" d="M278.1,25.6c-2.6,0.3-4.9-1.5-5.2-4c0-0.3,0-0.7,0-1v-8.3H270V9.8h2.9V5.1h3v4.7h4v2.6h-4v8
			c0,1.7,0.7,2.5,2.2,2.5c0.4,0,1,0,1.4-0.3l1,2.5C279.8,25.5,279,25.6,278.1,25.6z"/>
		<path class="st1" d="M285.6,5.9c-0.9,0.8-2.2,0.8-3,0c-0.4-0.4-0.6-1-0.6-1.5s0.1-1.1,0.6-1.5c0.9-0.8,2.2-0.8,3,0
			c0.4,0.4,0.6,1,0.6,1.5C286.3,5,286,5.5,285.6,5.9z M285.6,25.3h-3V9.8h3V25.3z"/>
		<path class="st1" d="M294.1,25.3l-6.5-15.5h3.3l4.9,12l4.9-12h3.3l-6.6,15.5H294.1z"/>
		<path class="st1" d="M312.4,25.7c-2.3,0.1-4.5-0.8-5.9-2.3c-1.6-1.7-2.4-3.7-2.3-5.9c0-2.2,0.7-4.3,2.3-5.9
			c1.4-1.7,3.6-2.5,5.8-2.5c2.2-0.1,4.3,0.7,5.8,2.2c1.6,1.7,2.3,3.9,2.2,6.1V18h-12.8c0,1.4,0.6,2.8,1.6,3.7c1,0.8,2.2,1.4,3.5,1.4
			c1.9,0.1,3.7-1,4.5-2.6l2.7,1.1c-0.6,1.2-1.4,2.3-2.6,3C315.4,25.5,313.8,25.9,312.4,25.7z M316.7,15.7c-0.1-1-0.6-1.8-1.3-2.5
			c-0.9-0.8-2.2-1.2-3.5-1.2c-1,0-2,0.4-2.9,1c-0.9,0.7-1.4,1.7-1.7,2.8H316.7z"/>
		<path class="st2" d="M13.7,25.8C6.4,25.8,0.1,20,0.1,12.9S6.4,0.1,13.7,0.1c4.1,0,7,1.5,9.2,3.5l-2.6,2.5
			c-1.6-1.4-3.7-2.5-6.6-2.5c-5.4,0-9.6,4.2-9.6,9.3c0,5.2,4.2,9.3,9.6,9.3c3.5,0,5.5-1.3,6.8-2.6c1.1-1,1.7-2.4,2-4.4h-8.8v-3.5
			h12.3c0.1,0.6,0.2,1.4,0.2,2.2c0,2.6-0.7,5.9-3.2,8.2C20.7,24.5,17.7,25.8,13.7,25.8z"/>
		<path class="st3" d="M41.6,17.5c0-3-2.2-5-4.8-5c-2.6,0-4.8,2-4.8,5c0,2.9,2.2,5,4.8,5C39.4,22.5,41.6,20.4,41.6,17.5z M45.3,17.5
			c0,4.7-3.8,8.2-8.5,8.2c-4.7,0-8.5-3.5-8.5-8.2c0-4.8,3.8-8.2,8.5-8.2C41.5,9.3,45.3,12.7,45.3,17.5z"/>
		<path class="st4" d="M60.7,17.5c0-3-2.2-5-4.8-5c-2.6,0-4.8,2-4.8,5c0,2.9,2.2,5,4.8,5C58.4,22.5,60.7,20.4,60.7,17.5z M64.4,17.5
			c0,4.7-3.8,8.2-8.5,8.2c-4.7,0-8.5-3.5-8.5-8.2c0-4.8,3.8-8.2,8.5-8.2C60.6,9.3,64.4,12.7,64.4,17.5z"/>
		<path class="st2" d="M79.6,17.5c0-2.9-2-5-4.6-5c-2.6,0-4.8,2.1-4.8,5c0,2.9,2.2,5,4.8,5C77.6,22.5,79.6,20.4,79.6,17.5z M83,9.8
			v14.8c0,6.1-3.8,8.6-8.2,8.6c-4.2,0-6.7-2.7-7.6-4.9l3.3-1.3c0.6,1.3,2,2.9,4.3,2.9c2.9,0,4.6-1.7,4.6-4.8v-1.2h-0.1
			c-0.8,1-2.5,1.9-4.5,1.9c-4.3,0-8.3-3.6-8.3-8.2c0-4.6,4-8.3,8.3-8.3c2.1,0,3.7,0.9,4.5,1.8h0.1V9.8H83z"/>
		<path class="st5" d="M85.8,25.2h3.8V1h-3.8V25.2z"/>
		<path class="st3" d="M95.5,17.3l7.7-3.1c-0.4-1-1.7-1.7-3.2-1.7C98.1,12.5,95.4,14.1,95.5,17.3z M104.5,20.2l2.9,1.9
			c-1,1.3-3.2,3.7-7.2,3.7c-4.9,0-8.4-3.6-8.4-8.2c0-4.9,3.6-8.3,8-8.3c4.5,0,6.7,3.4,7.4,5.3l0.4,0.9L96.1,20
			c0.9,1.7,2.3,2.5,4.2,2.5C102.2,22.5,103.5,21.6,104.5,20.2z"/>
	</g>
</g>
</svg>
