<svg id="Capa_1" data-name="Capa 1" xmlns="http://www.w3.org/2000/svg" viewBox="0 0 30.37 30.37"><circle cx="15.18" cy="15.18" r="15.18" fill="gray"/><path d="M15.18,8.71c2.11,0,2.36,0,3.19,0A4.8,4.8,0,0,1,19.84,9a2.54,2.54,0,0,1,.91.6,2.35,2.35,0,0,1,.59.9A4.24,4.24,0,0,1,21.61,12c0,.83.05,1.08.05,3.19s0,2.36-.05,3.19a4.24,4.24,0,0,1-.27,1.47,2.6,2.6,0,0,1-1.5,1.5,4.24,4.24,0,0,1-1.47.27c-.83,0-1.08.05-3.19.05s-2.36,0-3.19-.05a4.24,4.24,0,0,1-1.47-.27,2.35,2.35,0,0,1-.9-.59,2.54,2.54,0,0,1-.6-.91,4.8,4.8,0,0,1-.27-1.47c0-.83,0-1.08,0-3.19s0-2.36,0-3.19A4.8,4.8,0,0,1,9,10.52,2.76,2.76,0,0,1,10.52,9,4.8,4.8,0,0,1,12,8.75c.83,0,1.08,0,3.19,0m0-1.43c-2.14,0-2.41,0-3.25,0A5.72,5.72,0,0,0,10,7.7,4,4,0,0,0,7.7,10a5.72,5.72,0,0,0-.37,1.92c0,.84,0,1.11,0,3.25s0,2.42,0,3.26a5.77,5.77,0,0,0,.37,1.92A4,4,0,0,0,10,22.67a5.75,5.75,0,0,0,1.92.36c.84,0,1.11,0,3.25,0s2.42,0,3.26,0a5.8,5.8,0,0,0,1.92-.36,4,4,0,0,0,2.31-2.31A5.8,5.8,0,0,0,23,18.44c0-.84,0-1.11,0-3.26s0-2.41,0-3.25A5.75,5.75,0,0,0,22.67,10,4,4,0,0,0,20.36,7.7a5.77,5.77,0,0,0-1.92-.37c-.84,0-1.11,0-3.26,0Z" fill="#fff"/><path d="M15.18,11.13a4.06,4.06,0,1,0,4.06,4A4,4,0,0,0,15.18,11.13Zm0,6.69a2.64,2.64,0,1,1,2.64-2.64A2.64,2.64,0,0,1,15.18,17.82Z" fill="#fff"/><circle cx="19.4" cy="10.97" r="0.95" fill="#fff"/></svg>