<svg id="Capa_1" data-name="Capa 1" xmlns="http://www.w3.org/2000/svg" viewBox="0 0 30.37 30.37"><circle cx="15.18" cy="15.18" r="15.18" fill="gray"/><path id="Logo" d="M21.83,12.66c0,.13,0,.27,0,.41a9,9,0,0,1-9.1,9.1h0a9,9,0,0,1-4.9-1.44,6.34,6.34,0,0,0,4.73-1.32,3.21,3.21,0,0,1-3-2.22A3.23,3.23,0,0,0,11,17.13,3.2,3.2,0,0,1,8.46,14v0a3.39,3.39,0,0,0,1.45.4,3.21,3.21,0,0,1-1-4.27,9.12,9.12,0,0,0,6.6,3.34A3.2,3.2,0,0,1,21,10.51a6.29,6.29,0,0,0,2-.78,3.22,3.22,0,0,1-1.41,1.77,6.12,6.12,0,0,0,1.84-.5A6.64,6.64,0,0,1,21.83,12.66Z" fill="#fff"/></svg>