<svg id="Capa_1" data-name="Capa 1" xmlns="http://www.w3.org/2000/svg" viewBox="0 0 30.37 30.37"><circle cx="15.18" cy="15.18" r="15.18" fill="gray"/><path d="M16.66,13a3,3,0,0,1,.56-.71,3.22,3.22,0,0,1,2.32-.91,4.87,4.87,0,0,1,1.73.28A3,3,0,0,1,23.08,14a9.5,9.5,0,0,1,.2,2.19c0,1.72,0,3.43,0,5.14,0,.17-.05.22-.22.22H20.4c-.16,0-.2,0-.2-.2,0-1.65,0-3.29,0-4.93a5.06,5.06,0,0,0-.1-1.1,1.39,1.39,0,0,0-1.43-1.22,1.61,1.61,0,0,0-1.8,1.3,4.05,4.05,0,0,0-.12,1v4.89c0,.18-.05.22-.22.22H13.85c-.14,0-.18,0-.18-.19V11.83c0-.15,0-.2.2-.19h2.56c.15,0,.2,0,.19.19,0,.32,0,.65,0,1A.34.34,0,0,0,16.66,13Z" fill="#fff"/><path d="M8.65,16.59V11.86c0-.19,0-.23.22-.22h2.64c.17,0,.22,0,.22.2v9.49c0,.16,0,.21-.2.21H8.84c-.16,0-.19-.05-.19-.2Z" fill="#fff"/><path d="M10.2,10.27A1.78,1.78,0,1,1,12,8.48,1.8,1.8,0,0,1,10.2,10.27Z" fill="#fff"/></svg>