<svg id="Capa_1" data-name="Capa 1" xmlns="http://www.w3.org/2000/svg" viewBox="0 0 30.37 30.37"><circle cx="15.18" cy="15.18" r="15.18" fill="gray"/><g id="WA_Logo" data-name="WA Logo"><path d="M22.6,8.35A9.76,9.76,0,0,0,7.25,20.12L5.87,25.17,11,23.81A9.7,9.7,0,0,0,15.7,25h0A9.76,9.76,0,0,0,22.6,8.35Zm-6.9,15h0a8.09,8.09,0,0,1-4.13-1.13l-.29-.17-3.07.8.82-3-.19-.3a8.11,8.11,0,1,1,6.86,3.79Zm4.45-6.07c-.25-.12-1.44-.71-1.67-.79s-.38-.12-.55.12-.63.8-.77,1-.28.18-.53.06a6.79,6.79,0,0,1-2-1.21,7.29,7.29,0,0,1-1.35-1.69c-.14-.24,0-.37.11-.5a5.52,5.52,0,0,0,.36-.42A2.14,2.14,0,0,0,14,13.4.46.46,0,0,0,14,13c-.07-.12-.55-1.32-.76-1.8s-.39-.42-.54-.42h-.47a.9.9,0,0,0-.65.3,2.78,2.78,0,0,0-.85,2,4.79,4.79,0,0,0,1,2.52,10.93,10.93,0,0,0,4.16,3.68,13.76,13.76,0,0,0,1.39.51,3.49,3.49,0,0,0,1.54.1,2.51,2.51,0,0,0,1.64-1.16,2.07,2.07,0,0,0,.14-1.16C20.55,17.47,20.39,17.41,20.15,17.28Z" fill="#fff" fill-rule="evenodd"/></g></svg>