<?xml version="1.0" encoding="utf-8"?>
<!-- Generator: Adobe Illustrator 21.1.0, SVG Export Plug-In . SVG Version: 6.00 Build 0)  -->
<svg version="1.1" id="Layer_1" xmlns="http://www.w3.org/2000/svg" xmlns:xlink="http://www.w3.org/1999/xlink" x="0px" y="0px"
	 viewBox="0 0 997 1080" style="enable-background:new 0 0 997 1080;" xml:space="preserve"
	 preserveAspectRatio="xMinYMin none">
<style type="text/css">
	.st0{fill:#CCCCCC;}
	.st1{fill-rule:evenodd;clip-rule:evenodd;fill:#CCCCCC;}
	.st2{fill-rule:evenodd;clip-rule:evenodd;fill:none;stroke:#999999;stroke-width:0.5;stroke-linejoin:round;}
	.st3{fill:none;stroke:#FFFFFF;stroke-miterlimit:3.8637;}
	.st4{fill-rule:evenodd;clip-rule:evenodd;fill:#CCCCCC;stroke:#FFFFFF;stroke-width:0.5;stroke-miterlimit:3.8637;}
</style>
<path class="st0" d="M746.7,183.2l-1.3,1.8l0.5,0.8l-0.6,0.6l0.6,1.7l-0.3,1l0.3,0.9l-0.5,1.6l0.5,2l0.5,0.6l-0.4,1.3l1.2,1l0.1,1.1
	l0.1,0.3l-1.9,1.3v1.2l-0.6,0.4l-0.8,1.4l-0.4,1.5l-0.3,0.5l-1.1-0.2l-0.4,1l-0.7-0.3l-1.6,0.3l-2.2,1.9l-0.9,0.7h-0.2l-1.4-1.7
	l-1.5,3l-0.5,1.7l-0.8,1.1l-1.2-0.5l-0.9,1.1l-1.1-0.3l-2.1,1.2l-1.3,0.4l-2.2-0.6l-0.2,1.7l-0.9-1.4l-1.2,2.3l-1.2-0.2l-0.3,0.4
	l-1.5-1l-1.9,3.6l-0.7,2.4l-0.6,0.6l-1.3,0.3l-2.7,0.8l1.1,1.4l-1,1l-0.1,0.1l-1-0.8l-1.5,1.5l-0.2,1l-0.4,0.1h-1.9l-1.6,1.9
	l0.2,1.8l-0.3,0.5h-1.6l-2.3,1.9l-0.4,0.1l-0.8-1l-1-0.1l-0.1-1.3l-1.4-0.8l-0.5-1.2l-0.3-1.4l-0.2-2.9l-1.4-3.9l-2.5-3.6l-1.9-1.9
	l-0.5-1.3v-0.5l2.3,0.3l0.4,0.8l1.6,1.7l1.6,0.3l1.8-0.6l2.7-2.4l1.1-1.3l1.1-1.9l-0.3-1.9l-0.2-0.5l0.2-0.2h1.3l1.7-1.5l0.6-1.6
	l0.2-1.3l0.4-0.8l1.4-0.3l1.7-0.7l1.7-1.2l0.5-1.3l1.3-0.7l0.9-1.8l0.4-1l1-0.6l0.1-1.3l0.7,0.5l2.5,0.7l1.3-1.6l0.2-1.3l1.1-1.2
	l2.2-1.3l-0.2-2l0.4-1.1l1-1.1l0.7-0.4h1.5l1.4-1.7l0.2-2.6l-0.3-0.8l0.8-1.6v-1.1l0.2-1.8l-0.5-0.8l0.5-0.7v-2.6l-1.1-4.5l-0.8-1.9
	l-0.1-1.2l0.4-0.5l0.7-0.4l0.8,0.4l1.4,0.6l1.9-1.4l0.7-0.6l1.1-0.4l1.1-0.1l1.8,0.3l0.3-0.7l0.9,1.2l2.5-0.6l0.3-0.7l0.8-0.2h1.1
	l0.6,0.4l0.6,0.9l0.4,1.8v1.6l0.5,1.8l-0.2,1.5v2.9l1,1.6l1.1,1l0.2,1.8l1.1,1.3l0.6,1.9v2.2l-0.6,1.3L746.7,183.2z"/>
<path class="st0" d="M529.1,80.5l0.6,2.1L531,84l0.7,2.9l2.6,1.5l1.2,1.7l0.8,2.7l2.6,1.5l1.9,1.6l2,3.3l4.1,3.1l3.1,0.8l1.7,2.4
	l4,0.7l5.4,4.1l0.7,2.3l5.6,6l4.2,0.7l1.3,1.3l2.6,0.7l3.7,2l4.1,0.7l1.8,1.8l4.6,0.4l5.9,3.8l0.4,2.1l8.7,4.4l2.1,0.4l2.8,2.4
	l2.5,0.4l3.1,1.7l8.7,3l2.7,2.7l2.2-0.7l1.3,0.8l1.9,0.4l3,1.3l3.9,0.4l1.7,1.1l1.7,2.7l2.7,3.1l1.5,2.6l-0.2,1.2l-0.5,1h-1.2
	l-1.1,1.1v1.2l-1.7,0.9v1.7l-1.1,1.6l-1.4,2.7l-0.5,1.4l-0.1,2.2l-1.8,1.2l-1,1.1l-1.4,0.9l-2.7,1.1l0.7,1.7l-0.7,1.1l-1.2,3.2
	l0.2,2.7l-0.6,3.7l-3.2,3.6l0.3,2.3l0.6,0.4l-0.4,1.2l-1.7-1l-1.3-1.6l-1.7-0.6l-1.6-3.6l-1.8,0.3l-0.3-1.8l-2.9-0.7l-3.8-2.6
	l-3.9-2.1l-7.4-1.2l-1.5-1.7l-1.5-3.3l-1.5-2.1l-2.5-3.1l-2.1-1.8l-4.6-2.3l-1.2-5l-1.6-1.3l-1.1-2.2l-2-2.1l-2.4-2.1l-2.7-1
	l-1.2-1.8l-2.6-1l-2-1.4l-2.6-1.7l-3.2-2.6l-1.7-2l-2.3-3.2l-1.1-2.6l-5.4-0.3l-2.4-1.7l-0.7-2.9l-2.2,0.3l-0.8-2.4l-2.8-0.8
	l-1.9-0.2l-1.9-2.8l-2.8,0.4l-2.6-0.8l-2.2-1.9h-3.3l-2-45.2L529.1,80.5z"/>
<path class="st0" d="M615.6,234.2l-66.2,2.1l-1.2-68.7l-43.7,0.3l22.6-29.5l3.8-5l-0.3-5.9h2.4l1.8,1.5l3.6,1.2l2-0.2l1.7,2.5
	l2.7,0.3l1.6,0.4l1,3l2-0.3l0.5,1.9l3.5,2.5l4.7,0.3l0.6,1.5l2.6,3.5l1.9,2.2l3.4,2.7l2.7,1.8l2.1,1.5l2.3,0.9l1.2,1.8l2.8,0.9
	l2.2,1.9l1.7,1.7l1.1,2.2l1.5,1.3l1.2,5.2l5.1,2.5l1.9,1.6l2.4,2.9l1.4,1.9l1.5,3.3l2.2,2.6l7.7,1.2l3.6,1.9l3.9,2.7l2.1,0.6
	l0.3,2.4l2.3-0.3l1.4,3l1.9,0.6l1,1.3l1.3,0.9l0.1,0.5l-0.6,0.5l-0.2,2.6l-1.4,2.3l-2.1,2.3v3.1l-1.1,1.3l-1.4,2.5l-1,0.2l-0.9,1.7
	l-1.5,1.6l1.3,3.5l1.5,2.1l0.2,3.6l-1.9,4.7v1.4v0.5L615.6,234.2z M697.9,235l-0.6,0.5l-2.5,1.7l1,2.1l1,0.6l-0.2,0.8l-0.7-0.3
	l-1.1,0.4l-1.5-0.5l-2.4,0.3l0.2,2.1l-0.4,0.4l-1,0.6l-1.8,0.5l-0.5,1.8l-0.7,1.3l-2,2.3l-1,2l-2,0.5l-0.6,2.1l-0.7,1l-1.2,1.6
	l-1.1,3.9l-1.8,0.5l-2.2,1.3l-1,2l-0.6,2.1l-0.6,1.6l-0.6,0.7l-1.5,0.6l-0.4,1.8l-0.8,0.9l-1.7,0.2l-0.8,2.6l-1.2,1l-1.5,2.1
	l-2.3,1.6l-0.6,0.8l-1.6-0.1l-1.8,1l-0.6,1.7l-0.1,1.1l-1,1v1.8l-0.5,1.3l-1.9,1.6l-0.6,1.5l-0.8,0.9l-1.4,0.6l-0.2,0.6h-1l-1,1.9
	l0.5,2.4l-0.4,0.7l-1.6,1.2l-3.3,1.9l-0.7,2.5l0.2,2.4l0.2,0.8l-0.7-0.1l-0.9-1.1l-1.4-1.4l-1.2-0.3l-0.2-1.1l-0.2-2.3l-1.2-0.5
	l-0.1-1.1l-1.5-1.8l-1.9-0.2l-1.6-0.3l-4-2.3l-1.6-1h-1.7l-3.9,1.9l-2.2,0.5l-4.6,0.7l-2.2,1.8l-1.9,1.2l-1.8-0.4l-2.2-0.6l-2.3,0.6
	l-1.7,1.1l-1.5,0.3l-0.1-0.6l1.9-8.7l-0.9-2.5l-0.5-3.4l0.5-4.8v-0.4l-0.6-3.1l0.4-2.3l2.2-6.4l2.5-0.9l2.3-1.5l0.7-1.4l0.9-0.8
	l2.2-0.7l-0.2-2l0.2-2.5l0.9-3.5l1.4-4l-1.1-3.9l0.7-9.6l0.9-1.3l1.8-1.2l1.3-1.7l-0.1-2.2l1.9-4.7l-0.2-4.6l-1.6-2.2l-0.8-2.2
	l0.7-0.7l0.6-1.2l1-0.2v0.3l1.4-0.8l1.9-0.2l1.3-0.9l1.9-0.6l4.7-0.7l2.5,0.2h3.5l3.4,0.5l3.3,1.1l3.8,0.5l2,0.8l1.9,0.6l1.5-0.6
	l1.8,0.1l1.6,0.9l2.1,1.2h3.6l1.3,0.3l2,1.3l1.8,0.9l1.8-0.6l1.3-0.2l3.2-1.1l-1-1.9v-0.3l0.2-0.1h0.8l1,0.9l1.4,1.4l2.6,1.1
	l2.1-0.8l1.7-1.4l0.7-2.7l0.2-0.3h1.5l1.1-1.7l0.9-0.6l0.4-0.1v1.6l0.8,2.1l2.2,2.3l2.2,3.2l1.3,3.4l0.2,2.9l0.4,1.7l0.8,2.1
	l1.1,0.6l0.2,1.8l1.7,0.2l0.2,0.3L697.9,235z"/>
<path class="st0" d="M644,315.2l-1.8,0.2v2l0.4,1.6l0.6,1l-0.4,1.1l0.1,1.6l-0.2,0.1h-3.4l2.5,2.5l-1.2,2.5v1.4l-0.8,1l-1.3,1.8
	l0.5,1.9l0.9,1.5l0.1,1.9l-0.4,2.1l-1.6,1.2l-2.2,1.9l-1,1.8l1.5,3.4l0.1,1.4l-0.3,1.7l-0.4,1.8l0.6,2.1l0.6,1.3l-0.3,1.8l-0.7,1.5
	l-0.5,1.4l-0.2,1.8l-0.6,1.4L634,366l-0.8,3.2l0.7,2.4l0.4,2.2l0.6,1.7l-0.2,2.8l0.8,2.2l0.3,0.8l-0.6,1.4l0.8,0.8l-0.1,0.1
	l-1.2,0.7l-1.1-0.1l-4.2,0.4l-0.3,2.8l-0.2,4l-0.4,1.7l-1.3,3.1l-0.7,3.7l0.3,1.4l-0.4,1.8l0.8,1.9l0.7,2.4l0.4,0.6l-1.8-0.1
	l-1.9-0.2l-1.6,0.8l-1.4,0.7l-2.3-1.2l-3.1-1l-1.8-0.7l-1.1-0.7l-1.9-1.7l-1.5-0.4l-1.4-0.1l-1-0.8l-1.9-0.6l-2-1.1l-3.5-2.5
	l-0.9-0.7l-1.7-0.8l-2-1.3l-1.5-1.2l-2-0.6l-1.3-0.9l-1.2-1.1l-2.6-1.1l-1.6-1.8l-2.2-2l-1.3-1.4l-1.3-0.8l-1.2-0.6l-0.8-0.2
	l-0.6-0.9l-1.2-0.5l-0.7-1.3l-1.3-1.1l-2.2-3.5l-0.8-2.8l0.3-1.3l-0.7-2l-0.3-2.1v-2.1l0.8-1.9l0.1-1.3l1.5-3.3l0.1-0.2l-0.7-2.1
	l-0.6-1.1l0.4-1.1l0.2-2.5l-0.3-1.9l0.3-2.5l0.1-0.9l1.2-1.8l1.4,0.2l2.1-1.3l1.1-0.6l1.7-1.8l2.8-2.3l3.3-3.7l0.6-0.6l0.9-1
	l0.1-0.1l0.6-2.2l0.9-1.8l2-2.4l1.4-1.7l3.3-4.1l0.2-0.2l1.8-3.5l1.2-1.8l0.7-0.9l0.5-0.8l0.9-2.5v-2.1l-0.3-7.5l1.8-0.4l1.8-1.1
	l1.6-0.4l1.7,0.5l2.7,0.6l2.7-1.7l1.9-1.5l4.1-0.7l2.4-0.5l3.8-1.9h0.7l1.2,0.7l2.4,1.4l1.7,1l2.1,0.5l1.1,0.1l0.6,0.7l0.2,1.7
	l1.2,0.5l0.1,1.2l0.5,2.6l1.9,0.4l0.9,0.9l1.3,1.7l0.9,0.1l0.3,1.2l1.4,0.6v0.7l-0.2,1.4l0.3,1.3L644,315.2z"/>
<path class="st0" d="M665.2,493.2l-4.9,7.8l-3.9,7.1l-2.4,2.2l-4.8,5.5l-1,2.3l-0.4,2.4l-1.1,4.6l-1.8,1.9l-9,4.9l-2.8,2.4l-0.8,0.6
	l-2.4,0.2l-1.8,1.3l-2,0.5l-2.5,1.6l-6.8,2.4l-4.8,2l-4.1,0.9l-2.8,1.4l-3.1,0.2l-4.4,1.4l-7.5,2l-6.9,1.2l-5,0.2l-10.2,2.2
	l-5.4,0.2l-6.6,0.5h-7.2l-6.3-1.2l-2.8-0.8l-2.7-1.6l-2.4-2.2l-5.5-0.5l1.2,3l-0.7,2.8l0.8,1v1l-1.8,2.2l1.3,4.5l0.4,0.2l-0.4,0.8
	l1.2,1.4l0.8,3.3l2.2,0.4l1.2,0.9l-0.3,2l-0.8,2.1l-0.1,4.7l-0.9,0.8l-1.6-0.2l-2.1,1.2l0.2,2.5v3.6l-0.3,2.3l-0.4,0.8l-1.9,1.6
	l-0.8,2.2l-0.1,2.5l0.9,2.6l2.7,0.9l1.4,0.2v1.7l-1.4,5.3l-3.1,0.9l-5.3,3.5l-1.4,0.4l-1-1.4l-1.4-3.8l-2.3-2.4l-3.4-1.4l-2.9-1
	l-1.5-177.4l39.7-0.9l20-22.4l1.4-0.2l1.6,1l2.2-0.9l2.6,1.2l3.7-1.2l0.4-2.6l0.8-1.5l1.3-1.5l1.8-0.8l4.3,3.4l2.1,1.1l3.9,2.8
	l3.7,2.2l2,1.8l1.7,1l2.1,0.6l2.3,1.8l1.5,0.1l0.2,0.3l1.9,0.6l1,0.2l0.5,0.3l1,1.4l0.6,3.2l1.2,0.2l1,1l3.8,1.7l3,1.8l3.7,6.3
	l6.5,5.1l8.3,2.9l3.5,2.3l1.3,0.2l1.5,1.3l1.5,2.4l1.7,0.6l4.6,4l0.4,1.8l2.7,4.3l-1.1,1.3l-2,4.4l-1.5,1.8l-2,4.1l0.7,5l1.5,2.3
	l1.5,3.3l1.9,1.5l2.2,0.6l1.6,1.4l5.3,0.4l1.1-0.7l0.4,1.1l1.2,8.1l0.2,5L665.2,493.2z"/>
<path class="st0" d="M517.9,611.2l-1.3,0.3l-3.3,1.5H505l-1.2,1l-1.9-0.9l-2.7,0.2l-3.8-1.1l-4.1-2l-2.2-0.7l-1.8-0.7l-3.2-2.2
	l-2.5-0.2l-2.7-1.3l0.3-1.4l-3.1-0.9l-1.4-0.6l-1.5-1.5l-4.4,0.8l1.4,1.4l-2.1,0.9l-1.5,3l0.2,1.5l-0.9,1.3l0.9,1.3l-0.2,4.1l1.2,7
	l2,3.3l-1,4.4l0.7,1.6l-0.3,5.6l-0.4,0.8L323.2,645l1-3.6l-4.6-3.2l-1.4-0.4l-0.1-0.6l0.9-1.5l-1-1.4l0.3-2l-2.2-4.6l0.9-2.4
	l-0.9-2.1v-2l1.7-0.2l3.9,0.3l1.2-1.2l1.4,0.2l2.6,1.6l5.3-1.8l2.5-4.9l-1-3l-0.2-2.1l1.7-1.7l2.2-1.9l1.7-0.3l3.4-0.3l1.5-1.5
	l0.9-1.1h2l1.3-1.1l1.6,0.5l3.7-1.2v-1.9l1.7-0.9l0.6-4.5l1.4-2l-0.7-1.7l0.5-2.5l1.5-2.3l2.8-1.4l3.2-1.7l2.8-0.6l2.3-2l1.7-2.3
	l1.3-2.1l2.9-1.5l3.3-2.4l3.8-4.4l2.1-2.7l1.8-2.4l1.3-1.8l1.7-0.6l1.2-1.2l4.2-2.1l2.3,0.8l4.3-1.1l-2.7-3.2l-0.5-1.5l-0.3-3.2
	l-2.1-2.1h-1.5l-1.2-29.6h2.5l2.2,0.6l2.9-0.5l0.8,1.2l1.7,1.4l0.2,2.2l-1.3,1.8l-2,3l0.5,3.7h2.3l1.4,1.2l1.9,2.9l4,1h3.5l1.9-1.1
	l2.1,0.6l0.4,1.3l2.1,3.2l3.1,1l2.2,0.5l3.5,1.4l2.3,1.3l0.6,2.2l1.8,0.7l2,1.6h3.1l4.6-0.3l4.6,1.4l4.6,0.4l2.6-0.9l5.6,0.9
	l4.2-0.6h6.4l3.8,0.6l6.4,1.4l3.7,1.5l3.5,1.2l2.6,1.8l2.5,1.4l3.9,3.3l1.2,0.9l1.8,1.5l3.9,1.7l2,0.7l0.3,36.4l4.2,1.4l2.8,1.1
	l1.8,1.8l1.4,3.7l1.1,1.5L517.9,611.2z"/>
<path class="st0" d="M314.5,613.2l-0.4-1.3l2.3-1.5l0.7-2.8l-1.1-2l0.1-1.8l0.8-1.1l2.8-0.4l-0.6-3.3l-2.1-2.7l-1.7-0.6l-0.4-1.8
	l0.5-0.4l2.7-0.2v-3.9l1-2.7l-1.6-2.4l-0.5-1.5l0.3-1.7l-0.6-1.7l0.6-0.5l2.2-0.2l1.5-7.7l1.5-1.7l-0.9-6.8l-0.9-2.4l0.6-1.4
	l2.9-2.1l2.6-0.8l2.5-1.9l2.3-0.4l1.6-2.3l-0.6-1.7l0.8-2.4l-4.1-3.9l0.1-1.4l-1.2-5.8l-0.7-3.8l-1.2-2.5v-2.8l-3-5l1.2-3.9
	l-2.4-5.7l1.4-2.4l0.2-3.5l-0.8-2.6l0.9-2.6l-1.4-2.2l0.5-3.3l2-0.6l-1.1-5.6l1.2-0.7l2.5-0.6l0.3-1.2l2.2-0.5l1.4-1.6l-0.2-1.9
	l3.6-4.4l1,0.4l0.9,1.7l0.4,2.6l3.7,0.8l1.2-0.6l1,1.9l0.3,2.9l1.4,1l0.9,1.6l1.1,0.6l0.6,1.5l1.2,0.6l0.9,1.8l1.6,0.6l1,1.3
	l1.1,0.6l0.5,2.4l1.7,4l2.1,0.7l2.9,1.3h3.9l1.6,0.3l1.9,0.9h2.2l1.2,1.2v2.1l2.2,1.8l3,0.9l2.3-0.3l2.3,1.2h2.8l1.5,0.2l0.6,1.4
	l3.4,0.7l2,0.2l1.3,31.8h2.6l0.9,0.9l0.3,2.6l0.6,2l0.9,1.2l-0.5,0.1l-2.5-0.9l-5.2,2.6l-1.3,1.2l-1.9,0.6l-1.7,2.3l-3.8,5l-3.5,4.1
	l-3,2.2l-3.2,1.6l-1.6,2.6l-1.4,2l-1.8,1.5l-2.4,0.5l-3.5,1.9l-3.2,1.6l-1.9,2.9l-0.8,3.6l0.5,1.3l-0.9,1.3l-0.7,4.1l-1.9,0.9v1.7
	l-1.7,0.6l-2-0.7l-1.6,1.3H344l-1.4,1.8l-0.9,0.9l-2.7,0.3l-2.4,0.3l-2.7,2.3l-2.4,2.4l0.4,3.2l0.8,2.5l-1.7,3.4l-3.6,1.2l-2-1.2
	l-3-0.5l-1.2,1.2l-3.2-0.3h-0.1l-1.6,0.2v-3.8L314.5,613.2z"/>
<path class="st0" d="M391.4,475.3l-1.5-0.3l-0.1-2.9l76.3-2.5l-0.2-28.9l39.9-1.2l1,123.3l-1.2-0.5l-3.4-1.4l-1.7-1.4l-1.1-0.9
	l-4-3.4l-2.6-1.5l-2.7-1.8l-3.8-1.3l-3.8-1.5l-6.6-1.5l-4-0.6h-6.7l-4,0.6l-5.8-0.9l-2.7,0.9l-3.9-0.3l-4.8-1.5l-4.9,0.3h-2.3
	l-1.5-1.3l-1.3-0.6l-0.6-2l-3.2-1.8l-3.7-1.5l-2.3-0.6l-2.4-0.8l-1.5-2.3l-0.7-2.2l-3.9-1.2l-2.2,1.3h-2.6l-3.1-0.8l-1.6-2.4
	l-2.3-1.9h-1.3l-0.1-1.1l1.6-2.3l1.7-2.4l-0.4-3.8l-2-1.7l-1.5-2.2l-3.7,0.7l-2-0.6h-2.8h-0.1l-1.7-39.1L391.4,475.3z"/>
<path class="st0" d="M482.6,668.1l-3.4,0.6l-2.6,1.1l-2.3,2.2l-2.3,1.1l-1.8,4.4l-1.5,1.8l-1.1,2.7l-1.1,1.1l-1.2,2.3l-0.9,3.9
	l1,1.6l0.7,3.8l0.8,0.6v2.3l0.2,0.7l-0.5,0.2l-1.1,2l2.1,4.9l-1.3,1l-0.2,2.7l-2.4,1l0.5,0.6L461,712l-2,1.4l-0.8,2.6l-0.3,4.4
	l2.8,1.2l0.5,0.8l-0.6,1.3l-1.1,0.3l-3.6-1.1L454,724l-0.2-0.6l-1.9-0.8l-2.7,0.6l-2.3,1.6l-1.2-0.5l-4,2.8l0.3,0.9h-2l0.8,1.3
	l-2.2,0.6h-2.3l-3.7,1.6l-2.2,2.5l-0.8,2.5l-1.6,3l-3,3.3l0.2,2.3l-0.9,2.5l-1.2,1l-0.3,1l-1.2,0.9l-0.4,1.5l-83.1,4.4l-0.4-1.1
	l-1.2-1l-1-0.4l-0.3-1.3l0.5-5.3l0.8-1.3l2.9-1.6l-0.2-1.7l1.9-1.7l0.8-2.5l-0.2-2.4l-1.4-1.8l-2.9-1.8l-0.9-2.7l-5-1.9l-1.9,0.8
	l-1.9,0.1l-1.5-0.6l-0.3-1.8l0.7-0.6l1.3,0.3l2.5-1l1.8,0.6l3.3-2.1l1.4,0.9l4.5-1.6l0.4-2.4l0.7-1l1.9-1l-1.3-4.6l-5.1-0.2
	l-0.7-0.9l-2.3-1l-1.8,1.2l-4.1,0.8l-0.7-0.1l-0.6-1.8l1.4-3.5l-0.8-1.5l0.3-2.3l1.7-4.3l-1.9-3.6l-0.2-0.8l3-3.8l-2.5-1.7l-3.8-2.1
	l-2.1-1.8l-0.1-1.4l3-3.2l-0.8-3.4l-2.5-0.7h-2.9l-1.1-1.3l-0.4-3.4l-1.3-1.1l-0.8-2.3l1.3-3.9l-1.3-1.2l0.5-1.2l1.4-1.6l-0.2-3.9
	l-1.4-3.5l0.7-1.3l1.5-0.4l4.2-3.5l-0.2-2.4l0,0l146.4-7.1l0.4,1.9l2.1,1.5l1.7,2.1l7.1,1.7l0.2,1l-1,0.6v2.7l5.2,1.3l1.2-0.8h4.5
	l1.4-0.2l2.4-2.4l-0.8-1.1l0.4-0.5l-0.8-2.4l-1.1-0.7l2.2-1l2-1.8l3,0.1l0.5,1l1.3,4l0.6,1.1l-1,0.4l0.4,2.9l1,3.8l-0.4,3.2
	l-1.5,1.2l-6.8,2.6l-1.6,0.1l-1.1-0.2l-1.2-1.2l-0.5-1.2l1-2.9l-0.8-1.9l-3.1-1.8l-2.3-0.2l-2.9-0.8l-3.1,1.1l-2.2,2.1l-2.3,0.5
	l-1.7,1.9l-0.2,4l2,0.5l1.4,1.3l1.7,0.2l2.6,1.4l6.1,0.8L482.6,668.1z"/>
<path class="st0" d="M411.6,926.6l-1.8,0.2l-4.1-2l-2.3-0.6l-5.2,0.4l-1.9-0.2l-6.4-2.4l-2.4-0.6l-5.8,0.5l-11.2,0.7l-19.3,1.5
	L351,924l0.6-1.6l-1.6-2.6l-2-0.8l-1.3-1.8l-2.4-0.6v-1.3l-1.9-4.2l-0.2-3.5l0.6-2.6l-0.9-1.7l-1.3-1.7l-0.1-0.9l1.2-1.2l0.7-2.5
	l-2.2-6.2l-2.1-3.3h-2.9l-0.6,0.6l-0.9-0.9l-1.2,1.2l-1.2-0.7l-2.2,0.5l-2.3,3.4l-1.6,1.1H323l-1.5,0.8l-2.4-7.9l-0.2-3l-1.7-1.7
	v-2.3l-2-4.9l0.5-1.5l-0.5-1.6l0.7-3l-0.3-1.7l1.7-7.8l1.6-5.4l1.9-1l-0.2-3.3l1.1-1l1.9-1.6l1.1-2l0.5-2.7l4.1-3.8l-1.6-7.9
	l0.4-1.2l0.6-0.5l2-0.2l1.1-5.4l-1.2-1.4l0.3-1.2l-2.3-4.2l-1.7-2.4l-1.3-0.9l-0.2-1.5l0.5-1.3l3.9-4.9l0.2-2.2l-0.7-2.2l3.5-2.1
	l1.4-2.8l1.8-1.6l-0.6-5.4l-1.2-1.2l-0.1-0.7l1.1-1.1l-0.6-2.2l0.2-1.2l4.9-4.5l-1.4-4.2l-2.2-7.4l-0.9-3.1l-0.8-1l0.3-0.4l2.7-2.4
	l83-4.4l-0.1,0.5l-0.4,4.8l1.3,6.1l4,4.6l1.8,0.5l1.7,1.5h1.4l3.8,5.1l1.4,0.9l2.3,2.8l2.6,1.7l2-0.8l2.2,0.3l1.3-0.3l5.1,1.2
	l4.8-0.5l1.5,0.4l1.6,2.3l0.8,3.5l-0.2,4.9l-0.9,3.6l-0.8,0.9l-2,1.1l-1.8,0.5l-3.7,2.3l-2,1.8l0.9,1.6l2.3-0.7l3.5-1.7l2.8-1.1
	l0.2,0.1l0.3,2.5l0,0l-1.7,1l-0.5,2.7l0.7,1.4l-0.1,0.1h-2.4l-1.6,1.1l-0.4,1.4l-1.6,2l-1.6,1.4l-0.2,1.2H448l-1.6,1.3l0.1,0.7h-0.1
	l-1.5-0.2l-2.9,0.8l-2.8,3.2l-0.6,1.4l-3,1l-1.5,2.3l-1.9,3.7l-1.6,0.5l-1.9,2.5l-1,2.1l-1.2,0.7l-1.8,3.4l0.7,1.2l-1,0.9l-1.2,1.6
	l-1.6,5.6l3.6-0.5l0.4-1.6l0.2,2.7v5.2l-0.6,2.1l-2.3,2.8l-0.1,1l-1,0.6l-2.4,4.4l-3.9,1.6l-1.6-0.4l-2.4-4.1l-2-2.2l-3.3-2.3
	l-1.3,1.5l1.7,1.9l0.3,0.6l-3.4,0.9l-3.6,3.2l1,1.6l4.6-2.1l1.9,0.2l0.8-0.4l1.5,1.4l0.3,1.1l1.8,2.4l-0.2,0.3l-1.6,0.4l-3,0.1
	l-1.8,1.2l-2.2,2.5l-2.3,1.4l-1.3,2.2l-0.2,4.9l0.5,0.8l-0.9,1.5l-0.5,2.8l0.3,1.3l-0.7,0.9l-1,0.3l-1.6,2.1l-2,3.1l1.5,1.2l3.5-3.3
	l1.2-0.7h0.1l0.2,0.8l0.8,2.1v2.9l0.6,2.4l1.2,3.4l1.9,3.1l-2,0.5l-1.2-0.7l-2.3-0.3l-3.6,1l0.4,1.9l2.5-0.2l1.6,0.6l-0.8,1.1
	l1.2,1.4l2.3-1.2l1.7-0.4l1-0.9h0.2l2.6,6l0.6,2.7l4.3,2.7l1.6,3l3.1,1.7l0.4,0.9L411.6,926.6z"/>
<path class="st0" d="M370.9,505.3h-2.6l-1.6-0.8l-2.2-0.4h-3.7l-2.6-1.1l-1.3-0.4l-1.3-3l-0.7-3.2l-1.4-0.7l-1.2-1.5l-1.4-0.6
	l-0.9-1.7l-1.2-0.6l-0.6-1.5l-1.3-0.6l-0.7-1.2l-1.1-0.9l-0.2-2.3l-2-4.3l-2.4,1.2l-1.6-0.4l-0.2-1.4l-1-2.1l0.8-3.3l-1-3.9l2.1-2.6
	l-1-4.1l-1.4-2.8l-1.2-8.3l-1.5-1.2l0.4-0.6l1.7-1l1.1-4.8l3.2-8.4l-0.5-2l4.8-8.5l-0.9-2.9l0.6-1.2l1.5,0.3h3l-0.5-3.3l-1.7-2.7
	l0.9-1.9l-0.5-1.9l0.8-1.9l-1.2-6.2l0.8-5.9l-0.2-6.3l-3.2-1.6l-1.8,1.3l-0.3-0.2l-1.6-4.9l1.5-1.2l-0.8-3.4l-2.5-3.3l-0.6-2.5
	l2.3-0.4l2-2.7h3.2l3.7-2.3l-1.1-3.7l5-6.2l4.4-1l3-2.7h1.3l1.6,1.6l1.6-0.6l0.7,1.1v4.5l1,2.7l4.3,0.4l4.1-0.3l2.9-1.3l0.8-3.1
	l0.9-2.3l0.8-0.3l0.2,1.4l1.7,1.7l2.7-2.7l2.1-1l1.9-1.3l2,1.3l1.5,1.8l2.4,0.8l4.8,0.4h2.8l0.4,1.1l1.6,2l-0.4,2l2.2,1.3l1.1,1.1
	l0.3,1.7l2.7,3.1l0.3,1.8l-1.5,3l1.2,2v5l0.3,3.4l1.1,2.3l0.3,2.3l1.5,3l1.8,4l3.4,4.8l4.6,4.3v2.8l-0.7,4l-1.2,2.3l1.1,3v1.7
	l0.3,2.4l1.4,2.2v2.1l1.9,2.2l1.7,3l0.3,1.2l0.3,2.1l1.2,2.3l-0.8,1.6l-0.5,2.9l0.6,2.2l-1.1,1.8l1,2.6l-0.5,0.5v2.7l-0.4,2.6
	l0.3,1.1l-1.4,2.1l0.8,3.4v3.6l-40.6,1.3l0.3,6.5l1.4,0.3l1.7,37.7l-1.6-0.1l-2.2-0.5l-0.6-1.5l-2.8-0.4h-2.4l-2.4-1.2l-2.5,0.3
	l-2-0.5l-1.2-1v-2L370.9,505.3z"/>
<path class="st0" d="M464.4,374.1v4.7l-0.3,2.4l-0.3,2.9l-1.8,3.5l1.8,52.1l0.2,27.9l-33.7,1.1v-3.6l-0.6-2.9l1.4-2.1l-0.4-1.6
	l0.3-2.4v-2l0.9-0.9l-1.1-2.9l1-1.7L431,446l0.3-2l1.2-2.4l-1.6-2.7l-0.3-2l-0.3-1.4l-1.9-3.5l-1.5-1.8v-2l-1.4-2.1l-0.3-2v-1.7
	l-0.9-2.7l0.8-1.7l0.8-4.6v-3.9l-5.1-4.7l-3.3-4.6l-1.7-3.8l-1.3-2.6l-0.3-2.2l-1-2.2l-0.3-3.2v-5.5l-0.9-1.5l1.3-2.5l-0.4-3
	l-2.8-3.1l-0.4-1.8l-1.6-1.6l-1.3-0.8l0.3-1.5l-1.9-2.3l-0.2-0.4l1.5-0.3l-0.6-2.9l-1-2.9l0.5-3.1l7.5-0.6l1.1-0.5l0.8,0.8l2.4-1.6
	l2.6,0.9l2.3,0.1l1.3,0.2l1,1l2-1.2l4.1,1l2.2-1.1h4.2l2.4-1.4l6.5,0.4v0.2l1-0.1h0.5l0.5-0.1v-0.1l0.6-0.1l3.2,2.2l3,2l1.8,1.5
	l0.3,2.4l0.9,2.4l2.1,0.9l3.3,0.4l2.4,0.4l0.6-0.2v2.2l-0.4,4.7l0.6,2.1L464.4,374.1z"/>
<path class="st0" d="M465.8,438.7l-1.7-50.5l1.6-3.2l0.4-3.4l0.4-2.6v-4.2l1.8-2.5l-0.8-2.7l0.3-4.4v-5.3L465,361l-1.8-0.3l-3-0.3
	l-1.2-0.5l-0.5-1.2l-0.4-3l-2.5-2l-3.1-2.1l-3.8-2.6l-1.3,0.1l-0.9-24.1l7.4-21.5l1.3-3.8l6-1.1l5.6-6.3l-0.9-6.3l1.5-0.7l0.1,0.1
	l0.8-0.5l0.5-0.2l0.5-0.3v-0.1l0.8-0.5l4.9-1.2l7-2h2.3l1.9,1l1,1.4l0.7,2.4l4.1,1.5l3.7-0.9l4.6,0.9l5.1,0.6l11.7,1.5l13.7,1.2
	l2.1-0.9l4.7,7.3l-0.5,2.5l6,11l-6.6,30.9l-1.9,1l-2.3,2.6l1.1,1.9v2.7l1.2,1.8l0.3,3.4l-0.6,2.2l0.8,2.9l2.3,0.9l0.3,2l1.9,1
	l1.4,3.9l1.8,3.9l1.1,2.5v7l-1.3,0.9l-24.8,38.9l-12.4,0.3l0.1,17L465.8,438.7z"/>
<path class="st0" d="M612.1,237.6l-0.4,4.8l-0.4,5.7l1,3.5l-1.1,2.9l-0.6,2.5l-0.5,1.8l-0.2,2.9l0.1,0.5l-0.8,0.2l-1.6,1.2l-0.8,1.4
	l-1.6,1l-3.2,1.2l-2.6,7.5l-0.5,2.8l0.7,3.2l-0.5,5.1l0.6,4l0.7,2.1l-1.9,8.6l0.5,2.2l0.1,3.7l0.2,6l-0.6,1.8l-1,1.5l-1.2,1.5
	l-0.7,1.4l-1.3,2.5l-6.9,8.5l-1,1.9l-0.5,2.1l-1.2,1.3l-1.3,1.3l-1.4,1.6l-0.7,0.7l-2.4,2l-1.6,1.7l-2.6,1.6l-1.9-0.2l-2.2,3.2
	l-0.5,4.2l0.3,1.9l-0.1,1.8l-0.6,1.9l0.9,1.6l0.5,1.3l-0.7,1.4l-0.7,1.6l-0.1,1.4l-0.9,2.1v2.6l0.4,2.4l0.6,1.6l-0.3,1.1l1.1,3.6
	l3.5,5.7l1.7,3.1l4,3l1.6,1.8l-1.3,0.6l-1.8,2l-1,2l-0.3,1.8l-1.7,0.6l-2.7-1.2l-2,0.9l-1.4-0.8l-2.8,0.4l-20,22.3l-26,0.5
	l23.3-36.9l0.3-0.4l2.1-1.4V373l-3-6.9l-1.6-4.6l-1.7-0.8l-0.3-2.2l-2.5-0.9l-0.4-1.3l0.6-2L537,350l-1.2-1.8v-2.7l-0.7-1.1l0.9-1.1
	l2.6-1.3l6.9-32.5v-0.2l-6-11l0.5-2.6l0,0l2.9-16.4l2.4-16.7l4.1-24.5l63.8-2L612.1,237.6z"/>
<path class="st0" d="M371.8,144.4l-1.3-1.3h2.5l0.9-3.4l2.1-0.3l1.3-2.6l22.5-10.4l3.6-9.1l1.4,1.2l1.7,0.3l1.7,1.7l1.2,1.7l2.2,1.4
	l1.8,2.6l2.5,1.2l1.5,0.4l1.9,1.7l3.6,0.7l1.9-2l1.5-5.1l1.1-4.4l-1.2-4.6l0.1-1.6l0.9-1.2l1.5,0.4l2.5,1.1l2,1l0.2,1.2l-0.5,3
	l0.2,3.4l1.6,2l2.7,1.1l1.7,1.2l2.9,3.9l1.9,2.4l1.2,4.6l2.6,0.3l0.7-0.5l1,0.8l1.2-0.2l0.9,1.3l2.5,0.2l2.5-1.2l0.7-0.6l0.5,0.6
	l2.6,1.6l5.1,0.2l1.1-2.4l-0.2-2.3l0,0l2.9,2l1.7,2.1l3.9,0.2l1.5-1.1l0.8-1.1l1.9-0.2l1.1-1.6l1.8-2.3l2.9-1.7l0.7-6.9l-0.7-8.6
	l-0.2-4l-1-2.4l-2.8-0.7l-2.7,0.7l-0.7,2.3l-1.2,0.2l-0.8-0.8l-1.2-2l-0.4-2.3l-2.3-0.9l-2.5,1.3l-2.5,1.5l-1,0.3l-1.1-0.7l-1.2-1.9
	l-1.4-1.1l-0.7-1.7l0.3-3.2l-0.4-2.5l-1.3-1.8l-2.5-1.2l-1.5-1.5l-1.4-2.7l-0.8-2.3l-0.4-1.8l-1.3-1.5v-1.3l1-2.2l0.6-4l0.2-3.5
	l0.5-1.8l3-0.3l6.1,0.6l1.4,1.7l2.9,0.4l1.9,1.7l-1.1,0.8l1.5,2.5l3,3.1l0.6,3.5l3.8,9.1l1.9-5.2l0.1-7.4l0.9-1.7l1.5-1.5l1-4.4
	l2.4-2l-0.7-1.8l1.4-1.4l0.6-2.5l1.6-0.5l1.9,0.3l1.8,1.4l2.1-1.7l14.2-0.7l5.2-0.3l2.9,5.2l2.9,1.5L522,76l4.4,3.3l2.3,53.5
	l-26.9,35.1l-15.1-0.3l-4.9-1.7l-3.4,7.1l-1.8,4.2l-0.4,3.7l-1.7,3.2h-2.1l-1.5,1.2h-4.7L465,186l-1.2-0.8l-3.1-1l-4.3-0.9l-3.1-1.8
	h-3.7l-3,0.3l-1.4,1.1l-1.7-0.3l-1.8,2.8l-1.7,1.2h-1.8l-2.8-1.4l-2.1-0.6l-1-1.9h-3l-2.7,1.9l-0.6,2.9l-0.7,1l-1.4-1.2l-2.4-3
	l-1.9-2.5l-3.2-3.4l-1.8-2.9l0.6-1.6l3.6-2.2l2.5-1.8v-8.4l-26.9-1.5l-20.5-1.7l1-3.4l-2.4-4.9l-3-1.9l-0.7-1L371.8,144.4z"/>
<path class="st0" d="M408.6,101.6l-1.1-3.2l-2.6-1.5l0.4-1.5l0.9-1.8l1.6-0.8v-3.1l2.4-3.3l1.7-0.7l2.1-2.9V81l3-1.8l7.9-5.4
	l0.8-2.6l0.3-2.3l1-0.6l1.1,0.2l0.8,2l2.2-0.6c0.3-0.1,2.6-0.4,3.3,2l0.1,0.2l1.7,1.7l2.5-0.8l7.4-0.3h5.3l-0.3,1.2l-0.2,3.9
	l-0.5,3.5l-1,2.3l-0.1,2.7l1.5,1.6l0.3,1.4l0.9,2.5l1.6,2.9l1.9,2L458,98l0.7,1l0.3,1.7l-0.4,3.4l1.1,2.7l1.5,1.1l1.3,1.9l2.5,1.6
	l2-0.7l2.7-1.6l1.7-0.8l0.4,0.2l0.2,1.3l1.5,2.6l1.7,1.8l3.6-0.5l0.7-2.5l1.1-0.3l1.3,0.3l0.4,0.9l0.2,3.8l0.7,8.4l-0.6,5.7
	l-2.2,1.3l-2.2,2.7l-0.6,0.8l-1.9,0.2l-1,1.5l-0.8,0.6l-2.3-0.1l-1.3-1.5l-2.9-2.1l-2.5-1.9l-1,3.1l0.2,2.2l-0.3,0.7l-3.2-0.1
	l-1.7-1l-1.8-2.3l-1.9,1.9l-1.8,0.8l-1-0.1l-1.1-1.5l-1.5,0.2l-1.5-1.2l-1.4,0.9l-0.5-0.1l-0.9-3.4l-2.2-2.9l-2.9-4l-2.1-1.6
	l-2.6-1.1l-0.8-1.1l-0.1-2.5l0.5-3.2l-0.5-2.6l-2.9-1.4l-2.6-1.2l-3.1-0.7l-2.2,2.6l-0.2,2.6l1.2,4.4l-1,3.8l-1.3,4.6l-0.8,0.8
	l-1.9-0.4l-1.9-1.7l-1.7-0.4l-1.9-0.9l-1.7-2.5l-2.1-1.2l-1.2-1.7l-2.3-2.3l-1.8-0.4l-1.3-1.1l-0.2-0.1l3-8L408.6,101.6z"/>
<path class="st0" d="M327.7,338l-0.3-4.3l0.2-0.4l1.7,1.6l2.8-4.7l1.5-1.2l-1.9-4.5l2.5-9.5l1.1-3.9l0.5-0.3l2.4,0.4l3.4-3.4
	l-0.7-1.9l1.4-1.4l-1.2-2.6l-2-0.6l-0.1-0.9l1.5-2.5l0.2-4.9l-0.8-4.2l-1.7-2l-0.5-4l-0.9-2.3l-0.2-1l1.2-0.7l0.8-2l0.9-1.3l2.3-0.4
	l1.8-6.6V263l-0.5-3.1l2.2-3.4l-0.3-2.4l0.8-1.2l1.1,1.7l3,1l2.6,0.3l3.1,2.9l0.6,2.2l1.9,0.9l1.3,2.9l1,2.2l1.8,3l-3.4,2l1.2,3.5
	l0.9,1.2l-1,1.3l0.5,1.9l-1.6,1.1l-0.4,7h11.1l5.5,0.8l1.2,2l5.9,4.7l6.5,5l5.3,4.7l1.7,1.7l1.8,2.1l2.7,1.6l2,3.1l3,3.9l5.8,7.8
	l0.3,3.9l1.2,3l-0.9,4.4l1.7,5.3l1.7,1.4l1.8,0.8l0.2,1.5l1.1,2.4l2,1.2l0.2,0.6h-0.5l-3.4-1.1l-1.8,1.2l-0.6-0.6l-1.9,0.9l-8.9,0.7
	l-0.9,5.2l1.1,3.2l0.1,0.7l-0.5,0.1h-3.3l-4.4-0.3l-1.7-0.6l-1.2-1.5l-3.6-2.3l-2.8,2l-2.1,1l-1.4,1.3l-0.4-2.9l-4,1.7l-1.2,3.3
	l-0.6,2.3l-1.5,0.7l-3.8,0.3l-2.8-0.3l-0.4-1V359l-2-3l-1.9,0.7l-1.2-1.2h-2.9l-3.2,2.8l-4.6,1.1l-6.1,7.6l1,3.2l-1.8,1.2h-3.7
	l-2.1,2.8l-1,0.2l0.6-3.8l-2.5-3l-2.8-6l-0.9-2.5l2.3-3.9l-1.6-2.4l-3-0.8l-3.5-7.4L327.7,338z"/>
<path class="st0" d="M543.2,262.6l-2.4,16.7l-2.5,14.1l-4.4-6.9l-3.2,1.4l-13.1-1.2l-11.7-1.5l-5-0.6l-5-0.9l-3.5,0.9l-2.5-0.9
	l-0.5-1.6l-1.5-2.3l-2.8-1.4h-2.9l-7.4,2.1l-5.1,1.2l-1.3,0.7l-5.2-8.3v-10.3l-0.9-7.1l0.3-3.9v-8.7l-2.1-5.6l-0.9-4l0.8-0.2
	l2.9-2.9v-6.2l-0.3-3.7l0.8-3.2l1.9-2.4l2.2-1.9l1-3.5l-0.3-2.9l1.9-1.3l1.5-4.8l2.4-1.8l1-3.8l0.3-2.7l-1.2-2.5v-1.4l1.8-1.5v-2.6
	l2-3.7l0.4-3.8l1.7-4l2.6-5.4l3.3,1.2l14.1,0.3v0.1h2.1h0.2l43.5-0.3l1.2,67.5L543.2,262.6z"/>
<path class="st0" d="M360.2,229.1l2.3-2.9v-2.3l3.4-5.1l-1.2-1.2l2.3-3.1l1.3-0.8l1.9,0.9l3.2-1.9l4.6-0.2l1.5-2.5l-0.4-3.4
	l-6.8-9.3l-2.3-2.1v-1.6l1-1.2l0.2-2.1l4.6-2.8l-0.2-2.9l-1.5-4.2l0.2-2.3l-2.6-6.3l-0.2-2.6l-1.3-3.2l1-2.1l-0.9-4.2l24.4,2l25,1.4
	v5.4l-1.6,1.1l-4.2,2.6l-1.2,3.2l2.5,3.9l3.2,3.5l1.8,2.4l2.5,3.1l3.2,2.8l2.2-3l0.7-2.7l1.5-1.1h1.1l0.5,1v2.6l-0.9,3.2v3.8l4.8,1
	l2.5,1.8l1,3.4v3.2L437,209l-3.8,5.9l2.5,1.7l1.2,1.4l0.3,3.8l1.5,3.8l0.3,2.4l2.4,2h1.9l1.4,2.4l0.9,3.3l1.3,3.1l5.8-3.2l1.2-1.2
	l2.7,1.1l0.8-0.3l1,4l2,5.2v8.4l-0.3,4l0.9,7.1v10.7l3.4,5.6l2,3.1l-2.6,1.4l0.9,6.8l-4.5,5.1l-6.5,1.2l-0.1,0.3l-3.5-11.4l-2.8-8
	l-2.7-2.7l-0.9-3.3l-4.4-4.4l-5.2-4.3l-3-1.9l-1.5-3l-2.1-1.5l-0.9-2.1l-2-1.7l-2.7-1.3l-2.5-2.7l-2-3.8l-3.2-2.6h-3.4l-6.6,0.6
	l-4.8,0.6l-2,1.6l-2,1.5l-3.3-0.5l-2.6-1.6l-1.5-2.4l-2.6-1.5l-1.6,0.3l-1.1-1.1l-2.4-1.1l-2.3-0.1l-2.1-0.7l-1.2-2.7l-0.6-5.4
	l-2-1.5l-4.6,1.3l-4.9,1.2l-2-0.2l-1.2-0.8L360.2,229.1z"/>
<path class="st0" d="M348.8,249.5l0.5-1.2l1.8-0.3l3-2.4l2.2-3.9l0.6-3.3l2.3-1.6l0.4-3l0.5,0.4l2.8,0.4l5.3-1.2l3.7-1.1l0.4,0.3
	l0.5,4.6l1.8,4l3.1,1l2.2,0.1l1.7,0.7l1.7,1.7l2-0.3l1.5,0.9l1.5,2.4l3.2,1.9l4.7,0.8l2.8-2.1l1.6-1.3l4.1-0.6l6.5-0.6h2.6l2.2,1.7
	l2,3.7l2.8,3.2l2.9,1.4l1.5,1.2l0.9,2.1l2.1,1.5l1.5,3l3.4,2.2l5,4.1l4,4l0.9,3.3l2.7,2.7l2.6,7.5l4.3,14.1l-7.9,23v0.1l0.9,24.4
	l-6.9-0.5l-2.4,1.4h-4.1l-1.9,1l-4.2-1l-1.4,0.8l-0.4-0.4l-1.4-0.2L422,348l-2.1-1.2l-0.7-1.4l-0.4-2.5l-2.5-1.1l-1.1-0.9l-1.3-4.2
	l0.9-4.5l-1.2-3.1l-0.3-4.3l-6.2-8.3l-2.9-3.8l-2.2-3.5l-2.8-1.5l-1.7-2l-1.8-1.8l-5.4-4.8l-6.6-5.1l-5.5-4.4l-1.6-2.6l-6.6-1h-9.1
	l0.2-3.8l2-1.3l-0.7-2.3l1.4-1.7l-1.6-2l-0.6-1.7l3.8-2.2l-2.9-4.6l-2.5-5.7l-1.7-0.9l-0.6-1.9l-4-3.7l-2.9-0.3l-2.2-0.7l-1.1-1.7
	L348.8,249.5z"/>
<path class="st0" d="M440,196.7l-3.3-2.3l-3.7-0.9v-1.7l0.9-3.2l0.1-1.9l1,0.2l3.1,1.6h3l2.4-1.7l1.4-2.1l1.3,0.3l1.6-1.3l2.3-0.3h3
	l2.7,1.6l4.7,1l2.6,0.9l2.2,1.5l1.8-1.1h4.9l1.5-1.2h1v0.9l-1.8,1.5v2.8l1.2,2.3l-0.2,1.9l-0.8,2.9l-2.4,1.8L469,205l-2.3,1.6
	l0.3,3.7l-0.8,2.5l-1.9,1.7l-2.2,2.8l-1.1,4.1l0.3,4v5.2l-1.9,1.9l-2.4,0.7l-3.3-1.3l-1.9,1.9l-3.7,2.1l-0.4-0.9l-0.9-3.3l-2.2-3.7
	h-2.3l-1.2-1l-0.2-1.7l-1.5-3.7l-0.3-4.3l-1.7-2l-1.2-0.8l2.8-4.3l2.5-5v-3.8L440,196.7z"/>
<path class="st0" d="M477.8,991l-1-0.8h-2.3l-1.8,0.3l-2.9-0.3l-2.5,0.2l-2.9-0.5l-1.2-0.2l-2-1.5l-1.6-0.4l-0.2-1.4l-2.2-1.8
	l-2.6-0.5l-1.1-0.9l-1.5-1.5l-1.5-2.1l-2.9-0.5l-1.2-1.7l-1.5-0.2l-1.3-0.8l-1.8-0.4l-0.7-1.6l-2.2-1.1l-1.6-1.2l-1.8-0.6l-0.3-0.3
	l1.1-0.5l-1.8-2l-1.8-0.4l-1-0.8l-2.4-1.7l-1.5-1.3l-1.9-1.1l-0.6-1.9l-0.7-1.8l-0.4-2.3l-0.6-2.3h-2.4l-1.6-0.3l-1.4-0.8l-0.7-1.3
	v-1.2l1-0.9l1.1-0.8l0.6,0.5l2.8,1.5l-1.2-3l-0.2-1.5l-0.5-1.7l-1.7-2.4l-2-2l-1-1.6l-2-1.7l4.7,63l1.3-2l1.8,0.2l1.4-1.6l1.6-0.1
	l2.4,0.5l2.9,0.5l4.4,0.7l1.7-0.7l1.7,0.2l2-0.2l1.9,0.3l2.5,0.2l3.9,0.7l1.7,0.5l0.7,0.9l0.4,1.1h2.6l3.2,0.2l2.3-1.2h3l1.7-0.7
	l2.8-0.7l1.9-0.8l-0.6,0.5l3.8-0.7l1.4-0.7l0.6-0.7l0.9,0.3l1.9-0.8l1.8-1.7l0.4-1.1l1.1-1.5l-0.3-1.9L477.8,991z"/>
<path class="st0" d="M503,991.1l-1.7,0.6l-1-0.4l-0.6,0.8l-0.8-0.6l-0.5,0.1v-0.7l-1.8,0.5l-0.9,0.6l-0.7-0.3l-0.9-1.2l-1.4,2.1
	l-0.5-0.7l-1.1,0.7l-0.7-0.6l-3.3-0.9l2.1,2.1l-0.1,0.4l-1.4,0.1l-2.8,1.2l2.3,0.8l-0.5,0.5l0.6,1.7l2.1-0.3l0.3-1.2h0.9l1-1
	l1.3,0.2l1.3-0.9l0.6-0.1l0.2,0.9l1.7-0.2l1.1-0.5l1.5-0.2l1.1-0.4l1,0.6l2-0.2l1-1.5l-0.6-1.1L503,991.1z"/>
<g>
	<g>
		<path class="st1" d="M788.1,394.1c0,0-1.2-0.4-1.2-0.4c0,0,0-0.1,0-0.1l0.8,0.1l-0.3-0.4c0,0-0.1,0-0.1,0L787,393c0,0,0,0,0,0
			c0,0,0,0,0,0c0,0,0,0,0,0l-0.5-0.7c0,0-0.1,0-0.1,0l-0.9-0.2c0,0-0.1,0-0.1,0l-0.2-0.2c0,0,0-0.1,0.1,0l0.8,0.1l0,0c0,0,0,0,0,0
			l-0.3-0.4c0,0-1.2-0.3-1.2-0.3c0,0-0.1-0.1-0.1-0.1l-0.2-0.2c0,0,0,0-0.1,0l-0.1,0.1c0,0,0,0.1,0,0.1l1,1.1c0,0,0,0.1,0,0.1
			s-0.1,0.1-0.1,0.1c0,0-0.3,0-0.3,0c0,0,0,0,0,0l-0.8-1c0,0,0-0.1-0.1-0.1c0,0-0.1-0.1-0.1-0.1l-0.2-0.1c0,0,0,0,0,0
			c0,0-0.1-0.1-0.1-0.1s-0.1-0.3-0.1-0.4c0-0.1,0-0.2,0-0.3c0,0-0.1,0-0.1,0c0,0,0,0-0.1,0c0,0-0.1,0-0.1,0c0,0-0.1,0-0.1,0l0-0.1
			c0,0,0,0,0.1,0c0,0,0-0.1,0-0.1c0,0,0,0,0,0c0-0.1,0.1-0.1,0.1-0.1c0,0,0.1,0,0.1,0c0.1,0,0.1-0.1,0.2-0.2c0-0.1,0-0.2,0-0.2
			s0-0.1-0.1-0.2c0-0.1-0.1-0.1-0.1-0.1s-0.1,0-0.2,0c-0.1,0-0.1,0.1-0.1,0.1s-0.1,0.1-0.1,0.1c0,0-0.1,0-0.1,0c0,0-0.1,0-0.1-0.1
			c0,0-0.1-0.1-0.1-0.2c0,0,0,0,0,0l0,0c0,0-0.1-0.4-0.1-0.4s-0.1-0.3-0.2-0.6c-0.1-0.2-0.2-0.4-0.2-0.4c0,0,0,0,0,0s0,0,0,0
			l-0.1-0.1c-0.1-0.1-0.2-0.3-0.4-0.5c-0.2-0.2-0.4-0.3-0.6-0.5c-0.2-0.1-1.1-0.7-1.1-0.7l0.2-0.3c0,0-0.2-0.1-0.2-0.2
			c0,0-0.5-0.3-0.5-0.4c0,0,0.1-0.4,0.1-0.6c0-0.1-0.1-0.3-0.1-0.3c0,0-0.7-0.6-0.7-0.6c0,0-0.4-0.5-0.4-0.5s-0.3,0.1-0.3,0.1
			c0,0-0.1-0.2-0.2-0.2c0,0-0.2-0.2-0.2-0.2s-0.5-0.6-0.5-0.6c0,0-0.6,0.3-0.6,0.3s-0.1,0.1-0.1,0.1c0,0,0,0,0,0s0,0,0,0
			c0,0,0-0.1,0-0.1c0,0-0.2-0.4-0.2-0.4c0,0,0,0,0,0s0.2-0.1,0.2-0.1c0,0,0-0.1,0-0.1s-0.4-1.1-0.4-1.2c0-0.1-0.2-0.1-0.2-0.1
			s-0.1,0-0.2,0c-0.1,0-0.8,0.3-0.8,0.3l-2.2,0.6l-4,0.8c-0.1,0-0.2,0.1-0.2,0.1l-2.4,3.4l-1.4,2l-3.5,4.9l-0.2,0.4
			c-0.1,0.1-0.1,0.2-0.1,0.2l-0.1,0.4l-0.2,0.8l-0.2,1.1l-0.3,1.4l-0.8,3.4c0,0.1,0,0.2,0,0.2l0.4,0.6l0.4,0.7l2.3,3.5l1.3,2
			l0.9,1.4l2.6,3.9l2.1-1.8l1.5-1.3l2.5-2.1l0.6-0.5l0.2-0.2c0.1-0.1,0.5-0.4,0.8-0.5c0,0,0.1,0,0.1,0c0.3-0.1,0.7-0.2,0.7-0.2
			s0.7-0.1,0.8-0.1c0.1,0,0.6,0.2,0.6,0.2l0.3,0.3c0,0,0.1,0.1,0.2,0.1c0.1,0,0.2,0,0.2,0s0.7,0.1,0.7,0.1c0.1,0.1,0.1,0.2,0.2,0.2
			c0,0.1,0,0.1,0.1,0.1c0.1,0,0.1-0.1,0.1-0.1s0,0,0-0.2c0-0.1,0-0.2,0-0.2l0,0c0.1-0.1,0.2,0,0.2,0c0.1,0,0.1,0.1,0.1,0.1
			c0,0,0,0,0,0c0,0.1,0.1,0.2,0.1,0.2c0,0.1-0.1,0.1-0.1,0.1s-0.2,0.1-0.3,0.1c-0.1,0-0.1,0.1-0.1,0.1s0,0.1,0,0.1
			c0,0,0.4,0.2,0.4,0.2s0.1,0.1,0.2,0.1c0.1,0,0.7-0.2,0.7-0.2c0.1,0,0.3-0.2,0.4-0.2c0.1-0.1,0.2-0.2,0.3-0.2
			c0.1,0,1.3,0.2,1.3,0.2s0.1,0,0.1,0c0,0,0.1,0,0.1,0s0,0.1,0.1,0.1c0.1,0,0.2,0,0.2,0c0,0,0.2-0.1,0.2-0.2
			c0.1-0.1,0.2-0.1,0.2-0.1c0.1,0,0.2,0,0.2,0s0.1,0,0.2-0.1c0.1-0.1,0.1-0.2,0.1-0.2c0,0,0-0.1,0.1-0.2c0,0,0.1-0.1,0.1-0.1
			c0.1,0,0.7-0.2,0.7-0.2c0.1,0,0.2,0,0.2,0s0.1,0,0.2,0c0,0,0.1,0,0.1,0s0.3-0.2,0.4-0.2c0.1-0.1,0.2-0.1,0.3-0.1
			c0,0,0.1,0,0.1-0.1c0,0,0.1-0.1,0.1-0.2c0-0.1,0-0.3,0-0.4c0-0.1-0.1-0.2-0.1-0.2s-0.2-0.2-0.3-0.2c0,0-0.1-0.1-0.1-0.1
			c0-0.1,0-0.1,0-0.1l0.1,0c0,0,0,0,0,0l0.4,0.1c0,0,0.1,0,0.1,0s0.2-0.1,0.3-0.2c0-0.1,0.1-0.1,0.1-0.1s0.4-0.1,0.4-0.2
			c0.1,0,0.1-0.1,0.1-0.1l0.2-0.4c0,0,0-0.5,0-0.5c0,0,0-0.1,0-0.1c0,0,0-0.1,0-0.1l-0.8-1c0,0-0.1-0.1-0.1-0.1l-0.4-0.4l0.9-4.8
			l-0.2-0.1l0-0.7l0.5-0.1c0,0,0.1,0.3,0.1,0.3c0,0,0.1,0,0.1,0c0,0-0.2-0.8-0.2-0.8c0,0,0,0,0,0l-0.1,0l0-0.1l0.5,0l0.7,0
			c0.1,0,0.1-0.2,0.1-0.2l-0.6-0.2l0.1-0.2l0.5,0.1c0,0,0,0,0,0l0.1-0.3c0,0,0,0,0,0l-0.7-0.1c0,0-0.1-0.3-0.1-0.3l0.8,0.1
			c0,0,0,0,0,0L788.1,394.1z"/>
	</g>
	<g>
		<path class="st2" d="M788.1,394.1c0,0-1.2-0.4-1.2-0.4c0,0,0-0.1,0-0.1l0.8,0.1l-0.3-0.4c0,0-0.1,0-0.1,0L787,393c0,0,0,0,0,0
			c0,0,0,0,0,0c0,0,0,0,0,0l-0.5-0.7c0,0-0.1,0-0.1,0l-0.9-0.2c0,0-0.1,0-0.1,0l-0.2-0.2c0,0,0-0.1,0.1,0l0.8,0.1l0,0c0,0,0,0,0,0
			l-0.3-0.4c0,0-1.2-0.3-1.2-0.3c0,0-0.1-0.1-0.1-0.1l-0.2-0.2c0,0,0,0-0.1,0l-0.1,0.1c0,0,0,0.1,0,0.1l1,1.1c0,0,0,0.1,0,0.1
			s-0.1,0.1-0.1,0.1c0,0-0.3,0-0.3,0c0,0,0,0,0,0l-0.8-1c0,0,0-0.1-0.1-0.1c0,0-0.1-0.1-0.1-0.1l-0.2-0.1c0,0,0,0,0,0
			c0,0-0.1-0.1-0.1-0.1s-0.1-0.3-0.1-0.4c0-0.1,0-0.2,0-0.3c0,0-0.1,0-0.1,0c0,0,0,0-0.1,0c0,0-0.1,0-0.1,0c0,0-0.1,0-0.1,0l0-0.1
			c0,0,0,0,0.1,0c0,0,0-0.1,0-0.1c0,0,0,0,0,0c0-0.1,0.1-0.1,0.1-0.1c0,0,0.1,0,0.1,0c0.1,0,0.1-0.1,0.2-0.2c0-0.1,0-0.2,0-0.2
			s0-0.1-0.1-0.2c0-0.1-0.1-0.1-0.1-0.1s-0.1,0-0.2,0c-0.1,0-0.1,0.1-0.1,0.1s-0.1,0.1-0.1,0.1c0,0-0.1,0-0.1,0c0,0-0.1,0-0.1-0.1
			c0,0-0.1-0.1-0.1-0.2c0,0,0,0,0,0l0,0c0,0-0.1-0.4-0.1-0.4s-0.1-0.3-0.2-0.6c-0.1-0.2-0.2-0.4-0.2-0.4c0,0,0,0,0,0s0,0,0,0
			l-0.1-0.1c-0.1-0.1-0.2-0.3-0.4-0.5c-0.2-0.2-0.4-0.3-0.6-0.5c-0.2-0.1-1.1-0.7-1.1-0.7l0.2-0.3c0,0-0.2-0.1-0.2-0.2
			c0,0-0.5-0.3-0.5-0.4c0,0,0.1-0.4,0.1-0.6c0-0.1-0.1-0.3-0.1-0.3c0,0-0.7-0.6-0.7-0.6c0,0-0.4-0.5-0.4-0.5s-0.3,0.1-0.3,0.1
			c0,0-0.1-0.2-0.2-0.2c0,0-0.2-0.2-0.2-0.2s-0.5-0.6-0.5-0.6c0,0-0.6,0.3-0.6,0.3s-0.1,0.1-0.1,0.1c0,0,0,0,0,0s0,0,0,0
			c0,0,0-0.1,0-0.1c0,0-0.2-0.4-0.2-0.4c0,0,0,0,0,0s0.2-0.1,0.2-0.1c0,0,0-0.1,0-0.1s-0.4-1.1-0.4-1.2c0-0.1-0.2-0.1-0.2-0.1
			s-0.1,0-0.2,0c-0.1,0-0.8,0.3-0.8,0.3l-2.2,0.6l-4,0.8c-0.1,0-0.2,0.1-0.2,0.1l-2.4,3.4l-1.4,2l-3.5,4.9l-0.2,0.4
			c-0.1,0.1-0.1,0.2-0.1,0.2l-0.1,0.4l-0.2,0.8l-0.2,1.1l-0.3,1.4l-0.8,3.4c0,0.1,0,0.2,0,0.2l0.4,0.6l0.4,0.7l2.3,3.5l1.3,2
			l0.9,1.4l2.6,3.9l2.1-1.8l1.5-1.3l2.5-2.1l0.6-0.5l0.2-0.2c0.1-0.1,0.5-0.4,0.8-0.5c0,0,0.1,0,0.1,0c0.3-0.1,0.7-0.2,0.7-0.2
			s0.7-0.1,0.8-0.1c0.1,0,0.6,0.2,0.6,0.2l0.3,0.3c0,0,0.1,0.1,0.2,0.1c0.1,0,0.2,0,0.2,0s0.7,0.1,0.7,0.1c0.1,0.1,0.1,0.2,0.2,0.2
			c0,0.1,0,0.1,0.1,0.1c0.1,0,0.1-0.1,0.1-0.1s0,0,0-0.2c0-0.1,0-0.2,0-0.2l0,0c0.1-0.1,0.2,0,0.2,0c0.1,0,0.1,0.1,0.1,0.1
			c0,0,0,0,0,0c0,0.1,0.1,0.2,0.1,0.2c0,0.1-0.1,0.1-0.1,0.1s-0.2,0.1-0.3,0.1c-0.1,0-0.1,0.1-0.1,0.1s0,0.1,0,0.1
			c0,0,0.4,0.2,0.4,0.2s0.1,0.1,0.2,0.1c0.1,0,0.7-0.2,0.7-0.2c0.1,0,0.3-0.2,0.4-0.2c0.1-0.1,0.2-0.2,0.3-0.2
			c0.1,0,1.3,0.2,1.3,0.2s0.1,0,0.1,0c0,0,0.1,0,0.1,0s0,0.1,0.1,0.1c0.1,0,0.2,0,0.2,0c0,0,0.2-0.1,0.2-0.2
			c0.1-0.1,0.2-0.1,0.2-0.1c0.1,0,0.2,0,0.2,0s0.1,0,0.2-0.1c0.1-0.1,0.1-0.2,0.1-0.2c0,0,0-0.1,0.1-0.2c0,0,0.1-0.1,0.1-0.1
			c0.1,0,0.7-0.2,0.7-0.2c0.1,0,0.2,0,0.2,0s0.1,0,0.2,0c0,0,0.1,0,0.1,0s0.3-0.2,0.4-0.2c0.1-0.1,0.2-0.1,0.3-0.1
			c0,0,0.1,0,0.1-0.1c0,0,0.1-0.1,0.1-0.2c0-0.1,0-0.3,0-0.4c0-0.1-0.1-0.2-0.1-0.2s-0.2-0.2-0.3-0.2c0,0-0.1-0.1-0.1-0.1
			c0-0.1,0-0.1,0-0.1l0.1,0c0,0,0,0,0,0l0.4,0.1c0,0,0.1,0,0.1,0s0.2-0.1,0.3-0.2c0-0.1,0.1-0.1,0.1-0.1s0.4-0.1,0.4-0.2
			c0.1,0,0.1-0.1,0.1-0.1l0.2-0.4c0,0,0-0.5,0-0.5c0,0,0-0.1,0-0.1c0,0,0-0.1,0-0.1l-0.8-1c0,0-0.1-0.1-0.1-0.1l-0.4-0.4l0.9-4.8
			l-0.2-0.1l0-0.7l0.5-0.1c0,0,0.1,0.3,0.1,0.3c0,0,0.1,0,0.1,0c0,0-0.2-0.8-0.2-0.8c0,0,0,0,0,0l-0.1,0l0-0.1l0.5,0l0.7,0
			c0.1,0,0.1-0.2,0.1-0.2l-0.6-0.2l0.1-0.2l0.5,0.1c0,0,0,0,0,0l0.1-0.3c0,0,0,0,0,0l-0.7-0.1c0,0-0.1-0.3-0.1-0.3l0.8,0.1
			c0,0,0,0,0,0L788.1,394.1z"/>
	</g>
	<g>
		<path class="st3" d="M788.1,394.1c0,0-1.2-0.4-1.2-0.4c0,0,0-0.1,0-0.1l0.8,0.1l-0.3-0.4c0,0-0.1,0-0.1,0L787,393c0,0,0,0,0,0
			c0,0,0,0,0,0c0,0,0,0,0,0l-0.5-0.7c0,0-0.1,0-0.1,0l-0.9-0.2c0,0-0.1,0-0.1,0l-0.2-0.2c0,0,0-0.1,0.1,0l0.8,0.1l0,0c0,0,0,0,0,0
			l-0.3-0.4c0,0-1.2-0.3-1.2-0.3c0,0-0.1-0.1-0.1-0.1l-0.2-0.2c0,0,0,0-0.1,0l-0.1,0.1c0,0,0,0.1,0,0.1l1,1.1c0,0,0,0.1,0,0.1
			s-0.1,0.1-0.1,0.1c0,0-0.3,0-0.3,0c0,0,0,0,0,0l-0.8-1c0,0,0-0.1-0.1-0.1c0,0-0.1-0.1-0.1-0.1l-0.2-0.1c0,0,0,0,0,0
			c0,0-0.1-0.1-0.1-0.1s-0.1-0.3-0.1-0.4c0-0.1,0-0.2,0-0.3c0,0-0.1,0-0.1,0c0,0,0,0-0.1,0c0,0-0.1,0-0.1,0c0,0-0.1,0-0.1,0l0-0.1
			c0,0,0,0,0.1,0c0,0,0-0.1,0-0.1c0,0,0,0,0,0c0-0.1,0.1-0.1,0.1-0.1c0,0,0.1,0,0.1,0c0.1,0,0.1-0.1,0.2-0.2c0-0.1,0-0.2,0-0.2
			s0-0.1-0.1-0.2c0-0.1-0.1-0.1-0.1-0.1s-0.1,0-0.2,0c-0.1,0-0.1,0.1-0.1,0.1s-0.1,0.1-0.1,0.1c0,0-0.1,0-0.1,0c0,0-0.1,0-0.1-0.1
			c0,0-0.1-0.1-0.1-0.2c0,0,0,0,0,0l0,0c0,0-0.1-0.4-0.1-0.4s-0.1-0.3-0.2-0.6c-0.1-0.2-0.2-0.4-0.2-0.4c0,0,0,0,0,0s0,0,0,0
			l-0.1-0.1c-0.1-0.1-0.2-0.3-0.4-0.5c-0.2-0.2-0.4-0.3-0.6-0.5c-0.2-0.1-1.1-0.7-1.1-0.7l0.2-0.3c0,0-0.2-0.1-0.2-0.2
			c0,0-0.5-0.3-0.5-0.4c0,0,0.1-0.4,0.1-0.6c0-0.1-0.1-0.3-0.1-0.3c0,0-0.7-0.6-0.7-0.6c0,0-0.4-0.5-0.4-0.5s-0.3,0.1-0.3,0.1
			c0,0-0.1-0.2-0.2-0.2c0,0-0.2-0.2-0.2-0.2s-0.5-0.6-0.5-0.6c0,0-0.6,0.3-0.6,0.3s-0.1,0.1-0.1,0.1c0,0,0,0,0,0s0,0,0,0
			c0,0,0-0.1,0-0.1c0,0-0.2-0.4-0.2-0.4c0,0,0,0,0,0s0.2-0.1,0.2-0.1c0,0,0-0.1,0-0.1s-0.4-1.1-0.4-1.2c0-0.1-0.2-0.1-0.2-0.1
			s-0.1,0-0.2,0c-0.1,0-0.8,0.3-0.8,0.3l-2.2,0.6l-4,0.8c-0.1,0-0.2,0.1-0.2,0.1l-2.4,3.4l-1.4,2l-3.5,4.9l-0.2,0.4
			c-0.1,0.1-0.1,0.2-0.1,0.2l-0.1,0.4l-0.2,0.8l-0.2,1.1l-0.3,1.4l-0.8,3.4c0,0.1,0,0.2,0,0.2l0.4,0.6l0.4,0.7l2.3,3.5l1.3,2
			l0.9,1.4l2.6,3.9l2.1-1.8l1.5-1.3l2.5-2.1l0.6-0.5l0.2-0.2c0.1-0.1,0.5-0.4,0.8-0.5c0,0,0.1,0,0.1,0c0.3-0.1,0.7-0.2,0.7-0.2
			s0.7-0.1,0.8-0.1c0.1,0,0.6,0.2,0.6,0.2l0.3,0.3c0,0,0.1,0.1,0.2,0.1c0.1,0,0.2,0,0.2,0s0.7,0.1,0.7,0.1c0.1,0.1,0.1,0.2,0.2,0.2
			c0,0.1,0,0.1,0.1,0.1c0.1,0,0.1-0.1,0.1-0.1s0,0,0-0.2c0-0.1,0-0.2,0-0.2l0,0c0.1-0.1,0.2,0,0.2,0c0.1,0,0.1,0.1,0.1,0.1
			c0,0,0,0,0,0c0,0.1,0.1,0.2,0.1,0.2c0,0.1-0.1,0.1-0.1,0.1s-0.2,0.1-0.3,0.1c-0.1,0-0.1,0.1-0.1,0.1s0,0.1,0,0.1
			c0,0,0.4,0.2,0.4,0.2s0.1,0.1,0.2,0.1c0.1,0,0.7-0.2,0.7-0.2c0.1,0,0.3-0.2,0.4-0.2c0.1-0.1,0.2-0.2,0.3-0.2
			c0.1,0,1.3,0.2,1.3,0.2s0.1,0,0.1,0c0,0,0.1,0,0.1,0s0,0.1,0.1,0.1c0.1,0,0.2,0,0.2,0c0,0,0.2-0.1,0.2-0.2
			c0.1-0.1,0.2-0.1,0.2-0.1c0.1,0,0.2,0,0.2,0s0.1,0,0.2-0.1c0.1-0.1,0.1-0.2,0.1-0.2c0,0,0-0.1,0.1-0.2c0,0,0.1-0.1,0.1-0.1
			c0.1,0,0.7-0.2,0.7-0.2c0.1,0,0.2,0,0.2,0s0.1,0,0.2,0c0,0,0.1,0,0.1,0s0.3-0.2,0.4-0.2c0.1-0.1,0.2-0.1,0.3-0.1
			c0,0,0.1,0,0.1-0.1c0,0,0.1-0.1,0.1-0.2c0-0.1,0-0.3,0-0.4c0-0.1-0.1-0.2-0.1-0.2s-0.2-0.2-0.3-0.2c0,0-0.1-0.1-0.1-0.1
			c0-0.1,0-0.1,0-0.1l0.1,0c0,0,0,0,0,0l0.4,0.1c0,0,0.1,0,0.1,0s0.2-0.1,0.3-0.2c0-0.1,0.1-0.1,0.1-0.1s0.4-0.1,0.4-0.2
			c0.1,0,0.1-0.1,0.1-0.1l0.2-0.4c0,0,0-0.5,0-0.5c0,0,0-0.1,0-0.1c0,0,0-0.1,0-0.1l-0.8-1c0,0-0.1-0.1-0.1-0.1l-0.4-0.4l0.9-4.8
			l-0.2-0.1l0-0.7l0.5-0.1c0,0,0.1,0.3,0.1,0.3c0,0,0.1,0,0.1,0c0,0-0.2-0.8-0.2-0.8c0,0,0,0,0,0l-0.1,0l0-0.1l0.5,0l0.7,0
			c0.1,0,0.1-0.2,0.1-0.2l-0.6-0.2l0.1-0.2l0.5,0.1c0,0,0,0,0,0l0.1-0.3c0,0,0,0,0,0l-0.7-0.1c0,0-0.1-0.3-0.1-0.3l0.8,0.1
			c0,0,0,0,0,0L788.1,394.1z"/>
	</g>
</g>
<path class="st4" d="M824.6,442.2c-0.3,0.2-0.7-0.8-0.7-0.8l-2.2-2l-3.2-3l-0.3-0.5l-4.3-1.8l-0.5-0.4l-0.3-0.3l-1.7-0.3l-1-0.9
	l-0.6,0l-2.2-1.5l-0.8-1.9l0,0l0,0l-0.4-0.5l0-0.5l-0.4-0.9l-0.7-1l-0.6-0.8l-2.8-3.3L801,421l-1.9-2l-0.6-0.8l-1.4-1.7l-0.3-0.2
	l-1.2-1.2l-1.2-1.6l-2.5-2.4l-2.1-2.7l-0.1-0.5l-0.5-0.7l-0.5-0.6l0-0.3l0.2,0l0.3-1.5l-0.3-0.1l-1.1,0.2l-0.1,0.2l-0.3,0l-1.1,0.4
	l-0.4,1.1l-1.3,0.6l-2.4,1.1c0,0-0.4,0-0.6-0.1c-0.2-0.1-0.7,0-1.1,0c-1.3,0-1.8-0.4-1.8-0.4l-1.3-0.9l-0.5-0.4l-0.6-0.2l-1.6,0.3
	l-0.8,0.5l-2.5,2.1l-4.5,3.8l-7.9-12.2l1.7-7.4l1.8-2.5l0,0l0,0l3.3-4.6l2.7-3.8l6-1.3c0,0,0.4-0.8,0.3-1.1c0-0.3-0.2-0.7-0.2-1
	c0-0.3,0-1.5-0.1-1.7c-0.1-0.2,0.1-1.7,0.1-1.7l-0.1-0.8l0.1-1.4c0,0-0.1-1,0-1.4c0.2-0.4-0.2-1.6-0.2-1.6s0-1.2-0.2-1.3
	c-0.2,0-0.6-0.2-0.8-0.3c-0.2-0.1-0.1-1.4-0.1-1.4s-0.4-1.1-0.4-1.2c-0.1-0.1-0.2-0.9-0.3-1.1c0-0.2-0.1-0.3-0.1-0.3
	s-0.8-1.1-0.8-1.1s-0.8-0.6-0.8-0.6s-1.5-0.9-1.5-1.2c0-0.2-0.2-0.5-0.3-0.5c-0.1-0.1-0.4-0.5-0.6-0.7c-0.1-0.1-0.5-0.9-0.5-0.9
	s-0.4-0.7-0.4-0.7c0,0.1-0.1,0.1-0.2,0.1c-0.1,0-0.6,0.2-0.7,0.2c-0.1,0-0.1-0.1-0.1-0.1c0-0.1,0-0.4,0-0.4s-0.8-1.2-0.9-1.2
	c-0.1,0-0.2,0-0.2,0.1c0,0.1-0.2,0.1-0.2,0.1s0,0-0.1,0c0,0-0.1-0.1,0-0.2c0.1-0.1,0.1-1.1,0.1-1.1s-0.3-0.2-0.3-0.2
	c-0.1,0-1.9-1.2-1.9-1.3c0-0.1-0.7-1.1-0.8-1.2c-0.1-0.1-0.4-0.6-0.6-0.7c-0.2-0.1-0.1,0-0.3-0.2c-0.1-0.2-0.4-0.5-0.4-0.6
	c0-0.1-0.3-0.8-0.7-1.1c-0.4-0.3-0.9-1.1-1.1-1.3c-0.2-0.1-1-1.2-1-1.2l-1-1.1c0,0-2.3-2.1-2.4-2.2c-0.1-0.1-0.1-0.1-0.3-0.3
	c-0.2-0.1-0.7-0.7-0.7-0.9c-0.1-0.1-0.1-0.3-0.1-0.3s-0.1-0.3-0.2-0.4c-0.1-0.1-0.1-0.2-0.1-0.2s-0.1-0.3-0.2-0.4l-0.2-0.2l-0.3-0.5
	c0,0-0.2-0.4-0.2-0.5c0-0.1-0.8-1.1-0.9-1.1c-0.1-0.1-0.6-0.9-0.6-1.1l-0.4-0.5l0-0.1l-5.4,2l1.2,1.9l-2.6,2.1l0.3,0.8l-3.8,1.2
	l2.8,7.8l0,0l-7,2.5l0.3,0.7l-1.3,0.5l-0.4-1l-1.7,0.3l-0.1-0.8l-3.1,1.5l-4.9-6.9l0.1,1.3l-0.1,2l0.1,2.1l-0.4,0.7l0,0.9l-2,2.7
	l-0.7,0.5l4.6,10.3l0.3,2.2l6.4,10l0,0l-3.5,4.8l-4.3,2.7l-4.3,0.7l-2.8,0.9l-2.2,0.4l-1.1,0.3l-1.3,0.1l-1.6-0.1l-2.4-0.9l-1.4-0.2
	l-1.8,3.2l6.9,9.7l3.9,4.8l1.4,1.5l1.8,3l4.4,7l-3.3,0.3l-0.5,0.1l-0.8-0.2l-1.4,0.8l-1-0.2l-0.8,0.3l-1.8-0.2l-1.9-0.2l3.6,5.4
	l-2.3,1.7l7.3,11.2l4.1-0.7l3.6-1.2l2.2,6.6l1.9,1.5l1.1,3.8l-3.3,2.4l6.5,10.6l2.3-3.9l-0.6-0.9l3.9-2.2l0.3,0.5l7.6-4.3l5.1-2.8
	l0.3,0.3l1.9-0.7l0.1-0.6l4.7-1.3l2.3-2.3l0.2,1.3l-0.8,0.5l1.6,5.4l8.2-2.5l0.2,0.6l5.2-1.5l0,0l0.6,2.6l3,6.1l-2-0.7l-4.5,1.3
	l2.3,8l-1.8,0.7l1.4,7.4l5.5-2.6l-0.1-0.7l6.7-4.4l1.3-0.8l-0.3-0.5l34.1-21.6C825.7,443.3,824.7,442.2,824.6,442.2z"/>
</svg>
